<svg xmlns="http://www.w3.org/2000/svg" xmlns:xlink="http://www.w3.org/1999/xlink"><defs>
      <path fill="#fff" d="M0 0h72v72H0z"/>
    
      <path fill="#fff" d="M0 0h71v72H0z"/>
    
      <path fill="#fff" d="M0 0h72v72H0z"/>
    
      <path fill="#fff" d="M0 0h64v64H0z"/>
    
      <path fill="#fff" d="M0 0h64v64H0z"/>
    
      <path fill="#fff" d="M0 0h72v72H0z"/>
    </defs><symbol id="sprite">
  <symbol viewBox="0 0 72 72" id="instagram">
    <path fill="#fff" d="M8.54 19.67c-1.1 0-1.98-.89-1.98-1.99V8.54c0-1.1.89-1.98 1.98-1.98h9.14a1.99 1.99 0 1 1 0 3.97h-7.15v7.15c0 1.1-.89 2-1.99 2ZM63.46 65.44h-9.14a1.99 1.99 0 0 1 0-3.97h7.15v-7.15a1.99 1.99 0 0 1 3.97 0v9.14c0 1.1-.89 1.98-1.98 1.98Z"/>
    <path fill="#fff" d="M70.01 72H2C.89 72 0 71.11 0 70.01V2C0 .89.89 0 1.99 0H70C71.11 0 72 .89 72 1.99V70c0 1.1-.9 1.99-1.99 1.99ZM3.98 68.02h64.04V3.98H3.98v64.04Z"/>
    <path fill="#34D8D8" d="M36 46.7a10.7 10.7 0 1 0 0-21.4 10.7 10.7 0 0 0 0 21.4Z"/>
    <path fill="#34D8D8" d="M17.3 17.3v15.75h8.4a10.71 10.71 0 0 1 20.6 0h8.4V17.3H17.3Z"/>
    <path fill="#fff" d="M56.68 33.05V17.3c0-1.1-.89-1.98-1.98-1.98H17.3c-1.1 0-1.98.89-1.98 1.98v37.4c0 1.1.89 1.98 1.98 1.98h37.4c1.1 0 1.98-.89 1.98-1.98V42.56a1.99 1.99 0 0 0-3.97 0v10.15H19.29V35.04h4.05A12.71 12.71 0 0 0 36 48.7a12.71 12.71 0 0 0 12.66-13.66h6.04c1.1 0 1.98-.9 1.98-2ZM36 44.72a8.73 8.73 0 0 1-8.24-11.56l.08-.22.06-.17.08-.19.15-.33.08-.16a9.04 9.04 0 0 1 .61-1.03l.05-.07a8.78 8.78 0 0 1 5.98-3.63l.14-.02a8.34 8.34 0 0 1 .44-.04h.17a8.74 8.74 0 0 1 .8 0h.17a8.17 8.17 0 0 1 .44.04l.14.02a8.78 8.78 0 0 1 5.97 3.62l.06.08.13.2a7.23 7.23 0 0 1 .3.48l.08.16.1.2.08.15.15.33.07.18.08.18a9.05 9.05 0 0 1 .55 3.06c0 4.8-3.91 8.72-8.72 8.72Zm16.7-13.66h-5l-.05-.11-.17-.38-.1-.2a13.05 13.05 0 0 0-.64-1.13l-.16-.25-.2-.28-.1-.14-.22-.3-.04-.05a12.7 12.7 0 0 0-8.41-4.81l-.22-.03-.26-.02-.35-.03-.2-.01a12.47 12.47 0 0 0-1.15 0h-.21l-.35.04-.26.02-.22.03a12.7 12.7 0 0 0-8.42 4.81c0 .02-.02.03-.03.04a13.16 13.16 0 0 0-.32.45l-.2.28-.14.23a12.91 12.91 0 0 0-.65 1.14l-.1.21-.17.36-.06.13h-5V19.29h33.4v11.77Z"/>
    <path fill="#fff" d="M46.45 25.7h3.86a1.99 1.99 0 0 0 0-3.98h-3.86a1.99 1.99 0 0 0 0 3.98Z"/>
    
  </symbol>
  <symbol viewBox="0 0 72 72" id="telegram">
    <path fill="#fff" d="M8.43 19.67a1.98 1.98 0 0 1-1.97-1.99V8.54c0-1.1.88-1.98 1.97-1.98h9c1.09 0 1.97.89 1.97 1.98 0 1.1-.88 2-1.96 2h-7.05v7.14c0 1.1-.88 2-1.96 2ZM62.57 65.44h-9a1.98 1.98 0 0 1-1.97-1.98c0-1.1.88-2 1.96-2h7.05v-7.14c0-1.1.88-2 1.96-2 1.09 0 1.97.9 1.97 2v9.14c0 1.1-.88 1.98-1.97 1.98Z"/>
    <path fill="#fff" d="M69.04 72H1.96A1.98 1.98 0 0 1 0 70.01V2C0 .89.88 0 1.96 0h67.08C70.12 0 71 .89 71 1.99V70c0 1.1-.88 1.99-1.96 1.99ZM3.92 68.02h63.16V3.98H3.92v64.04Z"/>
    <path fill="#34D8D8" d="M52.87 40.46c2.06-10.43 4.23-22.75 3.98-23.18-.44-.77-42.72 16.18-42.72 16.18l10.94 5.84s4.62 12.44 5.44 12.65c.59.15 6.61-5.32 6.61-5.32l12.53 8.12M38 34.79l-4.8 7.38-3.04-7.39 19.35-8.63-11.51 8.64Z"/>
    <path fill="#fff" d="M49.65 56.74c-.37 0-.73-.1-1.06-.31l-11.28-7.31c-.56.5-1.27 1.12-2.01 1.75-3.3 2.82-4.14 3.3-5.27 3.01-1.07-.27-1.6-1.22-2.5-3.15-.5-1.1-1.12-2.58-1.86-4.43a299.6 299.6 0 0 1-2.17-5.59l-10.28-5.5a2 2 0 0 1 .2-3.6c.1-.04 10.7-4.29 21.2-8.39 6.18-2.4 11.13-4.3 14.7-5.6 2.14-.8 3.8-1.38 4.97-1.76.66-.22 1.17-.37 1.54-.46 1.28-.32 2.2-.02 2.71.87.43.75.54.95-.88 9.2a725.78 725.78 0 0 1-2.86 15.38 1.96 1.96 0 0 1-2.31 1.56 1.99 1.99 0 0 1-1.54-2.34 561.84 561.84 0 0 0 3.64-20.13c-6.27 2.15-23.1 8.73-35.76 13.78l7.15 3.82c.43.23.75.6.92 1.06 1.45 3.88 3.21 8.32 4.25 10.58 1.24-1 3.1-2.6 4.66-4.03.66-.6 1.63-.67 2.37-.2l12.52 8.12a2 2 0 0 1 .6 2.75c-.37.6-1 .92-1.65.92ZM33.2 44.15h-.18a1.96 1.96 0 0 1-1.63-1.22l-3.04-7.38a2 2 0 0 1 1.02-2.59l19.35-8.63c.92-.4 1.99-.05 2.49.83a2 2 0 0 1-.53 2.6l-11.24 8.42-4.6 7.08c-.37.56-.98.9-1.64.9Zm-.49-8.33.88 2.13 2.31-3.55-3.19 1.42Z"/>
    
  </symbol>
  <symbol viewBox="0 0 72 72" id="vk">
    <g fill="#fff">
      <path d="M8.54 19.67c-1.1 0-1.98-.89-1.98-1.99V8.54c0-1.1.89-1.98 1.98-1.98h9.14a1.99 1.99 0 0 1 0 3.97h-7.15v7.15c0 1.1-.89 2-1.99 2ZM63.46 65.44h-9.14a1.99 1.99 0 0 1 0-3.97h7.15v-7.15a1.99 1.99 0 0 1 3.97 0v9.14c0 1.1-.89 1.98-1.98 1.98Z"/>
      <path d="M70.01 72H2C.89 72 0 71.11 0 70.01V2C0 .89.9 0 1.99 0H70C71.11 0 72 .89 72 1.99V70c0 1.1-.9 1.99-1.99 1.99ZM3.98 68.02h64.04V3.98H3.98v64.04Z"/>
    </g>
    <path fill="#34D8D8" d="M49.6 38.3c.48.67.95 1.37 1.46 2.02 1.2 1.54 7.43 10.32 7.43 10.32l-10.46.01s-4.48-4.42-5.62-5.75c-.35-.42-.73-.8-1.1-1.2-.2-.2-.44-.25-.68-.24a.77.77 0 0 0-.75.54c-.12.32-1.74 6.64-1.74 6.64-2 .06-5.67.09-7.66-.06 0 0-5.82-8.56-7.7-11.6-2.46-3.94-9.27-16.4-9.27-16.4 1.49 0 5.7 0 7.38-.02 0 0 10.15 15.36 10.15 15.26l-.01-11.5-.01-.63c-.04-.48-.27-.76-.68-.86l-.57-.1c-.58-.08-.82-.36-.88-1.05-.1-1.02.33-1.82 1.16-2.19.35-.15.72-.19 1.1-.18h7.55s.07 6.15.07 7.8v8.22l9.27-14.77h9.83l-4.4 7.64"/>
    <path fill="#fff" d="M34.62 52.68c-1.53 0-3.14-.03-4.29-.12a1.99 1.99 0 0 1-1.5-.86c-.23-.35-5.86-8.63-7.75-11.67a576.3 576.3 0 0 1-9.31-16.5 1.99 1.99 0 0 1 1.74-2.95h7.38c.67 0 1.29.33 1.66.89 1.97 2.98 4.47 6.77 6.5 9.81v-4.67c-.8-.22-1.98-.88-2.15-2.75a4.01 4.01 0 0 1 4.27-4.54h7.53c1.1 0 1.98.88 1.99 1.97 0 .25.07 6.18.07 7.82v1.31l5.6-8.91c.36-.58 1-.93 1.69-.93h9.82a1.99 1.99 0 0 1 1.72 2.98l-4.4 7.63a1.99 1.99 0 1 1-3.45-1.99l2.68-4.64h-5.28l-8.68 13.82a1.99 1.99 0 0 1-3.68-1.05V29.1c0-1.03-.02-3.86-.05-5.8h-4.98A2.9 2.9 0 0 1 33 25.55c.02.28.02.54.02.77v11.5c0 .87-.57 1.65-1.41 1.9-.52.16-1.51.24-2.33-.94l-.34-.5-1.17-1.74a2252.69 2252.69 0 0 1-7.95-12l-2.94.01c2.16 3.93 5.92 10.7 7.58 13.37 1.5 2.42 5.62 8.51 7.12 10.72 1.46.06 3.41.06 5 .04 1.18-4.55 1.37-5.2 1.43-5.35a2.75 2.75 0 0 1 2.57-1.87 2.77 2.77 0 0 1 2.18.88l.2.2c.32.34.65.68.97 1.06.77.9 3.42 3.57 4.91 5.05H54.64a364.1 364.1 0 0 0-6.22-8.58l-.44-.63a1.99 1.99 0 1 1 3.23-2.32l.46.66c.33.46.63.9.95 1.3a631.51 631.51 0 0 1 7.49 10.4 1.99 1.99 0 0 1-1.62 3.14h-5.26l-5.2.01c-.53 0-1.03-.2-1.4-.57-.17-.17-3.87-3.82-5.38-5.49l-1.19 4.56a1.99 1.99 0 0 1-1.87 1.5c-.84.01-2.17.04-3.57.04Z"/>
    
  </symbol>
  <symbol viewBox="0 0 19 38" id="menu-link">
    <path d="M3.62716 15.0322C7.44097 7.24886 11.8314 2.40887 14.4821 3.3442C15.5568 3.72279 16.5266 5.11095 16.5987 5.21859C18.3254 7.73137 17.7487 10.9271 17.6013 11.7437C17.1262 14.3789 15.4781 17.6415 12.9946 18.3838C11.933 18.6993 11.0353 18.4618 10.9402 18.8366C10.7633 19.5456 14.007 20.1431 15.275 22.8304C16.2022 24.8013 16.0745 27.9042 14.3478 30.0124C12.7128 32.013 10.1768 32.4621 8.38786 31.7161C5.88464 30.6694 5.0131 26.9689 4.48231 27.2324C4.19726 27.3734 4.34142 28.4758 4.46593 29.0622C4.81979 30.7362 5.75686 31.8051 6.06157 32.1578C7.074 33.3381 8.38459 35.1197 10.0621 37.9999C6.72342 34.0284 5.38662 32.5438 4.85256 32.0278C4.5118 31.6975 4.26607 31.4006 3.7746 30.8067C3.47316 30.443 3.27002 30.1757 3.09964 29.786C2.91944 29.374 2.85719 29.0214 2.82442 28.821C2.61473 27.5442 2.48367 26.2822 2.42469 25.8145C2.27725 24.6639 1.97254 23.8399 1.73008 23.1756C0.930625 20.9894 -0.150609 19.8536 0.226185 19.0037C0.272056 18.9034 0.383454 18.7067 0.602977 18.2391C0.848712 17.7157 0.969943 17.4485 0.97322 17.3037C0.986326 16.7321 0.363793 16.6282 0.114782 15.9415C-0.166995 15.1621 0.118058 14.2268 0.452257 13.6849C1.0027 12.8015 1.78906 12.82 2.62783 12.3672C3.0079 12.1631 4.02033 11.5618 5.25884 8.41061C7.01502 3.94549 7.26731 -0.00370904 7.28697 2.61419e-06C7.30663 0.00371427 7.21162 4.22015 5.59632 9.68741C4.92136 11.9515 4.18743 13.7702 3.62716 15.0322Z"/>
  </symbol>
  <symbol viewBox="0 0 543 272" id="advantages-desktop">
    <path d="M543 .5A271.5 271.5 0 0 1 0 .5h543Z"/>
  </symbol>
  <symbol viewBox="0 0 80 160" id="advantages-mobile">
    <path d="M0 160A80 80 0 0 0 0 0v160Z"/>
  </symbol>
  <symbol viewBox="0 0 136 177" id="certified-drugs">
    <path d="M51.78 75.27a2.64 2.64 0 0 0 1.96-.84 2.84 2.84 0 0 0 .81-2.02 2.91 2.91 0 0 0-.81-2.01L42.83 59.15l10.9-11.26a2.86 2.86 0 0 0 .89-2.04 2.93 2.93 0 0 0-.81-2.07 2.76 2.76 0 0 0-2.01-.84 2.7 2.7 0 0 0-1.98.91l-10.9 11.27-11.3-11.65h2.6c2.99-.3 5.76-1.72 7.77-4.01a12.64 12.64 0 0 0 3.13-8.36c0-3.09-1.11-6.06-3.13-8.35a11.92 11.92 0 0 0-7.76-4.01H21c-.73 0-1.44.3-1.96.83a2.9 2.9 0 0 0-.8 2.02v38.19c0 .76.28 1.48.8 2.02a2.73 2.73 0 0 0 3.92 0 2.9 2.9 0 0 0 .8-2.02V47.5l11.28 11.64-9.93 10.14a2.84 2.84 0 0 0-.81 2.02 2.91 2.91 0 0 0 1.7 2.64c.35.15.7.22 1.07.21a2.64 2.64 0 0 0 1.96-.83l9.89-10.18 10.9 11.24a2.71 2.71 0 0 0 1.96.88ZM23.71 24.35h6.52c1.66.1 3.23.84 4.38 2.09a6.83 6.83 0 0 1 0 9.24 6.43 6.43 0 0 1-4.38 2.08H23.7V24.35Z"/>
    <path d="M124.25 82.61v-2.38h.57c.73 0 1.44-.3 1.96-.83a2.9 2.9 0 0 0 .8-2.02V64.33c0-.76-.29-1.49-.8-2.02a2.73 2.73 0 0 0-1.96-.84h-14.38V33.92c.02-.18.02-.37 0-.55a2.43 2.43 0 0 0-.24-.7v-.16a2.83 2.83 0 0 0-.44-.6L79.46.78a1.85 1.85 0 0 0-.6-.43l-.14-.1c-.2-.11-.43-.2-.66-.25a2.56 2.56 0 0 0-.54 0H2.77C2.07.01 1.38.3.87.8A2.9 2.9 0 0 0 0 2.69v139.38c0 .76.3 1.49.81 2.02.52.54 1.22.84 1.96.84H44v29.02c0 .75.3 1.48.81 2.01.52.54 1.22.84 1.96.84h39.21c.74 0 1.44-.3 1.96-.84a2.9 2.9 0 0 0 .81-2.01v-9.33h44.47c.74 0 1.44-.3 1.95-.84.52-.53.81-1.26.82-2.01V99.3c0-3.7-1.14-7.31-3.25-10.31-2.11-3-5.09-5.23-8.5-6.38ZM44.9 110.47V98.62h42.92v11.87l-42.92-.02Zm34.85 5.7h3.44v6.48H49.55v-6.47h30.2Zm8.97 21.87V116.2h1.85c.73 0 1.43-.31 1.95-.84.52-.54.81-1.26.82-2.02v-5.7h37.12v30.44l-41.74-.04Zm41.7-36.15H93.36v-6.13c0-.76-.29-1.48-.8-2.02a2.73 2.73 0 0 0-1.96-.83h-3.42a11.57 11.57 0 0 1 4.14-3.98 11.15 11.15 0 0 1 5.48-1.45h22.14a11.3 11.3 0 0 1 8.1 3.47 12.02 12.02 0 0 1 3.36 8.35l.04 2.59Zm-11.71-20.11H97.08v-1.55h21.63v1.55Zm3.34-7.25H93.83v-7.35h28.22v7.35Zm-72.5 53.84h33.67v30.45H49.55v-30.44Zm33.67 42.66H49.55v-6.47h33.67v6.47Zm47.24-12.17h-41.7v-15.1h41.7v15.1Zm-29.41-127.8H80.27V9.65l20.78 21.43ZM5.54 139.23V5.61h69.2v28.31c0 .76.29 1.48.8 2.02.53.53 1.23.84 1.96.84h27.4V61.5H90.98c-.73 0-1.43.3-1.95.84a2.9 2.9 0 0 0-.81 2.02v13.05c0 .76.29 1.48.8 2.02.53.53 1.23.83 1.96.83h.58v2.34c-2.4.8-4.6 2.14-6.44 3.92a17.65 17.65 0 0 0-4.2 6.38H42.18c-.74 0-1.44.3-1.96.83a2.9 2.9 0 0 0-.81 2.02v17.58c0 .76.29 1.49.8 2.02.53.54 1.23.84 1.97.84H44v23.02H5.54Z"/>
    <path d="M114.47 119.97h-3.8v-3.81c-.02-.32-.07-.63-.17-.93a2.8 2.8 0 0 0-1-1.39 2.73 2.73 0 0 0-3.56.32 2.9 2.9 0 0 0-.81 2.02v3.8h-3.8c-.74 0-1.44.3-1.96.84a2.9 2.9 0 0 0 0 4.04c.52.53 1.22.83 1.96.83h3.8v3.92c0 .67.24 1.31.66 1.82a2.7 2.7 0 0 0 3.5.6 2.83 2.83 0 0 0 1.37-2.42v-3.94h3.8c.74 0 1.44-.3 1.96-.83a2.9 2.9 0 0 0 0-4.04 2.72 2.72 0 0 0-1.95-.83Zm-54.66 26.5h3.8v3.8c0 .76.29 1.49.8 2.02a2.73 2.73 0 0 0 3.92 0 2.9 2.9 0 0 0 .81-2.01v-3.8h3.79a2.78 2.78 0 0 0 2.45-1.54 2.9 2.9 0 0 0-.48-3.33 2.73 2.73 0 0 0-1.95-.85h-3.8v-3.92c0-.75-.3-1.48-.82-2.02a2.73 2.73 0 0 0-3.91 0 2.9 2.9 0 0 0-.81 2.02v3.92h-3.8c-.74 0-1.44.3-1.96.84a2.9 2.9 0 0 0 .53 4.45c.43.27.92.42 1.43.42Z"/>
  </symbol>
  <symbol viewBox="0 0 169 165" id="modern-equipment">
    <path d="M150.52 138.42a7.6 7.6 0 0 0-7.06 4.73 7.7 7.7 0 0 0 5.54 10.47 7.58 7.58 0 0 0 7.84-3.25 7.7 7.7 0 0 0-.94-9.7 7.61 7.61 0 0 0-5.38-2.25Zm0 9.85a2.18 2.18 0 0 1-2.16-2.61 2.2 2.2 0 0 1 1.72-1.73 2.17 2.17 0 0 1 2.6 2.17 2.2 2.2 0 0 1-2.16 2.17Z"/>
    <path d="M153.25 127.73V88.88c.1-5.78-2.01-11.38-5.9-15.65a22.47 22.47 0 0 0-14.97-7.32c-16.46 0-20.77 21.02-25.33 43.28-5.16 25.25-10.45 51.33-32.8 49.92-13.63-.22-24.71-12-24.71-26.26V83.11c24.53-1.28 44.05-19.59 44.05-41.94a39.27 39.27 0 0 0-11.33-27.41V2.74A2.75 2.75 0 0 0 79.54 0H68.45a2.72 2.72 0 0 0-2.72 2.74v11.18a2.75 2.75 0 0 0 2.72 2.75h8.93a33.97 33.97 0 0 1 10.75 24.5c0 20.1-18.53 36.55-41.34 36.55-22.8 0-41.36-16.45-41.36-36.55a34.13 34.13 0 0 1 10.78-24.5h9.09a2.72 2.72 0 0 0 2.72-2.75V2.74A2.75 2.75 0 0 0 25.3 0H14.17a2.72 2.72 0 0 0-2.72 2.74v10.97A39.4 39.4 0 0 0 0 41.17c0 22.35 19.53 40.66 44.09 41.94v49.81c0 17.24 13.48 31.49 29.96 31.75h2.05c25.16 0 31.06-28.86 36.35-54.39 4.03-19.93 7.9-38.88 19.77-38.88A17 17 0 0 1 143.44 77a17.18 17.18 0 0 1 4.35 11.82v38.9c-4.61.7-8.8 3.12-11.7 6.78a18.65 18.65 0 0 0 1.85 25.22 18.43 18.43 0 0 0 25.16 0 18.63 18.63 0 0 0-9.85-32ZM71.18 5.48h5.65v5.7h-5.65v-5.7Zm-54.28 0h5.67v5.7H16.9v-5.7Zm133.62 153.63a12.97 12.97 0 0 1-12.04-8.1 13.17 13.17 0 0 1 2.83-14.27 13.01 13.01 0 0 1 22.24 9.29c0 3.47-1.38 6.8-3.82 9.25a13 13 0 0 1-9.21 3.83Z"/>
    <path d="M21.13 39.1c.14 1.88.67 3.7 1.59 5.34h-7.27a2.72 2.72 0 0 0-2.73 2.74 2.75 2.75 0 0 0 2.73 2.74h10.68C31.58 57.47 40.25 65.3 44 66.97c.88.45 1.86.64 2.84.55h.47a5.62 5.62 0 0 0 2.35-.58c3.74-1.68 12.35-9.5 17.88-17.05h10.66a2.72 2.72 0 0 0 2.73-2.74 2.75 2.75 0 0 0-2.73-2.74h-7.26c.9-1.65 1.43-3.47 1.56-5.34a16.71 16.71 0 0 0-4.86-11.75 16.53 16.53 0 0 0-11.7-4.88c-3.24.02-6.4 1-9.08 2.83A16.3 16.3 0 0 0 31.4 23.7a16.55 16.55 0 0 0-9 9.02 16.73 16.73 0 0 0-1.27 6.4Zm37.38 13.2a48.6 48.6 0 0 1-11.08 9.69c-.2-.03-.41-.03-.62 0a2.5 2.5 0 0 0-.63 0A48.66 48.66 0 0 1 35.1 52.3c-.75-.82-1.46-1.6-2.1-2.38h2.43a2.73 2.73 0 0 0 2.54-1.82l2.38-6.25 4.03 9.48A2.72 2.72 0 0 0 46.77 53h.13a2.68 2.68 0 0 0 2.4-1.46L53.2 44l1.49 4.07a2.74 2.74 0 0 0 2.56 1.83h3.35c-.64.8-1.33 1.59-2.08 2.41ZM37.67 27.96c2.69.02 5.28 1.03 7.27 2.85a2.7 2.7 0 0 0 3.63 0A11.02 11.02 0 0 1 67 39.11a12.66 12.66 0 0 1-2.34 5.33h-5.51l-2.94-8.04a2.78 2.78 0 0 0-2.38-1.83 2.71 2.71 0 0 0-2.58 1.47l-4.18 7.95-4.37-10.44a2.68 2.68 0 0 0-4.08-1.13c-.45.32-.78.78-.97 1.3l-4.12 10.8h-4.55c-1.19-1.57-2-3.4-2.34-5.34a11.2 11.2 0 0 1 3.2-7.9c2.08-2.1 4.89-3.3 7.83-3.32Z"/>
  </symbol>
  <symbol viewBox="0 0 224 153" id="knowledge-modern-techniques">
    <path d="m221.27 143.85-7.73 7.6a3.74 3.74 0 0 1-2.7 1.1H57.94v-22.82h152.9a3.78 3.78 0 0 1 2.7 1.1l7.73 7.6a3.83 3.83 0 0 1 0 5.42Z"/>
    <path d="M136.22 129.73a68.01 68.01 0 0 1-5.44 5 78.18 78.18 0 0 1-49.6 17.83H19.32a7.3 7.3 0 0 1-5.21-1.7 7.14 7.14 0 0 1-2.51-4.83v-9.77a7.14 7.14 0 0 1 2.5-4.82 7.3 7.3 0 0 1 5.22-1.7h116.91Z" opacity=".1"/>
    <path d="M119.19 134.73a78.18 78.18 0 0 1-49.6 17.82H7.73a7.3 7.3 0 0 1-5.2-1.7A7.14 7.14 0 0 1 0 146.03v-9.77a7.14 7.14 0 0 1 2.51-4.83 7.3 7.3 0 0 1 5.21-1.7H69.6a54.95 54.95 0 0 0 34.72-12.52 53.27 53.27 0 0 0 18.77-33.45 52.93 52.93 0 0 0-8.68-37.29 54.07 54.07 0 0 0-31.67-21.99 54.65 54.65 0 0 0-38.44 4.57l9 5.92a3.82 3.82 0 0 1 1.72 3.3 3.77 3.77 0 0 1-1.95 3.18L14.1 63.21a3.88 3.88 0 0 1-5.25-1.42 3.76 3.76 0 0 1-.5-1.9v-47.4a3.76 3.76 0 0 1 2.02-3.36 3.88 3.88 0 0 1 3.96.19l9 5.92A77.87 77.87 0 0 1 79.53.64a77.4 77.4 0 0 1 50.57 28.25A75.64 75.64 0 0 1 146.4 84a76 76 0 0 1-27.21 50.73Z"/>
    <path d="m223.66 47.33-15.25 34.31a3.77 3.77 0 0 1-2.97 2.25 3.86 3.86 0 0 1-3.48-1.33l-4.13-4.8-18.43-21.5a3.83 3.83 0 0 1 2.2-6.22l11.17-2.36a24.72 24.72 0 0 0-9.21-15.64 25.29 25.29 0 0 0-34 2.6 24.62 24.62 0 0 0-6.66 16.85c0 1.9-.7 3.73-2 5.13a7.75 7.75 0 0 1-13.45-5.13 39.8 39.8 0 0 1 9.52-25.7 40.68 40.68 0 0 1 23.99-13.67 40.98 40.98 0 0 1 27.27 4.72 40.2 40.2 0 0 1 17.86 20.91c.8 2.19 1.4 4.44 1.82 6.72l9.61-2.02 1.82-.38a3.89 3.89 0 0 1 3.8 1.32 3.77 3.77 0 0 1 .52 3.94Z"/>
  </symbol>
  <symbol viewBox="0 0 164 177" id="certified-specialists">
    <path d="M95.17 168.56h-5.32v-11.54H73.71v11.54h-5.32v5.81h26.78v-5.8ZM74.86 37.06c0 3.18-2.37 5.74-5.32 5.74-2.94 0-5.32-2.56-5.32-5.74s5.32-11.62 5.32-11.62 5.32 8.1 5.32 11.62Zm20.3 110.97V62.09h-5.31V50.47h-5.38V4.15l-5.32 5.88v40.44h-5.44V62.1h-5.32v85.94H55v5.74h53.62v-5.74H95.17Zm-2.94-.2H71.4v-48.4h20.82v48.4Z"/>
  </symbol>
  <symbol viewBox="0 0 151 155" id="individual-approach">
    <path d="M9.42 112.16a2.31 2.31 0 0 0 1.98-1.13 2.47 2.47 0 0 0 .14-2.33A74.91 74.91 0 0 1 4.7 77.5c0-5.17 7.29-10.63 19.78-14.8-.32 2.42-.56 4.88-.72 7.38a2.5 2.5 0 0 0 .58 1.75 2.36 2.36 0 0 0 2.53.7 2.3 2.3 0 0 0 1.35-1.22c.14-.28.22-.6.23-.92.2-3.14.59-6.2 1.05-9.2 6.6-1.83 14.37-3.3 23.04-4.27-.16 2-.3 3.99-.4 5.99-.04.64.17 1.27.59 1.74.41.48 1 .77 1.62.8l.13.01c.6 0 1.18-.23 1.62-.66.43-.42.7-1 .73-1.62.13-2.3.28-4.53.46-6.7a210.47 210.47 0 0 1 35.9 0 243 243 0 0 1 .44 6.26 2.43 2.43 0 0 0 .77 1.68 2.29 2.29 0 0 0 1.72.6c.62-.04 1.2-.33 1.62-.81.41-.48.62-1.11.59-1.75-.1-1.85-.24-3.7-.38-5.54a149 149 0 0 1 23.03 4.26c.46 3.01.84 6.07 1.05 9.21.03.61.3 1.19.73 1.61.43.42 1 .66 1.6.66h.16c.62-.05 1.2-.35 1.61-.83.42-.48.62-1.11.58-1.75-.16-2.47-.4-4.93-.72-7.38 12.5 4.17 19.78 9.63 19.78 14.8 0 10.7-2.36 21.48-6.8 31.15a2.48 2.48 0 0 0 .32 2.72 2.35 2.35 0 0 0 1.66.81 2.3 2.3 0 0 0 1.72-.67c.23-.22.41-.5.54-.8a79.97 79.97 0 0 0 7.26-33.2c0-42.74-33.75-77.51-75.24-77.51C33.75 0 0 34.77 0 77.5a79.9 79.9 0 0 0 7.3 33.28 2.3 2.3 0 0 0 2.13 1.38Zm43.56-60.08c-8.02.87-15.69 2.2-22.6 3.96a93.37 93.37 0 0 1 5.97-18.91 88.28 88.28 0 0 1 19.92-6.24 190.18 190.18 0 0 0-3.3 21.19Zm22.25-1.22c-5.85 0-11.72.28-17.48.77.84-8.19 2.06-15.41 3.5-21.6 9.28-1.3 18.68-1.3 27.96 0a173.42 173.42 0 0 1 3.51 21.6c-5.82-.5-11.65-.76-17.49-.77Zm22.26 1.22c-.7-7.13-1.8-14.2-3.3-21.19a88.33 88.33 0 0 1 19.93 6.24 93.35 93.35 0 0 1 5.96 18.91 164.02 164.02 0 0 0-22.6-3.96Zm27.64 5.38a101.6 101.6 0 0 0-4.65-17.07c11.4 6.56 19.68 15.55 23.26 25.8-4.46-3.47-10.92-6.38-18.61-8.73Zm16.01-5.6c-5.72-7.35-13.81-13.64-23.54-18.36-4.68-9.99-10.86-18.27-18.02-24.1A70.54 70.54 0 0 1 124.82 26a73.15 73.15 0 0 1 16.32 25.86Zm-30.26-21.27a96.16 96.16 0 0 0-17.9-4.82c-2.08-7.94-4.71-14.63-7.89-19.21 10.13 3.46 19.16 12.08 25.79 24.03ZM75.23 4.84c4.28 0 9.04 7.2 12.7 20.2-4.21-.53-8.45-.8-12.7-.82-4.33 0-8.56.32-12.7.82 3.67-13 8.42-20.2 12.7-20.2ZM57.5 25.78a95.62 95.62 0 0 0-17.9 4.81c6.63-11.94 15.65-20.56 25.78-24.02-3.18 4.58-5.8 11.26-7.88 19.2ZM50.89 9.4c-7.16 5.83-13.34 14.1-18.01 24.1-9.74 4.72-17.83 11.01-23.56 18.36a73.17 73.17 0 0 1 16.33-25.87A70.57 70.57 0 0 1 50.89 9.4Zm-20.9 30.99a101.2 101.2 0 0 0-4.65 17.07c-7.68 2.35-14.15 5.26-18.62 8.73C10.32 55.95 18.6 46.95 30 40.39ZM11.9 138.02a2.36 2.36 0 0 0-1.64-.79 2.3 2.3 0 0 0-1.69.63 2.41 2.41 0 0 0-.76 1.68 2.49 2.49 0 0 0 .61 1.74l1.7 1.92a6.1 6.1 0 0 1 1.53 4.05v5.33c0 .64.24 1.26.69 1.71a2.32 2.32 0 0 0 3.32 0c.44-.45.69-1.07.69-1.71v-5.33a11 11 0 0 0-2.75-7.31l-1.7-1.92ZM53.29 136.07a2.46 2.46 0 0 0-.16 3.42 6.92 6.92 0 0 1 1.73 4.6v8.49c0 .64.25 1.26.7 1.71a2.32 2.32 0 0 0 3.32 0c.44-.45.69-1.07.69-1.71v-8.5c0-2.91-1.05-5.7-2.96-7.85a2.34 2.34 0 0 0-1.63-.8 2.29 2.29 0 0 0-1.69.64ZM93.86 136.23a11.82 11.82 0 0 0-2.96 7.85v8.5c0 .64.25 1.26.69 1.71a2.32 2.32 0 0 0 3.33 0c.44-.45.68-1.07.68-1.71v-8.5c0-1.7.62-3.33 1.73-4.59a2.43 2.43 0 0 0 .62-1.74 2.47 2.47 0 0 0-.77-1.68 2.34 2.34 0 0 0-1.69-.64 2.28 2.28 0 0 0-1.63.8ZM138.58 138.02l-1.71 1.92a11 11 0 0 0-2.75 7.3v5.34c0 .64.25 1.26.7 1.71a2.32 2.32 0 0 0 3.32 0c.44-.45.69-1.07.69-1.71v-5.33c0-1.5.54-2.94 1.51-4.05l1.7-1.92a2.44 2.44 0 0 0 .67-1.76 2.48 2.48 0 0 0-.76-1.72 2.33 2.33 0 0 0-1.73-.63 2.3 2.3 0 0 0-1.64.85Z"/>
    <path d="m142.84 126.25-11.18-4.32v-5.58c1.47-1.35 2.65-3 3.46-4.86.81-1.85 1.23-3.86 1.24-5.89v-5.66l2.73-10.32a8.42 8.42 0 0 0-1.34-6.24 7.96 7.96 0 0 0-5.24-3.4l-13.4-2.3c-1.98-.34-4 .1-5.66 1.23a8.13 8.13 0 0 0-3.33 4.88 6.93 6.93 0 0 0-3.29 2.32 7.4 7.4 0 0 0-1.3 6.31l2.62 7.57v5.62c0 4.28 1.84 8.09 4.7 10.75v5.57l-11.18 4.32c-.18.08-.34.19-.53.27L97.22 124a8 8 0 0 0 3.61-3.56 8.33 8.33 0 0 0 .82-5.08c-1.14-7.3-1.71-14.7-1.72-22.1v-8.02c0-6.7-2.59-13.12-7.19-17.86a24.2 24.2 0 0 0-17.33-7.4 24.2 24.2 0 0 0-17.34 7.4 25.69 25.69 0 0 0-7.19 17.86v8.02c0 7.37-.58 14.81-1.71 22.1a8.24 8.24 0 0 0 .75 5 7.9 7.9 0 0 0 3.5 3.53l-4.09 2.63c-.18-.08-.34-.2-.53-.27l-11.18-4.32v-5.58c1.47-1.35 2.65-3 3.46-4.86.8-1.85 1.23-3.86 1.23-5.89v-5.66l2.74-10.32a8.43 8.43 0 0 0-1.34-6.24 7.96 7.96 0 0 0-5.25-3.4l-13.4-2.3c-1.97-.34-3.99.1-5.65 1.24a8.15 8.15 0 0 0-3.33 4.87 6.92 6.92 0 0 0-3.29 2.32 7.4 7.4 0 0 0-1.3 6.31L14.1 100v5.62c0 4.28 1.83 8.09 4.7 10.75v5.57l-11.18 4.32a11.86 11.86 0 0 0-5.53 4.45 12.41 12.41 0 0 0-2.1 6.89v14.99c0 .64.25 1.26.69 1.71a2.31 2.31 0 0 0 3.32 0c.44-.45.7-1.07.7-1.71v-15a7.3 7.3 0 0 1 4.57-6.8l4.7-1.8a18.87 18.87 0 0 0 6.4 4.97 18.35 18.35 0 0 0 7.83 1.77c2.7 0 5.38-.61 7.84-1.78a18.87 18.87 0 0 0 6.4-4.97l2.9 1.12c-1.94 2.43-3.01 5.47-3.03 8.6v13.89c0 .64.25 1.26.69 1.71a2.31 2.31 0 0 0 3.32 0c.44-.45.7-1.07.7-1.71V138.7a9 9 0 0 1 4.1-7.64l10.46-6.71a18.74 18.74 0 0 0 13.64 6.15c5.18 0 10.08-2.33 13.63-6.14l10.46 6.7a9 9 0 0 1 4.13 7.64v13.88c0 .64.24 1.26.69 1.71a2.31 2.31 0 0 0 3.32 0c.44-.45.69-1.07.69-1.71V138.7c0-3.22-1.14-6.2-3.03-8.61l2.9-1.12a18.86 18.86 0 0 0 6.4 4.98 18.35 18.35 0 0 0 7.83 1.77c2.71 0 5.38-.61 7.84-1.78a18.86 18.86 0 0 0 6.4-4.97l4.7 1.81a7.3 7.3 0 0 1 4.58 6.8v15c0 .64.24 1.26.68 1.71a2.31 2.31 0 0 0 3.33 0c.44-.45.69-1.07.69-1.71v-15c-.01-2.46-.74-4.86-2.1-6.88a11.87 11.87 0 0 0-5.53-4.45Zm-125.75-32L16 91.1a2.39 2.39 0 0 1 .45-1.94 2.26 2.26 0 0 1 1.75-.86c1.3 0 2.35-1.24 2.35-2.57a3.42 3.42 0 0 1 1.15-2.52 3.21 3.21 0 0 1 2.6-.75l13.4 2.3a3.24 3.24 0 0 1 2.18 1.42c.52.75.71 1.68.6 2.38l-1.42 5.35-.4-.6a2.37 2.37 0 0 0-1.95-1.06H19.65a2.3 2.3 0 0 0-1.96 1.08l-.6.92Zm1.71 11.36v-5.28l2.11-3.25h14.55l2.15 3.25v5.28c0 1.49-.34 2.96-1 4.3a9.58 9.58 0 0 1-2.75 3.39h-.01a9.42 9.42 0 0 1-2.67 1.45l-.08.02c-1.87.63-3.89.64-5.76.01l-.1-.03a9.26 9.26 0 0 1-2.67-1.44h-.01a9.6 9.6 0 0 1-2.76-3.4 9.9 9.9 0 0 1-1-4.3Zm9.41 25.27c-3.48-.01-6.84-1.35-9.43-3.76l3.2-1.24a2.47 2.47 0 0 0 1.52-2.27v-4.32c.3.1.6.15.9.24.42.12.82.26 1.25.34.63.12 1.28.17 1.93.2.21 0 .41.07.63.07.2 0 .4-.06.6-.07.66-.03 1.32-.08 1.96-.2.43-.08.83-.22 1.25-.34.3-.09.6-.14.9-.25v4.33c0 .5.15.97.42 1.38.27.4.66.71 1.1.89l3.2 1.24a13.89 13.89 0 0 1-9.43 3.75Zm36.35-14.14-5 3.2h-2.6a3.13 3.13 0 0 1-2.43-1.16 3.33 3.33 0 0 1-.72-2.65 149 149 0 0 0 1.77-22.87v-8.02c0-11.26 8.9-20.42 19.82-20.42 10.94 0 19.83 9.16 19.83 20.42v3.47a11.85 11.85 0 0 0-3.54-2.16 2.22 2.22 0 0 0-.83-.28c-1.01-.33-2.07-.5-3.14-.52l-1.06-.03c-6.2 0-12.1-2.14-17.15-6.13-.3-.4-.72-.7-1.2-.83a2.27 2.27 0 0 0-1.44.05 14.52 14.52 0 0 0-6.49 5.07 15.18 15.18 0 0 0-2.8 7.87c-.02.13-.08.25-.08.38v3.66c0 5.92 2.8 11.13 7.06 14.46v6.49Zm23.63-26.09v5.13c0 7.37-5.83 13.39-12.99 13.39s-13-6.01-13-13.4v-3.05c0-3.72 2.1-7.04 5.24-8.75a31.85 31.85 0 0 0 19.14 6.59l1.07.03c.19 0 .36.05.54.06Zm-12.96 35c-3.57 0-6.97-1.46-9.58-3.9l2.5-1.61a2.43 2.43 0 0 0 1.06-2.06h.05v-5.2A17 17 0 0 0 75.2 114c2.1 0 4.1-.44 5.99-1.14v5.22h.04c0 .8.36 1.6 1.07 2.06l2.52 1.6a14.07 14.07 0 0 1-9.59 3.9Zm21.05-6.87a3.2 3.2 0 0 1-2.44 1.16H90.9l-5-3.2v-6.53a18.04 18.04 0 0 0 5.15-6.37 18.59 18.59 0 0 0 1.86-8.06v-2.74a9.35 9.35 0 0 1 2.33 6.27c0 .4.11.76.28 1.09.25 5.27.68 10.54 1.5 15.73a3.41 3.41 0 0 1-.73 2.66Zm14.86-24.53-1.1-3.15a2.39 2.39 0 0 1 .45-1.94 2.26 2.26 0 0 1 1.75-.86c1.3 0 2.35-1.24 2.35-2.57a3.43 3.43 0 0 1 1.14-2.52 3.22 3.22 0 0 1 2.6-.75l13.4 2.3a3.25 3.25 0 0 1 2.18 1.42c.52.75.72 1.68.6 2.38l-1.42 5.35-.4-.6a2.37 2.37 0 0 0-1.94-1.06H113.7a2.29 2.29 0 0 0-1.96 1.08l-.6.92Zm1.7 11.36v-5.28l2.11-3.25h14.56l2.15 3.25v5.28c0 2.02-.63 3.99-1.78 5.63a9.37 9.37 0 0 1-4.64 3.5l-.12.04a9.09 9.09 0 0 1-8.5-1.48c-.01-.01-.03 0-.04-.02a9.58 9.58 0 0 1-2.74-3.38 9.9 9.9 0 0 1-1-4.3Zm9.41 25.27c-3.48-.01-6.84-1.35-9.43-3.76l3.21-1.24a2.48 2.48 0 0 0 1.52-2.27v-4.33c.27.1.55.14.82.23.44.13.87.27 1.33.36.62.12 1.25.16 1.88.2.23 0 .44.06.67.06.2 0 .38-.05.57-.06a13.9 13.9 0 0 0 2-.2c.4-.08.77-.2 1.16-.32.32-.1.66-.14.98-.27v4.32c0 .5.14.98.42 1.38.27.4.65.72 1.1.9l3.2 1.23a13.88 13.88 0 0 1-9.43 3.77Z"/>
  </symbol>
  <symbol viewBox="0 0 142 142" id="affordable-prices">
    <path d="M139.63 83.78 68.9 12.9a7.5 7.5 0 0 0-6.84-2.1l-19.99 3.42v-.8A22.6 22.6 0 0 0 21.57 0C9.72 0 0 9.48 0 21.08c0 9.22 6.05 16.86 14.46 19.75l-3.68 21.08c-.52 2.64.26 5 2.1 6.85l70.74 70.87a7.56 7.56 0 0 0 5.52 2.37c2.1 0 3.95-.79 5.53-2.37l44.96-44.79a7.59 7.59 0 0 0 2.37-5.53c0-2.1-.79-3.95-2.37-5.53ZM5.26 21.08c0-8.7 7.36-15.81 16.3-15.81a16.7 16.7 0 0 1 15.25 10.01l-13.14 2.37a7.84 7.84 0 0 0-6.31 6.32l-2.1 11.86c-5.8-2.64-10-8.17-10-14.75Zm130.7 70.07L90.98 136.2a2.54 2.54 0 0 1-3.69 0L16.57 65.34a3 3 0 0 1-.8-2.11l3.69-21.08h2.1c2.1 0 4.47-.26 6.31-1.05a8.77 8.77 0 0 0 6.05 2.37c2.37 0 4.74-.8 6.58-2.64 3.68-3.68 3.68-9.48 0-12.9a9.11 9.11 0 0 0-15.26 8.69c-1.05.26-2.36.26-3.68.26h-1.05l2.1-12.12a2.86 2.86 0 0 1 2.1-2.1l38.14-6.85h.52c.8 0 1.32.26 1.84.79l70.74 70.87c.53.52.8 1.05.8 1.84a2.4 2.4 0 0 1-.8 1.84ZM31.55 31.61a4.22 4.22 0 0 1 2.89-1.31c.26 0 .52 0 .79.26-.27.26-.53.26-.8.53a13.38 13.38 0 0 1-4.2 3.42c0-1.05.26-2.1 1.32-2.9Zm6.3 3.17a5.3 5.3 0 0 1-1.05 2.1 3.37 3.37 0 0 1-2.62 1.06 10.71 10.71 0 0 0 3.68-3.16Z"/>
  </symbol>
  <symbol viewBox="0 0 58 57" id="address">
    <path fill="#18bcbc" d="M29.09.55a28.2 28.2 0 1 0 0 56.43 28.2 28.2 0 1 0 0-56.43Zm0 7.06c2.33 0 4.51.63 6.63 1.34-1.48 1.4-3.18 2.68-2.9 3.95.29 1.27 4.87.91 4.87 3.52 0 1.9-2.96 2.47-.91 4.66 2.46 2.47-4.52 6.9-4.66 10.15-.21 5.86 5.93 6.84 10.8 6.84 2.95 0 3.73 1.42 3.52 3.1A21.22 21.22 0 0 1 29.02 50c-2.68 0-5.15-.63-7.48-1.55 1.55-3.1-1.97-9.24-5.29-11.21-1.62-1.62-5.08-.99-7.05-1.76-.64-1.9-1.27-3.81-1.34-5.93.21-.35.56-.63 1.13-.63 1.34 0 3.17 2.68 4.16 2.4 1.27-.29-5.22-9.25-2.19-11 1.41-.85 4.23 2.74 3.32-1.14-.85-3.6 2.54-1.97 4.65-2.89 1.84-.77 3.18-2.89.92-4.16-.42-.21-.92-.7-1.55-1.34 3.17-1.9 6.84-3.1 10.79-3.1V7.6Zm16.29 7.68a23.33 23.33 0 0 1 3.1 5.08v.21c-.28.5-.77.78-1.55 1.56-1.97 1.97-2.25-1.49-3.1-2.2-.92-.84-4.23.15-4.66-.9-.49-1.28 3.53-2.97 6.21-3.75Z"/>
  </symbol>
  <symbol viewBox="0 0 67 67" id="telephone">
    <path fill="#18bcbc" d="m46.18 47-1.26 1.26s-3.01 2.99-11.22-5.17c-8.21-8.17-5.2-11.16-5.2-11.16l.8-.8a5.62 5.62 0 0 0 .43-7.37l-3.5-4.68a5.77 5.77 0 0 0-8.65-.79l-4.36 4.34a5.88 5.88 0 0 0-1.92 4.47c.25 4.41 2.25 13.9 13.38 24.96 11.8 11.73 22.87 12.2 27.4 11.77a6.06 6.06 0 0 0 3.67-1.86l3.95-3.92c2.67-2.65 1.91-7.2-1.5-9.04l-5.3-2.89a5.67 5.67 0 0 0-6.72.88Z"/>
  </symbol>
  <symbol viewBox="0 0 67 68" id="email">
    <path stroke="#18bcbc" stroke-linecap="round" stroke-linejoin="round" stroke-width="6" d="M11.3 50.87 25.19 34.2m30.56 16.67L41.85 34.2M8.53 23.09l20.07 13.38c1.78 1.19 2.68 1.78 3.64 2.01.85.2 1.74.2 2.59 0 .96-.23 1.85-.82 3.64-2.01l20.07-13.38M17.4 53.65h32.23c3.11 0 4.67 0 5.86-.6a5.56 5.56 0 0 0 2.42-2.43c.6-1.2.6-2.75.6-5.86V23.64c0-3.11 0-4.67-.6-5.85a5.56 5.56 0 0 0-2.42-2.43c-1.2-.6-2.75-.6-5.86-.6H17.4c-3.11 0-4.67 0-5.86.6a5.56 5.56 0 0 0-2.43 2.43c-.6 1.18-.6 2.74-.6 5.85v21.12c0 3.11 0 4.67.6 5.86a5.56 5.56 0 0 0 2.43 2.42c1.19.61 2.75.61 5.86.61Z"/>
  </symbol>
  <symbol viewBox="0 0 67 68" id="time">
    <g stroke="#18BCBC" stroke-width="6">
      <path stroke-linecap="round" d="M33.52 22.8v11.12l8.34 8.33"/>
      <path d="M33.52 58.92a25 25 0 1 0 0-50 25 25 0 0 0 0 50Z"/>
    </g>
  </symbol>
  <symbol viewBox="0 0 64 64" id="clients">
    <path fill="#18bcbc" d="M0 52.03c0 3.33 1.17 6.15 3.52 8.45A11.94 11.94 0 0 0 12.03 64h40c3.29 0 6.1-1.17 8.45-3.52A11.52 11.52 0 0 0 64 52.03v-40a11.6 11.6 0 0 0-3.52-8.51A11.52 11.52 0 0 0 52.03 0h-40a11.6 11.6 0 0 0-8.51 3.52A11.6 11.6 0 0 0 0 12.03v40Zm8 0v-40c0-1.1.38-2.05 1.15-2.81A4.14 4.14 0 0 1 12.03 8h40c1.07 0 2 .4 2.82 1.22.8.8 1.2 1.75 1.15 2.81v40c0 1.11-.38 2.05-1.15 2.82A3.83 3.83 0 0 1 52.03 56h-40c-1.1 0-2.07-.38-2.88-1.15A3.53 3.53 0 0 1 8 52.03ZM16 32c0 1.1.38 2.07 1.15 2.88a3.6 3.6 0 0 0 2.88 1.15h8v8c0 1.11.39 2.05 1.15 2.82.77.77 1.71 1.15 2.82 1.15a4.06 4.06 0 0 0 4.03-3.97v-8h8c1.07 0 2-.38 2.82-1.15A3.6 3.6 0 0 0 48 32a4.03 4.03 0 0 0-1.15-2.82 4.03 4.03 0 0 0-2.82-1.15h-8v-8c0-1.1-.4-2.05-1.21-2.81A4.23 4.23 0 0 0 32 16c-1.07-.04-2 .36-2.82 1.22-.8.85-1.2 1.79-1.15 2.81v8h-8c-1.1 0-2.07.39-2.88 1.15-.8.77-1.2 1.71-1.15 2.82Z"/>
    
  </symbol>
  <symbol viewBox="0 0 81 81" id="services">
    <g stroke="#18bcbc" stroke-linecap="round" stroke-width="6">
      <path stroke-linejoin="round" d="m57.38 43.88-13.91 13.9a10.13 10.13 0 0 0-2.97 7.16v2.56m16.88-23.63h-6.76l6.76 6.76v-6.76ZM23.63 43.88l13.9 13.9c1.9 1.9 2.97 4.48 2.97 7.16v2.56M23.62 43.87h6.75l-6.75 6.76v-6.76ZM40.5 28.69V67.5m0-38.81 5.06 5.06H35.44l5.06-5.06Z"/>
      <path d="M54 64.13h.67c5.68 0 8.51 0 10.68-1.1 1.9-.98 3.45-2.53 4.42-4.43 1.1-2.17 1.1-5 1.1-10.68V33.08c0-5.68 0-8.51-1.1-10.68a10.12 10.12 0 0 0-4.42-4.42c-2.17-1.1-5-1.1-10.67-1.1H26.31c-5.67 0-8.5 0-10.67 1.1-1.9.97-3.45 2.52-4.42 4.42-1.1 2.17-1.1 5-1.1 10.68v14.84c0 5.68 0 8.51 1.1 10.68.97 1.9 2.52 3.45 4.42 4.42 2.17 1.1 5 1.1 10.67 1.1H27"/>
    </g>
  </symbol>
  <symbol viewBox="0 0 64 64" id="done">
    <path fill="#18bcbc" fill-rule="evenodd" d="M57.6 10.67a3.13 3.13 0 0 0-3.2-3.05H9.6a3.13 3.13 0 0 0-3.2 3.05v42.66a3.13 3.13 0 0 0 3.2 3.05h44.8c1.77 0 3.2-1.36 3.2-3.05V10.67ZM64 7.62v48.76c0 3.37-2.86 6.1-6.4 6.1H6.4c-3.54 0-6.4-2.73-6.4-6.1V7.62c0-3.37 2.86-6.1 6.4-6.1h51.2c3.54 0 6.4 2.73 6.4 6.1ZM44.87 22.9a2.94 2.94 0 0 1 0 4.31L32.43 39.06a4.98 4.98 0 0 1-6.8 0l-5.66-5.38a2.95 2.95 0 0 1 0-4.31 3.32 3.32 0 0 1 4.53 0l2.26 2.15a3.33 3.33 0 0 0 4.54 0l9.04-8.62a3.31 3.31 0 0 1 4.53 0Z" clip-rule="evenodd"/>
    
  </symbol>
  <symbol viewBox="0 0 72 72" id="satisfaction">
    <g fill="#18bcbc">
      <path d="m62.62 52.92-2.82-2.73a.83.83 0 0 0-1.16 0l-2.9 2.8a5 5 0 0 1-8.47-3.7v-9.12h-30.8a2.55 2.55 0 0 1-2.56-2.38 2.5 2.5 0 0 1 2.5-2.62h30.86v-3.54a15.27 15.27 0 0 1-.06-18.99H2.5a2.5 2.5 0 0 0-2.5 2.5V60.2a2.5 2.5 0 0 0 2.5 2.5h63.67a2.5 2.5 0 0 0 2.5-2.5v-6.46a5 5 0 0 1-6.05-.81ZM28.34 23.5h12a2.5 2.5 0 0 1 0 5h-12a2.5 2.5 0 1 1 0-5ZM42 51.83H26.67a2.5 2.5 0 0 1 0-5H42a2.5 2.5 0 1 1 0 5Z"/>
      <path d="M49.77 34.1v15.23A2.5 2.5 0 0 0 54 51.2l4.64-4.49a.83.83 0 0 1 1.16 0l4.63 4.49a2.5 2.5 0 0 0 4.24-1.87V34.1a15.26 15.26 0 0 1-18.9 0Z"/>
      <path d="M50.57 31.52a12.78 12.78 0 0 0 20.54-14.07c-3.58-9.2-15.16-10.7-21.31-4a12.78 12.78 0 0 0 .77 18.07Zm8.65-13.5a4.08 4.08 0 1 1 0 8.15 4.08 4.08 0 0 1 0-8.16Z"/>
    </g>
    
  </symbol>
  <symbol viewBox="0 0 160 118" id="arrows">
    <path fill="#18bcbc" d="M115.75 105.47c1.17.85 2.81.58 3.67-.6l14.44-19.98a7.87 7.87 0 0 0-1.76-10.99l-19.76-14.3a2.62 2.62 0 0 0-3.08 4.26l19.77 14.29a2.62 2.62 0 0 1 .59 3.66l-14.46 20a2.62 2.62 0 0 0 .59 3.66Z"/>
    <path stroke="#18bcbc" stroke-linecap="round" stroke-width="6" d="M3 80s112-12 85.5-42.5-108.5-58.5-73 0S131 80 131 80"/>
  </symbol>
  <symbol viewBox="0 0 25 25" id="prices">
    <path d="M14.58 12.5a5.2 5.2 0 0 0 0-10.42h-5.2a1.04 1.04 0 0 0-1.05 1.04v7.3H6.25a1.04 1.04 0 0 0 0 2.08h2.08v2.08H6.25a1.04 1.04 0 0 0 0 2.09h2.08v5.2a1.04 1.04 0 0 0 2.09 0v-5.2h5.2a1.04 1.04 0 1 0 0-2.09h-5.2V12.5h4.16Zm-4.16-8.33h4.16a3.12 3.12 0 1 1 0 6.25h-4.16V4.17Z"/>
  </symbol>
</symbol></svg>