<svg xmlns="http://www.w3.org/2000/svg" width="64" height="64" fill="none"><g clip-path="url(#a)"><path fill="#18BCBC" fill-rule="evenodd" d="M57.6 10.67a3.13 3.13 0 0 0-3.2-3.05H9.6a3.13 3.13 0 0 0-3.2 3.05v42.66a3.13 3.13 0 0 0 3.2 3.05h44.8c1.77 0 3.2-1.36 3.2-3.05V10.67ZM64 7.62v48.76c0 3.37-2.86 6.1-6.4 6.1H6.4c-3.54 0-6.4-2.73-6.4-6.1V7.62c0-3.37 2.86-6.1 6.4-6.1h51.2c3.54 0 6.4 2.73 6.4 6.1ZM44.87 22.9a2.94 2.94 0 0 1 0 4.31L32.43 39.06a4.98 4.98 0 0 1-6.8 0l-5.66-5.38a2.95 2.95 0 0 1 0-4.31 3.32 3.32 0 0 1 4.53 0l2.26 2.15a3.33 3.33 0 0 0 4.54 0l9.04-8.62a3.31 3.31 0 0 1 4.53 0Z" clip-rule="evenodd"/></g><defs><clipPath id="a"><path fill="#fff" d="M0 0h64v64H0z"/></clipPath></defs></svg>