<svg xmlns="http://www.w3.org/2000/svg" width="81" height="81" fill="none"><g stroke="#18BCBC" stroke-linecap="round" stroke-width="6"><path stroke-linejoin="round" d="m57.38 43.88-13.91 13.9a10.13 10.13 0 0 0-2.97 7.16v2.56m16.88-23.63h-6.76l6.76 6.76v-6.76ZM23.63 43.88l13.9 13.9c1.9 1.9 2.97 4.48 2.97 7.16v2.56M23.62 43.87h6.75l-6.75 6.76v-6.76ZM40.5 28.69V67.5m0-38.81 5.06 5.06H35.44l5.06-5.06Z"/><path d="M54 64.13h.67c5.68 0 8.51 0 10.68-1.1 1.9-.98 3.45-2.53 4.42-4.43 1.1-2.17 1.1-5 1.1-10.68V33.08c0-5.68 0-8.51-1.1-10.68a10.12 10.12 0 0 0-4.42-4.42c-2.17-1.1-5-1.1-10.67-1.1H26.31c-5.67 0-8.5 0-10.67 1.1-1.9.97-3.45 2.52-4.42 4.42-1.1 2.17-1.1 5-1.1 10.68v14.84c0 5.68 0 8.51 1.1 10.68.97 1.9 2.52 3.45 4.42 4.42 2.17 1.1 5 1.1 10.67 1.1H27"/></g></svg>