<svg xmlns="http://www.w3.org/2000/svg" width="64" height="64" fill="none"><g clip-path="url(#a)"><path fill="#18BCBC" d="M0 52.03c0 3.33 1.17 6.15 3.52 8.45A11.94 11.94 0 0 0 12.03 64h40c3.29 0 6.1-1.17 8.45-3.52A11.52 11.52 0 0 0 64 52.03v-40a11.6 11.6 0 0 0-3.52-8.51A11.52 11.52 0 0 0 52.03 0h-40a11.6 11.6 0 0 0-8.51 3.52A11.6 11.6 0 0 0 0 12.03v40Zm8 0v-40c0-1.1.38-2.05 1.15-2.81A4.14 4.14 0 0 1 12.03 8h40c1.07 0 2 .4 2.82 1.22.8.8 1.2 1.75 1.15 2.81v40c0 1.11-.38 2.05-1.15 2.82A3.83 3.83 0 0 1 52.03 56h-40c-1.1 0-2.07-.38-2.88-1.15A3.53 3.53 0 0 1 8 52.03ZM16 32c0 1.1.38 2.07 1.15 2.88a3.6 3.6 0 0 0 2.88 1.15h8v8c0 1.11.39 2.05 1.15 2.82.77.77 1.71 1.15 2.82 1.15a4.06 4.06 0 0 0 4.03-3.97v-8h8c1.07 0 2-.38 2.82-1.15A3.6 3.6 0 0 0 48 32a4.03 4.03 0 0 0-1.15-2.82 4.03 4.03 0 0 0-2.82-1.15h-8v-8c0-1.1-.4-2.05-1.21-2.81A4.23 4.23 0 0 0 32 16c-1.07-.04-2 .36-2.82 1.22-.8.85-1.2 1.79-1.15 2.81v8h-8c-1.1 0-2.07.39-2.88 1.15-.8.77-1.2 1.71-1.15 2.82Z"/></g><defs><clipPath id="a"><path fill="#fff" d="M0 0h64v64H0z"/></clipPath></defs></svg>