<svg xmlns="http://www.w3.org/2000/svg" width="142" height="142" fill="none"><path fill="#fff" d="M139.63 83.78 68.9 12.9a7.5 7.5 0 0 0-6.84-2.1l-19.99 3.42v-.8A22.6 22.6 0 0 0 21.57 0C9.72 0 0 9.48 0 21.08c0 9.22 6.05 16.86 14.46 19.75l-3.68 21.08c-.52 2.64.26 5 2.1 6.85l70.74 70.87a7.56 7.56 0 0 0 5.52 2.37c2.1 0 3.95-.79 5.53-2.37l44.96-44.79a7.59 7.59 0 0 0 2.37-5.53c0-2.1-.79-3.95-2.37-5.53ZM5.26 21.08c0-8.7 7.36-15.81 16.3-15.81a16.7 16.7 0 0 1 15.25 10.01l-13.14 2.37a7.84 7.84 0 0 0-6.31 6.32l-2.1 11.86c-5.8-2.64-10-8.17-10-14.75Zm130.7 70.07L90.98 136.2a2.54 2.54 0 0 1-3.69 0L16.57 65.34a3 3 0 0 1-.8-2.11l3.69-21.08h2.1c2.1 0 4.47-.26 6.31-1.05a8.77 8.77 0 0 0 6.05 2.37c2.37 0 4.74-.8 6.58-2.64 3.68-3.68 3.68-9.48 0-12.9a9.11 9.11 0 0 0-15.26 8.69c-1.05.26-2.36.26-3.68.26h-1.05l2.1-12.12a2.86 2.86 0 0 1 2.1-2.1l38.14-6.85h.52c.8 0 1.32.26 1.84.79l70.74 70.87c.53.52.8 1.05.8 1.84a2.4 2.4 0 0 1-.8 1.84ZM31.55 31.61a4.22 4.22 0 0 1 2.89-1.31c.26 0 .52 0 .79.26-.27.26-.53.26-.8.53a13.38 13.38 0 0 1-4.2 3.42c0-1.05.26-2.1 1.32-2.9Zm6.3 3.17a5.3 5.3 0 0 1-1.05 2.1 3.37 3.37 0 0 1-2.62 1.06 10.71 10.71 0 0 0 3.68-3.16Z"/></svg>