<svg xmlns="http://www.w3.org/2000/svg" width="73" height="73" fill="none"><path fill="#fff" d="M71.78 43.07 35.42 6.64a3.86 3.86 0 0 0-3.52-1.09L21.63 7.31v-.4A11.62 11.62 0 0 0 11.09 0C5 0 0 4.88 0 10.83 0 15.58 3.1 19.5 7.44 21l-1.9 10.84a3.77 3.77 0 0 0 1.08 3.52L43 71.78a3.89 3.89 0 0 0 5.68 0l23.11-23.02a3.9 3.9 0 0 0 0-5.7ZM2.7 10.83c0-4.46 3.79-8.12 8.39-8.12a8.59 8.59 0 0 1 7.84 5.15l-6.76 1.21a4.03 4.03 0 0 0-3.25 3.25l-1.08 6.1c-2.97-1.36-5.14-4.2-5.14-7.59Zm67.2 36.03L46.76 70.02a1.3 1.3 0 0 1-1.89 0L8.52 33.59c-.27-.27-.4-.68-.4-1.09L10 21.67h1.09a8.6 8.6 0 0 0 3.24-.54 4.5 4.5 0 0 0 3.1 1.22c1.23 0 2.44-.4 3.39-1.36a4.59 4.59 0 0 0 0-6.63 4.68 4.68 0 0 0-7.84 4.47c-.54.13-1.22.13-1.9.13h-.54l1.09-6.23c.13-.54.54-.95 1.08-1.08l19.6-3.52h.27c.4 0 .68.13.95.4l36.36 36.43c.27.28.4.55.4.95 0 .4-.13.68-.4.95Zm-53.68-30.6c.4-.41.95-.68 1.49-.68.13 0 .27 0 .4.13-.13.14-.27.14-.4.27a6.88 6.88 0 0 1-2.16 1.76c0-.54.13-1.08.67-1.49Zm3.25 1.62c-.14.4-.27.81-.54 1.08-.41.4-.82.54-1.36.54a5.5 5.5 0 0 0 1.9-1.62Z"/></svg>