<svg xmlns="http://www.w3.org/2000/svg" width="63" height="82" fill="none"><g fill="#fff"><path d="M23.99 34.87a1.22 1.22 0 0 0 .9-.4 1.32 1.32 0 0 0 .38-.93 1.35 1.35 0 0 0-.38-.93l-5.05-5.2 5.05-5.23a1.32 1.32 0 0 0 .41-.94 1.36 1.36 0 0 0-.38-.96 1.28 1.28 0 0 0-.92-.39 1.25 1.25 0 0 0-.92.42l-5.05 5.22-5.23-5.4H14a5.52 5.52 0 0 0 3.6-1.85 5.86 5.86 0 0 0 0-7.74A5.52 5.52 0 0 0 14 8.68H9.73c-.34 0-.67.14-.9.39-.25.24-.38.58-.38.93v17.7c0 .34.13.68.37.93a1.26 1.26 0 0 0 1.81 0c.24-.25.38-.59.38-.94v-5.68l5.22 5.4-4.6 4.69a1.31 1.31 0 0 0-.37.93 1.35 1.35 0 0 0 .79 1.23 1.22 1.22 0 0 0 1.4-.29l4.58-4.72 5.05 5.21a1.26 1.26 0 0 0 .9.4Zm-13-23.59H14c.77.04 1.5.39 2.03.97a3.16 3.16 0 0 1 0 4.28c-.53.58-1.26.92-2.03.96h-3.02v-6.21Z"/><path d="M57.55 38.27v-1.1h.27c.34 0 .67-.14.9-.39.25-.25.38-.58.38-.93V29.8c0-.35-.13-.69-.37-.94a1.26 1.26 0 0 0-.91-.38h-6.66V15.46a1.13 1.13 0 0 0-.11-.33v-.07c-.06-.1-.13-.2-.2-.28L36.8.37a.86.86 0 0 0-.28-.2l-.06-.05c-.1-.05-.2-.1-.31-.11H1.28C.96 0 .64.13.4.37.16.6.02.9 0 1.25V65.8c0 .35.14.7.38.94.24.25.56.39.9.39h19.1v13.44c0 .35.14.68.38.93s.57.39.91.39h18.16c.34 0 .67-.14.91-.39s.38-.58.38-.93v-4.32h20.6c.34 0 .66-.14.9-.4.24-.24.38-.57.38-.92V46a8.3 8.3 0 0 0-1.5-4.78 7.9 7.9 0 0 0-3.95-2.95ZM20.8 51.17v-5.49h19.88v5.5H20.8Zm16.15 2.65h1.59v3H22.95v-3h14Zm4.15 10.13V53.83h.85c.34 0 .67-.15.9-.4.25-.24.38-.58.39-.93v-2.64h17.2v14.1l-19.34-.01ZM60.42 47.2H43.25v-2.84c0-.35-.14-.69-.38-.93a1.26 1.26 0 0 0-.9-.4h-1.59a5.17 5.17 0 0 1 4.45-2.51H55.1c1.41 0 2.76.59 3.75 1.61A5.57 5.57 0 0 1 60.4 46l.02 1.2Zm-5.43-9.32H44.97v-.71H55v.71Zm1.55-3.36H43.47v-3.4h13.07v3.4ZM22.95 59.47h15.6v14.1h-15.6v-14.1Zm15.6 19.76h-15.6v-3h15.6v3Zm21.89-5.64H41.12v-7h19.32v7ZM46.8 14.39h-9.63V4.47l9.63 9.92ZM2.56 64.5V2.6h32.06v13.12c0 .35.14.7.38.94.24.25.56.39.9.39h12.7v11.45h-6.46c-.34 0-.66.14-.9.4-.24.24-.38.58-.38.93v6.04c0 .35.14.69.38.94s.56.39.9.39h.27v1.08c-1.11.37-2.13.99-2.98 1.81a8.18 8.18 0 0 0-1.95 2.96H19.53c-.34 0-.66.14-.9.39-.24.24-.38.58-.38.93v8.14c0 .35.14.7.38.94.24.25.56.39.9.39h.86v10.66H2.56Z"/><path d="M53.02 55.57h-1.76v-1.76a1.3 1.3 0 0 0-.54-1.07 1.26 1.26 0 0 0-1.65.15c-.24.24-.37.58-.37.93v1.76h-1.76c-.34 0-.67.14-.9.39a1.34 1.34 0 0 0 0 1.87c.23.25.56.39.9.39h1.76v1.81c0 .31.11.6.3.84a1.25 1.25 0 0 0 1.62.28 1.31 1.31 0 0 0 .64-1.12v-1.82h1.76c.34 0 .67-.14.91-.4a1.34 1.34 0 0 0 0-1.86 1.26 1.26 0 0 0-.9-.39ZM27.7 67.85h1.77v1.76c0 .35.13.69.37.94a1.26 1.26 0 0 0 1.81 0c.24-.25.38-.59.38-.94v-1.76h1.75c.24 0 .47-.06.67-.19.2-.13.36-.3.47-.52a1.34 1.34 0 0 0-.22-1.54 1.26 1.26 0 0 0-.9-.4h-1.77v-1.8c0-.36-.14-.7-.38-.94a1.26 1.26 0 0 0-1.8 0c-.25.24-.38.58-.38.93v1.82H27.7c-.34 0-.66.14-.9.38a1.34 1.34 0 0 0 .24 2.07c.2.12.43.19.66.2Z"/></g></svg>