<svg xmlns="http://www.w3.org/2000/svg" width="58" height="57" fill="none"><path fill="#18BCBC" d="M29.09.55a28.2 28.2 0 1 0 0 56.43 28.2 28.2 0 1 0 0-56.43Zm0 7.06c2.33 0 4.51.63 6.63 1.34-1.48 1.4-3.18 2.68-2.9 3.95.29 1.27 4.87.91 4.87 3.52 0 1.9-2.96 2.47-.91 4.66 2.46 2.47-4.52 6.9-4.66 10.15-.21 5.86 5.93 6.84 10.8 6.84 2.95 0 3.73 1.42 3.52 3.1A21.22 21.22 0 0 1 29.02 50c-2.68 0-5.15-.63-7.48-1.55 1.55-3.1-1.97-9.24-5.29-11.21-1.62-1.62-5.08-.99-7.05-1.76-.64-1.9-1.27-3.81-1.34-5.93.21-.35.56-.63 1.13-.63 1.34 0 3.17 2.68 4.16 2.4 1.27-.29-5.22-9.25-2.19-11 1.41-.85 4.23 2.74 3.32-1.14-.85-3.6 2.54-1.97 4.65-2.89 1.84-.77 3.18-2.89.92-4.16-.42-.21-.92-.7-1.55-1.34 3.17-1.9 6.84-3.1 10.79-3.1V7.6Zm16.29 7.68a23.33 23.33 0 0 1 3.1 5.08v.21c-.28.5-.77.78-1.55 1.56-1.97 1.97-2.25-1.49-3.1-2.2-.92-.84-4.23.15-4.66-.9-.49-1.28 3.53-2.97 6.21-3.75Z"/></svg>