<svg xmlns="http://www.w3.org/2000/svg" width="38" height="82" fill="none"><path fill="#fff" d="M7.74 32.44C15.87 15.64 25.24 5.2 30.9 7.22c2.29.81 4.36 3.8 4.51 4.04 3.68 5.42 2.45 12.32 2.14 14.08-1.01 5.69-4.53 12.73-9.83 14.33-2.26.68-4.18.17-4.38.98-.38 1.53 6.54 2.82 9.25 8.62 1.97 4.25 1.7 10.94-1.98 15.5-3.49 4.31-8.9 5.28-12.72 3.67-5.34-2.26-7.2-10.24-8.33-9.68-.6.3-.3 2.69-.03 3.95.75 3.62 2.75 5.92 3.4 6.68 2.16 2.55 4.96 6.4 8.54 12.61-7.13-8.57-9.98-11.77-11.12-12.89-.72-.71-1.25-1.35-2.3-2.63a8.76 8.76 0 0 1-1.44-2.2 8.47 8.47 0 0 1-.58-2.09c-.45-2.75-.73-5.48-.86-6.48-.31-2.49-.96-4.27-1.48-5.7-1.7-4.72-4.01-7.17-3.2-9 .09-.22.33-.64.8-1.65.52-1.13.78-1.7.79-2.02.02-1.23-1.3-1.46-1.84-2.94-.6-1.68.01-3.7.72-4.87 1.18-1.9 2.86-1.87 4.65-2.84.8-.44 2.97-1.74 5.6-8.54C14.98 8.5 15.52-.01 15.56 0c.04 0-.17 9.1-3.61 20.9-1.44 4.89-3 8.81-4.2 11.54Z"/></svg>