<svg xmlns="http://www.w3.org/2000/svg" width="71" height="73" fill="none"><path fill="#fff" d="M4.44 52.82a1.08 1.08 0 0 0 .93-.53 1.16 1.16 0 0 0 .06-1.1A35.28 35.28 0 0 1 2.21 36.5c0-2.43 3.43-5 9.32-6.97-.15 1.14-.26 2.3-.34 3.47a1.17 1.17 0 0 0 .27.83 1.11 1.11 0 0 0 1.2.33 1.08 1.08 0 0 0 .63-.57c.07-.14.1-.29.11-.44.1-1.48.27-2.92.5-4.34a70.16 70.16 0 0 1 10.84-2c-.07.94-.14 1.88-.19 2.82-.01.3.09.6.28.82.2.23.47.36.77.38h.06c.28 0 .55-.11.76-.31.2-.2.33-.47.34-.77.06-1.07.14-2.13.22-3.15a99.15 99.15 0 0 1 16.91 0c.08.96.15 1.94.2 2.95a1.15 1.15 0 0 0 .37.79 1.08 1.08 0 0 0 .8.28c.3-.02.57-.16.77-.38.2-.23.3-.52.28-.83l-.18-2.6c4.08.45 7.73 1.14 10.85 2 .21 1.42.4 2.86.49 4.34.02.29.14.56.34.76.2.2.48.3.76.3h.08c.29-.01.56-.15.75-.38.2-.23.3-.53.28-.83a51.82 51.82 0 0 0-.34-3.47c5.88 1.96 9.31 4.54 9.31 6.97a35.3 35.3 0 0 1-3.2 14.67 1.17 1.17 0 0 0 .5 1.56 1.08 1.08 0 0 0 1.24-.21c.11-.1.2-.23.26-.38a37.66 37.66 0 0 0 3.41-15.64C70.86 16.37 54.96 0 35.43 0S0 16.37 0 36.5c0 5.39 1.19 10.8 3.43 15.67.1.2.24.36.41.48.18.11.39.17.6.17Zm20.51-28.3a77.24 77.24 0 0 0-10.64 1.87 43.97 43.97 0 0 1 2.81-8.9c3-1.35 6.15-2.34 9.38-2.94-.7 3.3-1.22 6.62-1.55 9.98Zm10.48-.57c-2.75 0-5.52.13-8.23.36.4-3.85.97-7.25 1.65-10.17 4.37-.6 8.8-.6 13.16 0a81.67 81.67 0 0 1 1.66 10.17 97.6 97.6 0 0 0-8.24-.36Zm10.48.58a89.13 89.13 0 0 0-1.55-9.98 41.6 41.6 0 0 1 9.38 2.94 43.97 43.97 0 0 1 2.81 8.9c-3.5-.87-7.05-1.5-10.64-1.86Zm13.02 2.53a47.88 47.88 0 0 0-2.19-8.04c5.37 3.1 9.27 7.33 10.96 12.15-2.1-1.63-5.15-3-8.77-4.1Zm7.54-2.64a31.15 31.15 0 0 0-11.09-8.64c-2.2-4.7-5.1-8.6-8.48-11.35a33.23 33.23 0 0 1 11.89 7.81c3.37 3.45 6 7.6 7.68 12.18ZM52.22 14.41a45.28 45.28 0 0 0-8.43-2.27c-.98-3.74-2.22-6.9-3.72-9.05 4.78 1.63 9.03 5.69 12.15 11.32ZM35.43 2.28c2.02 0 4.26 3.4 5.98 9.51a49.77 49.77 0 0 0-5.98-.38c-2.04 0-4.03.15-5.98.38 1.73-6.12 3.96-9.5 5.98-9.5Zm-8.36 9.86c-2.96.51-5.8 1.26-8.42 2.27C21.77 8.78 26 4.72 30.79 3.09c-1.5 2.16-2.74 5.31-3.72 9.05Zm-3.1-7.71c-3.38 2.74-6.28 6.64-8.49 11.35A31.14 31.14 0 0 0 4.4 24.42a34.46 34.46 0 0 1 7.69-12.18 33.24 33.24 0 0 1 11.89-7.81Zm-9.84 14.6c-.97 2.6-1.7 5.29-2.2 8.03-3.61 1.1-6.66 2.48-8.76 4.11 1.69-4.82 5.59-9.06 10.96-12.15ZM5.6 65a1.11 1.11 0 0 0-.77-.37 1.08 1.08 0 0 0-.8.3 1.14 1.14 0 0 0-.35.79 1.17 1.17 0 0 0 .29.82l.8.9c.46.52.72 1.2.72 1.9v2.52c0 .3.11.6.32.8a1.1 1.1 0 0 0 1.57 0c.2-.2.32-.5.32-.8v-2.51c0-1.28-.46-2.5-1.3-3.44l-.8-.9ZM25.1 64.08a1.16 1.16 0 0 0-.08 1.62c.53.59.82 1.36.82 2.16v4c0 .3.12.6.32.8a1.1 1.1 0 0 0 1.57 0c.2-.2.32-.5.32-.8v-4c0-1.38-.49-2.69-1.39-3.7a1.11 1.11 0 0 0-.77-.37 1.08 1.08 0 0 0-.8.3ZM44.2 64.16a5.57 5.57 0 0 0-1.39 3.7v4c0 .3.12.6.33.8a1.1 1.1 0 0 0 1.56 0c.2-.2.33-.5.33-.8v-4c0-.8.29-1.57.81-2.16a1.15 1.15 0 0 0 .29-.82 1.16 1.16 0 0 0-.36-.8 1.1 1.1 0 0 0-.8-.3 1.08 1.08 0 0 0-.77.38ZM65.26 65l-.8.9a5.18 5.18 0 0 0-1.3 3.45v2.5c0 .31.12.6.33.82a1.1 1.1 0 0 0 1.57 0c.2-.22.32-.5.32-.81v-2.51c0-.71.26-1.39.72-1.9l.8-.91a1.14 1.14 0 0 0 .31-.83 1.17 1.17 0 0 0-.36-.81 1.1 1.1 0 0 0-.81-.3 1.08 1.08 0 0 0-.78.4Z"/><path fill="#fff" d="m67.27 59.46-5.26-2.04V54.8a6.8 6.8 0 0 0 2.2-5.07v-2.66l1.3-4.86a3.97 3.97 0 0 0-.63-2.94 3.75 3.75 0 0 0-2.47-1.6l-6.32-1.09a3.63 3.63 0 0 0-2.66.59 3.83 3.83 0 0 0-1.57 2.3c-.6.2-1.14.57-1.55 1.09-.62.8-.86 1.82-.61 2.97l1.23 3.56v2.65a6.9 6.9 0 0 0 2.22 5.06v2.62l-5.27 2.04c-.08.03-.16.09-.25.12L45.8 58.4a3.76 3.76 0 0 0 1.7-1.67c.38-.74.5-1.58.38-2.4-.53-3.44-.8-6.92-.8-10.4v-3.78a12.1 12.1 0 0 0-3.4-8.42 11.4 11.4 0 0 0-8.16-3.49c-3.06 0-6 1.26-8.16 3.5a12.1 12.1 0 0 0-3.39 8.4v3.78c0 3.47-.27 6.98-.8 10.41-.13.8 0 1.63.35 2.35.36.72.94 1.3 1.65 1.67l-1.93 1.23c-.08-.03-.16-.09-.25-.12l-5.26-2.04V54.8a6.8 6.8 0 0 0 2.2-5.07v-2.66l1.3-4.86a3.97 3.97 0 0 0-.63-2.94 3.75 3.75 0 0 0-2.48-1.6l-6.3-1.09a3.64 3.64 0 0 0-2.67.59 3.84 3.84 0 0 0-1.57 2.3c-.6.2-1.14.57-1.55 1.09-.62.8-.86 1.82-.61 2.97l1.23 3.56v2.65a6.9 6.9 0 0 0 2.22 5.06v2.62l-5.27 2.04a5.59 5.59 0 0 0-2.6 2.1A5.85 5.85 0 0 0 0 64.8v7.06c0 .3.12.6.32.8a1.1 1.1 0 0 0 1.57 0c.2-.2.32-.5.32-.8V64.8c0-1.42.87-2.7 2.16-3.2l2.21-.86c.83 1 1.86 1.8 3.02 2.34A8.64 8.64 0 0 0 20 60.74l1.35.53a6.56 6.56 0 0 0-1.42 4.05v6.54c0 .3.12.6.32.8a1.1 1.1 0 0 0 1.57 0c.2-.2.33-.5.33-.8v-6.54c0-1.47.72-2.82 1.93-3.6l4.93-3.16a8.82 8.82 0 0 0 6.42 2.9c2.44 0 4.75-1.1 6.42-2.9l4.93 3.17a4.24 4.24 0 0 1 1.94 3.6v6.53c0 .3.12.6.32.8a1.1 1.1 0 0 0 1.57 0c.2-.2.32-.5.32-.8v-6.54c0-1.51-.53-2.91-1.42-4.05l1.36-.53a8.89 8.89 0 0 0 6.7 3.18 8.64 8.64 0 0 0 6.71-3.18l2.21.85c1.3.5 2.16 1.79 2.16 3.2v7.07c0 .3.12.6.32.8a1.1 1.1 0 0 0 1.57 0c.2-.2.32-.5.32-.8V64.8c0-1.16-.34-2.3-.99-3.25a5.6 5.6 0 0 0-2.6-2.1ZM8.05 44.39l-.52-1.48a1.12 1.12 0 0 1 .21-.92 1.06 1.06 0 0 1 .83-.4c.6 0 1.1-.59 1.1-1.22a1.61 1.61 0 0 1 .55-1.18 1.51 1.51 0 0 1 1.22-.35l6.31 1.08a1.53 1.53 0 0 1 1.03.67c.24.35.33.79.28 1.12l-.67 2.52-.19-.29a1.12 1.12 0 0 0-.91-.5H9.25a1.08 1.08 0 0 0-.92.52l-.28.43Zm.8 5.35v-2.49l1-1.53h6.85l1.01 1.53v2.49a4.65 4.65 0 0 1-1.76 3.62h-.01c-.38.3-.8.53-1.26.68l-.03.01c-.88.3-1.83.3-2.72 0h-.05a4.52 4.52 0 0 1-3.03-4.3Zm4.44 11.9a6.54 6.54 0 0 1-4.45-1.77l1.52-.59c.2-.08.39-.22.52-.42.12-.19.2-.41.2-.64v-2.04c.13.05.27.07.41.11.2.06.39.13.59.16.3.06.6.08.9.1l.3.03.3-.03c.3-.01.6-.04.91-.1.2-.03.4-.1.59-.16.14-.04.29-.06.42-.11v2.04c0 .23.07.45.2.64.13.2.31.34.52.42l1.51.59a6.54 6.54 0 0 1-4.44 1.77Zm17.11-6.66-2.35 1.5h-1.22a1.47 1.47 0 0 1-1.15-.54 1.57 1.57 0 0 1-.34-1.25c.56-3.55.84-7.17.84-10.77v-3.78c0-5.3 4.18-9.61 9.33-9.61s9.34 4.31 9.34 9.61v1.64a5.58 5.58 0 0 0-3.54-1.4l-.5-.01c-2.91 0-5.7-1-8.07-2.88a1.07 1.07 0 0 0-1.24-.37 6.84 6.84 0 0 0-3.06 2.38 7.15 7.15 0 0 0-1.32 3.71c-.01.06-.04.12-.04.18v1.72a8.64 8.64 0 0 0 3.32 6.82v3.05Zm11.14-12.29v2.42c0 3.47-2.75 6.3-6.12 6.3a6.22 6.22 0 0 1-6.12-6.3v-1.44c0-1.75.99-3.32 2.46-4.12a15 15 0 0 0 9.01 3.1l.5.01c.1 0 .18.03.27.03Zm-6.1 16.49a6.63 6.63 0 0 1-4.52-1.84l1.18-.76a1.1 1.1 0 0 0 .5-.97h.02v-2.45a8 8 0 0 0 2.8.53c.99 0 1.93-.2 2.82-.54v2.46h.02c0 .38.16.75.5.97l1.19.76a6.63 6.63 0 0 1-4.52 1.84Zm9.9-3.24a1.5 1.5 0 0 1-1.14.55h-1.4l-2.35-1.51V51.9a8.76 8.76 0 0 0 3.3-6.8v-1.28a4.4 4.4 0 0 1 1.1 2.95c0 .19.05.36.13.51.12 2.49.32 4.97.7 7.41a1.6 1.6 0 0 1-.34 1.25Zm7-11.55-.52-1.48a1.12 1.12 0 0 1 .21-.92 1.06 1.06 0 0 1 .83-.4c.61 0 1.1-.59 1.1-1.22a1.61 1.61 0 0 1 .55-1.18 1.51 1.51 0 0 1 1.22-.35l6.31 1.08a1.53 1.53 0 0 1 1.03.67c.24.35.33.79.28 1.12l-.67 2.52-.19-.29a1.12 1.12 0 0 0-.91-.5h-8.03a1.08 1.08 0 0 0-.92.52l-.29.43Zm.8 5.35v-2.49l1-1.53h6.85L62 47.25v2.49c0 .95-.29 1.88-.83 2.65a4.42 4.42 0 0 1-2.19 1.65l-.05.02a4.28 4.28 0 0 1-4-.7h-.02a4.51 4.51 0 0 1-1.76-3.62Zm4.44 11.9a6.54 6.54 0 0 1-4.44-1.77l1.5-.59c.22-.08.4-.22.53-.42.12-.19.2-.41.2-.64v-2.04l.38.1c.2.06.4.13.63.17.29.06.58.08.88.1.1 0 .2.03.31.03.1 0 .18-.03.27-.03.32-.01.63-.04.95-.1.18-.03.36-.1.54-.15.15-.04.31-.06.46-.12v2.03c0 .23.07.46.2.65.13.2.3.34.52.42l1.51.58a6.53 6.53 0 0 1-4.44 1.78Z"/></svg>