<svg xmlns="http://www.w3.org/2000/svg" width="72" height="72" fill="none"><g clip-path="url(#a)"><path fill="#fff" d="M8.54 19.67c-1.1 0-1.98-.89-1.98-1.99V8.54c0-1.1.89-1.98 1.98-1.98h9.14a1.99 1.99 0 1 1 0 3.97h-7.15v7.15c0 1.1-.89 2-1.99 2ZM63.46 65.44h-9.14a1.99 1.99 0 0 1 0-3.97h7.15v-7.15a1.99 1.99 0 0 1 3.97 0v9.14c0 1.1-.89 1.98-1.98 1.98Z"/><path fill="#fff" d="M70.01 72H2C.89 72 0 71.11 0 70.01V2C0 .89.89 0 1.99 0H70C71.11 0 72 .89 72 1.99V70c0 1.1-.9 1.99-1.99 1.99ZM3.98 68.02h64.04V3.98H3.98v64.04Z"/><path fill="#34D8D8" d="M36 46.7a10.7 10.7 0 1 0 0-21.4 10.7 10.7 0 0 0 0 21.4Z"/><path fill="#34D8D8" d="M17.3 17.3v15.75h8.4a10.71 10.71 0 0 1 20.6 0h8.4V17.3H17.3Z"/><path fill="#fff" d="M56.68 33.05V17.3c0-1.1-.89-1.98-1.98-1.98H17.3c-1.1 0-1.98.89-1.98 1.98v37.4c0 1.1.89 1.98 1.98 1.98h37.4c1.1 0 1.98-.89 1.98-1.98V42.56a1.99 1.99 0 0 0-3.97 0v10.15H19.29V35.04h4.05A12.71 12.71 0 0 0 36 48.7a12.71 12.71 0 0 0 12.66-13.66h6.04c1.1 0 1.98-.9 1.98-2ZM36 44.72a8.73 8.73 0 0 1-8.24-11.56l.08-.22.06-.17.08-.19.15-.33.08-.16a9.04 9.04 0 0 1 .61-1.03l.05-.07a8.78 8.78 0 0 1 5.98-3.63l.14-.02a8.34 8.34 0 0 1 .44-.04h.17a8.74 8.74 0 0 1 .8 0h.17a8.17 8.17 0 0 1 .44.04l.14.02a8.78 8.78 0 0 1 5.97 3.62l.06.08.13.2a7.23 7.23 0 0 1 .3.48l.08.16.1.2.08.15.15.33.07.18.08.18a9.05 9.05 0 0 1 .55 3.06c0 4.8-3.91 8.72-8.72 8.72Zm16.7-13.66h-5l-.05-.11-.17-.38-.1-.2a13.05 13.05 0 0 0-.64-1.13l-.16-.25-.2-.28-.1-.14-.22-.3-.04-.05a12.7 12.7 0 0 0-8.41-4.81l-.22-.03-.26-.02-.35-.03-.2-.01a12.47 12.47 0 0 0-1.15 0h-.21l-.35.04-.26.02-.22.03a12.7 12.7 0 0 0-8.42 4.81c0 .02-.02.03-.03.04a13.16 13.16 0 0 0-.32.45l-.2.28-.14.23a12.91 12.91 0 0 0-.65 1.14l-.1.21-.17.36-.06.13h-5V19.29h33.4v11.77Z"/><path fill="#fff" d="M46.45 25.7h3.86a1.99 1.99 0 0 0 0-3.98h-3.86a1.99 1.99 0 0 0 0 3.98Z"/></g><defs><clipPath id="a"><path fill="#fff" d="M0 0h72v72H0z"/></clipPath></defs></svg>