<svg xmlns="http://www.w3.org/2000/svg" width="37" height="37" fill="none"><path fill="#fff" d="M4.4 10.1c-.57 0-1.03-.45-1.03-1.01v-4.7c0-.56.46-1.02 1.02-1.02h4.7a1.02 1.02 0 1 1 0 2.04H5.4V9.1c0 .56-.45 1.02-1.02 1.02ZM32.6 33.63h-4.69a1.02 1.02 0 0 1 0-2.04h3.68V27.9a1.02 1.02 0 0 1 2.04 0v4.7c0 .56-.46 1.02-1.02 1.02Z"/><path fill="#fff" d="M35.98 37H1.02C.46 37 0 36.54 0 35.98V1.02C0 .46.46 0 1.02 0h34.96C36.54 0 37 .46 37 1.02v34.96c0 .56-.46 1.02-1.02 1.02ZM2.04 34.96h32.92V2.04H2.04v32.92Z"/><path fill="#34D8D8" d="M18.5 24a5.5 5.5 0 1 0 0-11 5.5 5.5 0 0 0 0 11Z"/><path fill="#34D8D8" d="M8.9 8.9v8.08h4.31a5.5 5.5 0 0 1 10.58 0h4.32V8.9H8.89Z"/><path fill="#fff" d="M29.13 16.98V8.9c0-.56-.46-1.02-1.02-1.02H8.89c-.56 0-1.02.46-1.02 1.02v19.22c0 .56.46 1.02 1.02 1.02h19.22c.56 0 1.02-.46 1.02-1.02v-6.24a1.02 1.02 0 0 0-2.04 0v5.22H9.9V18H12a6.53 6.53 0 1 0 13 0h3.1c.57 0 1.03-.45 1.03-1.02Zm-10.63 6a4.49 4.49 0 0 1-4.26-5.87l.02-.07.04-.11.04-.09.04-.1.08-.17.04-.08.05-.1.05-.08a4.73 4.73 0 0 1 .1-.18l.04-.07.07-.1.03-.04a4.51 4.51 0 0 1 3.37-1.89h.08a4.47 4.47 0 0 1 .42 0h.08a4.8 4.8 0 0 1 .23.02h.07c1.25.18 2.36.86 3.07 1.87l.03.04.07.1a3.58 3.58 0 0 1 .15.25l.04.08.06.1c0 .03.02.06.03.08l.08.17.04.1.04.09a4.63 4.63 0 0 1 .28 1.57 4.49 4.49 0 0 1-4.48 4.48Zm8.59-7.02H24.5l-.03-.06a6.84 6.84 0 0 0-.08-.19l-.05-.1-.08-.15-.06-.11a6.7 6.7 0 0 0-.2-.33l-.07-.12-.1-.15-.05-.07-.12-.16-.02-.02a6.52 6.52 0 0 0-4.32-2.47l-.11-.02h-.14a6 6 0 0 0-.18-.02h-.1a6.44 6.44 0 0 0-.6 0h-.1a6 6 0 0 0-.18.01l-.14.01-.1.02a6.52 6.52 0 0 0-4.52 2.72l-.1.15L13 15a6.75 6.75 0 0 0-.33.6l-.06.1-.08.19-.03.06H9.91V9.91H27.1v6.05Z"/><path fill="#fff" d="M23.87 13.2h1.98a1.02 1.02 0 0 0 0-2.04h-1.98a1.02 1.02 0 0 0 0 2.05Z"/></svg>