<svg xmlns="http://www.w3.org/2000/svg" width="262" height="141" fill="none"><path fill="#fff" d="M123.1 30.06c7.58-15.57 16.31-25.24 21.58-23.37 2.14.75 4.07 3.53 4.21 3.75 3.44 5.02 2.29 11.41 2 13.04-.95 5.27-4.22 11.8-9.16 13.28-2.11.63-3.9.16-4.09.9-.35 1.42 6.1 2.62 8.62 8 1.84 3.93 1.6 10.14-1.84 14.35-3.25 4-8.3 4.9-11.85 3.4-4.98-2.08-6.71-9.48-7.77-8.96-.57.29-.28 2.49-.03 3.66.7 3.35 2.56 5.49 3.17 6.2 2.01 2.35 4.62 5.91 7.96 11.67-6.64-7.94-9.3-10.9-10.36-11.94-.68-.66-1.17-1.25-2.15-2.44-.6-.73-1-1.26-1.34-2.04a7.82 7.82 0 0 1-.55-1.93c-.41-2.55-.67-5.08-.8-6.01-.28-2.3-.9-3.95-1.37-5.28-1.6-4.37-3.74-6.64-3-8.34.1-.2.32-.6.76-1.53.48-1.05.72-1.58.73-1.87.03-1.14-1.21-1.35-1.7-2.72-.56-1.56 0-3.43.67-4.52 1.1-1.76 2.65-1.73 4.32-2.63.76-.4 2.77-1.61 5.23-7.91 3.5-8.93 4-16.83 4.04-16.82.04 0-.15 8.44-3.36 19.37a89.43 89.43 0 0 1-3.92 10.69ZM0 108.78c-.11-2.81 1.2-5.97 3.66-5.97 1.2 0 2.04.96 1.98 2.54a4.19 4.19 0 0 1-1.2 2.73c-.65.78-1.25 1.49-1.31 2.72-.06 2.02 1.38 2.63 2.88 2.63 5.15 0 10.3-6.42 14.92-13.1-.9-.26-1.8-.34-2.63-.34-1.69 0-3.42.52-5.46 1.76-.3.17-.54.43-.6.17-.06-.17.19-.44.42-.7 1.62-1.67 3.78-2.9 5.88-2.9 1.01 0 2.04.09 3.35.43 2.76-4.48 5.46-10.1 5.94-15.3.41-4.65-1.2-6.67-3.6-6.67-2.7 0-5.93 1.76-8.15 4.3-2.34 2.64-4.14 6.77-4.38 10.02-.24 2.73.36 4.92 2.34 5.19 2.04.27 4.26-2.2 5.75-4.57 1.2-1.94 2.1-4.92 2.22-6.6.06-.79.06-1.48-.06-2.19-.06-.44-.18-.62-.06-.7.12-.1.18 0 .36.34.12.26.54 1.4.48 3-.06 2.1-.9 4.83-2.28 7.02-1.38 2.29-4.14 4.66-6.53 4.4-2.4-.27-3.6-2.55-3.36-6.07.24-3.16 2.1-7.2 4.98-10.36 2.58-2.9 5.64-4.58 8.8-4.58 3.42 0 7.2 1.94 6.66 9.24-.42 4.57-3.24 10.2-6 14.5.36.09 1.09.27 1.86.27 1.62 0 2.76-.18 4.14-1.4.36-.36.72-.8.84-.53.12.35-.3.79-.66 1.23a6.63 6.63 0 0 1-5.15 2.28c-.72 0-1.44-.08-2.1-.26-4.5 6.42-11.99 12.92-18.1 12.92-2.88 0-5.58-1.31-5.82-5.45ZM33.57 105.15c-1.61 1.84-3.18 4.44-3.35 6.08-.12 1.02.42 1.57 1.38 1.57.78 0 2.88-.4 5.51-2.45a45.81 45.81 0 0 0 3.6-3.28c.36-.34.54-.41.66-.28.11.2-.06.48-.49.9-.78.8-2.45 2.45-3.53 3.27-2.1 1.64-4.92 2.94-6.96 2.94-2.28 0-3.35-1.02-3.23-2.86.11-2.12 1.74-4.5 3.18-5.8 1.8-1.78 5.45-4.04 7.67-3.63 1.38.28 1.86 1.3 1.62 2.6s-1.26 2.32-2.04 2.32c-1.02 0-1.02-.96-.49-1.98.66-1.3.9-2.11.19-2.26-.66-.15-2.04.88-3.72 2.86Z"/><path fill="#fff" d="M49.04 102.83a84.45 84.45 0 0 0-5.15 7.51l.06.07c1.44-1.37 3.41-3.35 5.5-5.12 2.1-1.78 4.74-3.7 6.48-3.7 1.5 0 2.1.82 1.92 1.99-.18 1.09-1.32 2.52-2.34 3.89a62.85 62.85 0 0 0-2.16 3l.06.07c1.38-1.37 3.54-3.48 5.64-5.25 2.1-1.78 4.73-3.7 6.53-3.7 1.32 0 1.98.76 1.86 1.85-.18 1.23-1.44 2.8-2.4 4.16a34.99 34.99 0 0 0-1.98 3c-.48.82-.48 1.3-.24 1.5.3.28.96 0 1.44-.27.72-.4 1.56-.96 2.88-2.11 1.02-.9 2.22-2.12 2.88-2.8.36-.34.6-.62.78-.41.12.13-.06.4-.48.9-.54.6-2.34 2.45-3.6 3.54-1.2 1.02-3.53 2.73-5.4 2.73-1.2 0-1.85-.62-1.79-1.77.06-1.58 1.5-3.35 2.51-4.78.9-1.24 1.74-2.33 2.52-3.35.24-.34.36-.75.06-.96-.3-.2-.96.07-1.56.41a29.54 29.54 0 0 0-4.68 3.48c-2.64 2.32-4.08 3.89-6.7 6.21a2.1 2.1 0 0 1-1.56.62c-.96 0-1.14-.2-.79-1.1.6-1.42 2.1-3.81 3.18-5.32 1.02-1.43 2.1-2.67 2.52-3.35.24-.34.3-.81-.06-.96-.36-.13-.84.07-1.5.41a28.18 28.18 0 0 0-4.68 3.48c-2.64 2.33-4.08 3.9-6.7 6.22-.55.47-.9.61-1.62.61-.79 0-1.2-.13-.72-1.09a36.9 36.9 0 0 1 2.64-4.57c.96-1.43 2.1-3.07 3.24-4.37-.42.2-1.5 1.09-2.34 1.84a46 46 0 0 0-2.46 2.39c-.54.55-.78.61-.9.47s.06-.4.24-.61a58.4 58.4 0 0 1 4.74-4.38c1.56-1.23 2.34-1.43 3.48-1.5 1.18-.05 1.37.16.65 1.12Z"/><path fill="#fff" d="M79.01 110.34a39.29 39.29 0 0 0 3.66-3.28c.35-.34.54-.4.65-.28.12.21-.11.48-.48.9-.78.81-2.7 2.6-3.78 3.41-2.51 1.91-4.73 2.8-6.77 2.8-2.22 0-3.24-.96-3.18-2.73.06-1.37.6-2.6 1.8-4.23l-.06-.07-1.2 1.23c-.3.28-.48.34-.6.2-.12-.2.12-.47.36-.74a23.58 23.58 0 0 1 5.15-4.1c1.74-1.02 3.54-1.91 5.15-1.91 1.39 0 1.86.95 1.8 1.84-.11 1.77-2.04 3.14-3.83 4.16a28.58 28.58 0 0 1-5.16 2.18 4.23 4.23 0 0 0-.36 1.58c0 1.02.49 1.57 1.38 1.57.8 0 2.83-.48 5.47-2.53Zm-2.04-3.41c1.5-1.16 2.4-2.6 2.46-3.55.06-.62-.18-.96-.72-.96-.53 0-1.44.68-2.64 1.98a26.71 26.71 0 0 0-3.18 4.57 13.3 13.3 0 0 0 4.08-2.04Z"/><path fill="#fff" d="M89.92 101.6c1.14 0 1.5.75 1.5 1.5 0 .81-.49 1.7-1.26 2.94-.9 1.36-2.16 3.2-2.82 4.3l.06.07c1.44-1.37 3.42-3.35 5.51-5.12 2.1-1.78 4.74-3.7 6.48-3.7 1.5 0 2.1.82 1.92 1.99-.19 1.09-1.32 2.52-2.34 3.89a58.42 58.42 0 0 0-2.16 3l.06.07c1.38-1.37 3.54-3.48 5.63-5.25 2.1-1.78 4.74-3.7 6.54-3.7 1.31 0 1.98.76 1.86 1.85-.19 1.23-1.44 2.8-2.4 4.16a35.14 35.14 0 0 0-1.98 3c-.48.82-.48 1.3-.24 1.5.3.28.95 0 1.44-.27.71-.4 1.55-.96 2.88-2.11 1.01-.9 2.21-2.12 2.88-2.8.35-.34.6-.62.78-.41.11.13-.06.4-.48.9-.55.6-2.34 2.45-3.6 3.54-1.2 1.02-3.54 2.73-5.4 2.73-1.2 0-1.85-.62-1.8-1.77.06-1.58 1.5-3.35 2.52-4.78l2.52-3.35c.24-.34.36-.75.06-.96-.3-.2-.96.07-1.56.41a29.51 29.51 0 0 0-4.68 3.48c-2.64 2.32-4.08 3.89-6.71 6.21a2.1 2.1 0 0 1-1.56.62c-.96 0-1.14-.2-.78-1.1.6-1.42 2.1-3.81 3.18-5.32 1.02-1.43 2.1-2.67 2.51-3.35.25-.34.3-.81-.05-.96-.36-.14-.84.07-1.5.41a28.18 28.18 0 0 0-4.68 3.48c-2.64 2.33-4.08 3.9-6.71 6.22-.54.47-.9.61-1.56.61-.84 0-1.26-.13-.78-1.09.42-.89 1.74-3.14 2.64-4.57.9-1.43 1.74-2.6 2.4-3.55.41-.61.54-.96.41-1.16-.18-.27-.54-.13-.9.07-.71.4-1.61 1.16-2.33 1.84l-2.59 2.6c-.6.61-.84.81-1.01.61-.12-.2.18-.55.9-1.3.71-.74 2.04-2.18 3.11-3.13 1.63-1.43 2.83-2.25 4.09-2.25Z"/><path fill="#fff" d="M112.94 111.77c.05-.95.6-1.98 1.14-2.8 1.2-1.84 2.4-3.48 4.25-5.46-.42.2-1.68 1.23-2.58 2.05-.9.82-1.56 1.43-2.16 2.05-.48.47-.71.68-.9.55-.11-.14 0-.41.66-1.1.66-.68 2.82-2.72 4.26-3.81 1.55-1.24 2.34-1.5 3.48-1.5 1.25 0 1.38.2.65 1.09-.78.95-1.91 2.52-3.11 4.23a28.33 28.33 0 0 0-2.21 3.69c-.25.55-.25 1.02-.06 1.23.24.27.78.2 1.38-.14a35.33 35.33 0 0 0 4.5-3.54c2.87-2.53 4.55-4.23 6.47-5.94.48-.4.84-.75 1.74-.75 1.02 0 1.62.13.9 1.09-1.08 1.5-1.98 2.6-3.18 4.37a31.77 31.77 0 0 0-2.22 3.48c-.36.69-.41 1.3-.18 1.5.3.28.78.13 1.38-.2.6-.35 1.74-1.16 2.7-2.05 1.2-1.1 2.22-2.12 2.88-2.8.36-.41.72-.69.84-.48.18.14-.3.69-.48.9-.72.8-2.22 2.25-3.66 3.54-1.08.96-3.18 2.73-5.15 2.73-1.2 0-1.86-.61-1.86-1.64 0-.96.42-1.91.96-2.8.66-1.09 1.8-2.39 2.81-3.54l-.05-.07-4.8 4.3c-2.46 2.12-4.61 3.76-6.41 3.76-1.28-.02-2.05-.7-2-1.94Z"/><path fill="#fff" d="M133.2 112.45c-.08-.66.51-1.04 1.09-2.05.48-.85 1.03-1.77 1.54-2.52l2.4-3.54c.42-.62.54-.96.42-1.16-.19-.28-.55-.14-.9.06a14 14 0 0 0-2.34 1.84l-2.58 2.6c-.6.62-.84.82-1.02.62-.12-.2.18-.55.9-1.3 1.47-1.54 2.55-2.66 3.11-3.14 1.88-1.56 3.04-3.42 3.98-4.93 1.43-2.3 1.15-2.93 3-7.66 1.35-3.48 3.3-7.77 3.73-7.57.24.1-.29 1.53-.52 4.34-.34 4.06.44 4.94-.22 6.8-1.15 3.19-4.73 4.2-4.79 4.09-.06-.12 3.46-1.62 4.19-4.94.3-1.43.08-3.1-.38-3.24-.57-.16-1.74 2.08-2.16 4.35-.14.72-.05.69-.19 2.16a25.1 25.1 0 0 1-1.06 5.85 14.5 14.5 0 0 1-1.26 2.94c-1.74 2.6-2.7 4.1-4.38 6.7-.82 1.26-1.58.9-1.8.81a1.4 1.4 0 0 1-.77-1.1Zm8.56-1.36c.06-1.84.9-3 .85-3.69-1.86.07-2.52-.4-2.46-.75.06-.4.6-.55 1.2-.47.6.07 1.38.27 1.74.55 1.08 0 2.34-1.3 3.11-2.26 1.14-1.37 2.28-2.94 3.9-2.94 1.44 0 1.98 1.23 1.74 2.39-.24 1.16-1.14 2.11-1.86 2.11-.9 0-1.2-.89-.66-1.91.66-1.23.66-1.7.24-1.77-.84-.14-1.85 1.36-3 2.66-1.07 1.23-2.03 2.05-2.87 2.18.48.34 1.25 1.1 1.08 3.08-.12 1.15-.18 1.91.54 2.04.6.14 1.38-.4 2.04-.81a19.3 19.3 0 0 0 2.51-1.98 46.96 46.96 0 0 0 2.64-2.6c.3-.28.6-.68.84-.48.19.21-.35.75-.6 1.03-.78.81-2.04 2.18-3.41 3.34-1.26 1.1-3.48 2.87-5.4 2.87-1.15 0-2.22-.68-2.17-2.59Z"/><path fill="#fff" d="M167.6 101.6c1.26-.07 1.38.27.78 1.09-.78 1.02-2.1 2.73-3.35 4.5a25.5 25.5 0 0 0-2.1 3.35c-.42.82-.42 1.37-.19 1.57.3.28.9 0 1.39-.27.6-.34 1.74-1.23 2.7-2.12a74.08 74.08 0 0 0 2.87-2.8c.36-.34.66-.68.84-.47.19.2-.11.55-.78 1.23a71.5 71.5 0 0 1-3.35 3.28c-1.2 1.1-3.18 2.73-5.16 2.73-1.14 0-1.68-.61-1.74-1.43-.06-.75.3-1.7.84-2.45l-.06-.07c-1.55 1.57-4.3 3.82-6.59 3.96-1.31.07-2.7-.55-2.45-2.73.11-1.02.6-2.11 1.68-3.55l-.06-.06-.78.81c-.25.21-.42.34-.55.21-.11-.2.19-.62.84-1.3.19-.2 1.2-1.16 1.8-1.64.6-.47 1.62-1.23 2.76-1.91 2.34-1.37 4.44-2.19 6-1.92 1.2.2 1.6 1.43 1.25 2.6 1.43-1.72 2.45-2.61 3.4-2.61Zm-10.43 4.98c-2.46 2.73-3.48 4.5-3.36 5.4.06.47.36.68.78.68 1.14 0 3.42-1.5 5.04-3.2 1.92-1.92 4.08-4.85 4.14-5.94.06-.9-.42-1.23-1.08-1.23-1.2-.01-3.37 1.84-5.52 4.3ZM181.38 108.83c0 .28-.06.34-.11.34-.12 0-.12 0-.24-.2-.42-.75-1.09-1.1-2.4-1.1-1.56 0-2.52.62-4.5.62-.66 0-1.74-.34-2.1-.89-.05-.13-.05-.27 0-.34.06-.07.19-.07.25 0 .24.13.54.27.95.27 1.09 0 2.1-.68 3-1.3.6-.47 1.5-.95 2.46-.95 1.97 0 2.75 1.85 2.7 3.55ZM184.68 110.34c0-2.18 1.44-3.55 2.82-3.62 1.25-.07 2.03.68 2.03 1.84 0 .89-.35 1.5-1.13 2.11-.55.41-1.39.9-1.39 1.58 0 1.02.9 1.57 2.88 1.57 4.8 0 10.43-3.55 16.73-8.88 5.51-4.57 10.79-10.71 16.72-17l1.86-1.91c.54-.62 1.56-1.3 2.16-1.24.9.14.71.69-.19 1.78-.54.68-1.01 1.23-1.44 1.77-3.18 4.57-7.37 13.93-10.3 18.37 2.33-2.39 7.13-7.17 11.26-10.99 3.3-3.07 6.18-5.6 9.3-8.13 2.93-2.39 4.79-3.2 6.29-3.2a2.4 2.4 0 0 1 1.67.61c.04.04.64.62.78 1.4.15.93-.41 1.72-.65 2.05a4.44 4.44 0 0 1-3.96 1.7c-.01-.09 1.5-.17 2.76-1.53.37-.39 1.02-1.1.9-1.87-.11-.7-.79-1.18-1.27-1.33-1.58-.5-3.4 1.83-4.5 3.07-2.7 3.07-6.05 7.38-8.87 11.4-3.11 4.44-6.35 9.28-6.41 11.82 0 .55.3.89.78.89.96 0 2.64-1.03 4.56-2.8a66.6 66.6 0 0 0 2.88-2.8c.3-.27.54-.55.71-.34.12.2-.12.47-.54.96-.78.81-1.86 1.91-3.35 3.28-1.2 1.09-3.24 2.66-4.92 2.73-1.5.06-2.63-.55-2.7-2.52-.05-2.46 1.86-5.67 4.44-9.43 2.4-3.55 6.9-9.15 9.95-12.08h-.06c-4.01 3.41-8.09 7.23-12.04 11.12-4.56 4.5-8.04 8.06-11.45 11.74-.72.75-1.02 1.3-1.56.9-.48-.48-.18-1.3.19-1.85 3.47-5.53 9.47-17 12.7-21.57h-.06c-2.21 2.45-10 11.26-15.34 15.7-5.94 5.06-11.75 8.95-16.96 8.95-2.76-.02-5.28-.9-5.28-4.25Z"/><path fill="#fff" d="M240 110.34a39.29 39.29 0 0 0 3.66-3.28c.36-.34.54-.4.66-.28.11.21-.12.48-.49.9-.78.81-2.7 2.6-3.78 3.41-2.51 1.91-4.73 2.8-6.77 2.8-2.22 0-3.24-.96-3.18-2.73.06-1.37.6-2.6 1.8-4.23l-.06-.07-1.2 1.23c-.3.28-.48.34-.6.2-.12-.2.12-.47.36-.74a23.61 23.61 0 0 1 5.15-4.1c1.74-1.02 3.54-1.91 5.16-1.91 1.38 0 1.85.95 1.8 1.84-.12 1.77-2.04 3.14-3.84 4.16a28.58 28.58 0 0 1-5.16 2.18 4.23 4.23 0 0 0-.35 1.58c0 1.02.48 1.57 1.38 1.57.8 0 2.83-.48 5.46-2.53Zm-2.03-3.41c1.5-1.16 2.4-2.6 2.46-3.55.05-.62-.19-.96-.72-.96s-1.44.68-2.64 1.98a26.75 26.75 0 0 0-3.18 4.57c1.2-.34 2.82-1.09 4.08-2.04Z"/><path fill="#fff" d="M254.21 101.6c1.2.2 1.5 1.23 1.38 2.32h.06c1.32-1.7 1.98-2.32 2.88-2.32 1.14 0 1.44.27.78 1.09-1.08 1.43-1.91 2.73-3.11 4.5-1.02 1.5-3.12 4.85-4.91 7.58a67.47 67.47 0 0 0 5.75-4.3 60.62 60.62 0 0 0 3.71-3.48c.3-.34.6-.47.72-.34.18.21-.3.68-.6 1.03-.9.95-2.16 2.11-3.54 3.34a63.03 63.03 0 0 1-6.6 4.85 149.94 149.94 0 0 1-8.2 12.22c-4.01 5.06-8.8 9.35-12.35 11.48-1.55.96-3 1.43-4.13 1.43-1.5 0-3.12-.55-2.82-2.87.48-4.1 7.44-9.83 12.1-13.31 5.52-4.03 8.04-5.53 12.18-8.47 1.08-1.7 3.05-4.78 4.01-6.42l-.06-.06c-1.61 1.57-4.25 3.68-6.47 3.82-1.32.06-2.64-.48-2.46-2.73.12-1.03.6-2.12 1.68-3.55l-.06-.07-.78.82c-.24.2-.42.34-.54.2-.12-.2.3-.74.96-1.43a21.5 21.5 0 0 1 4.44-3.41c2.14-1.3 4.42-2.2 5.98-1.92Zm-19.24 24.45c-5.03 3.82-9.47 8.53-9.7 12.08-.06 1.02.3 1.64.9 1.84.95.34 2.7-.34 3.77-1.1 2.7-1.83 6.24-5.39 10.97-12.28 2.4-3.48 4.85-7.17 6.05-9.09-3.54 2.67-6.42 4.3-11.99 8.55Zm13.49-19.47c-2.46 2.74-3.48 4.51-3.36 5.4.06.48.36.68.78.68 1.15 0 3.42-1.5 5.04-3.2 1.92-1.92 4.08-4.85 4.14-5.94.06-.9-.42-1.23-1.08-1.23-1.2-.01-3.36 1.84-5.52 4.3Z"/></svg>