<svg xmlns="http://www.w3.org/2000/svg" width="84" height="57" fill="none"><path fill="#fff" d="m82.67 53.74-2.9 2.84a1.4 1.4 0 0 1-1 .41H21.64v-8.52h57.13a1.41 1.41 0 0 1 1.01.41l2.89 2.84a1.43 1.43 0 0 1 0 2.02Z"/><path fill="#fff" d="M50.9 48.47A29.2 29.2 0 0 1 30.33 57H7.2c-.7.04-1.4-.19-1.94-.64a2.67 2.67 0 0 1-.94-1.8V50.9c.06-.7.4-1.35.94-1.8a2.73 2.73 0 0 1 1.94-.64H50.9Z" opacity=".1"/><path fill="#fff" d="M44.53 50.33A29.2 29.2 0 0 1 26 57H2.9A2.67 2.67 0 0 1 0 54.55v-3.64c.06-.7.4-1.35.94-1.8a2.73 2.73 0 0 1 1.95-.64H26a20.53 20.53 0 0 0 12.97-4.68 19.77 19.77 0 0 0 3.77-26.43 20.2 20.2 0 0 0-11.83-8.21c-4.84-1.2-9.95-.6-14.36 1.7l3.36 2.21a1.43 1.43 0 0 1 .65 1.24 1.41 1.41 0 0 1-.73 1.19L5.27 23.6a1.45 1.45 0 0 1-1.97-.52 1.4 1.4 0 0 1-.18-.72V4.67a1.4 1.4 0 0 1 .75-1.26 1.45 1.45 0 0 1 1.48.07L8.72 5.7a29.1 29.1 0 0 1 39.88 5.1 28.26 28.26 0 0 1-4.07 39.54Z"/><path fill="#fff" d="m83.56 17.68-5.7 12.82a1.41 1.41 0 0 1-1.1.84 1.44 1.44 0 0 1-1.3-.5l-1.55-1.8-6.89-8.02a1.43 1.43 0 0 1 .83-2.32l4.17-.89a9.24 9.24 0 0 0-3.44-5.84 9.45 9.45 0 0 0-12.7.97 9.2 9.2 0 0 0-2.5 6.3c0 .7-.26 1.39-.74 1.91a2.9 2.9 0 0 1-5.02-1.91c0-3.52 1.26-6.91 3.55-9.6a15.31 15.31 0 0 1 19.15-3.35 15.02 15.02 0 0 1 7.35 10.32l3.6-.75.67-.14a1.45 1.45 0 0 1 1.42.49 1.41 1.41 0 0 1 .2 1.47Z"/></svg>