<svg xmlns="http://www.w3.org/2000/svg" width="224" height="153" fill="none"><path fill="#fff" d="m221.27 143.85-7.73 7.6a3.74 3.74 0 0 1-2.7 1.1H57.94v-22.82h152.9a3.78 3.78 0 0 1 2.7 1.1l7.73 7.6a3.83 3.83 0 0 1 0 5.42Z"/><path fill="#fff" d="M136.22 129.73a68.01 68.01 0 0 1-5.44 5 78.18 78.18 0 0 1-49.6 17.83H19.32a7.3 7.3 0 0 1-5.21-1.7 7.14 7.14 0 0 1-2.51-4.83v-9.77a7.14 7.14 0 0 1 2.5-4.82 7.3 7.3 0 0 1 5.22-1.7h116.91Z" opacity=".1"/><path fill="#fff" d="M119.19 134.73a78.18 78.18 0 0 1-49.6 17.82H7.73a7.3 7.3 0 0 1-5.2-1.7A7.14 7.14 0 0 1 0 146.03v-9.77a7.14 7.14 0 0 1 2.51-4.83 7.3 7.3 0 0 1 5.21-1.7H69.6a54.95 54.95 0 0 0 34.72-12.52 53.27 53.27 0 0 0 18.77-33.45 52.93 52.93 0 0 0-8.68-37.29 54.07 54.07 0 0 0-31.67-21.99 54.65 54.65 0 0 0-38.44 4.57l9 5.92a3.82 3.82 0 0 1 1.72 3.3 3.77 3.77 0 0 1-1.95 3.18L14.1 63.21a3.88 3.88 0 0 1-5.25-1.42 3.76 3.76 0 0 1-.5-1.9v-47.4a3.76 3.76 0 0 1 2.02-3.36 3.88 3.88 0 0 1 3.96.19l9 5.92A77.87 77.87 0 0 1 79.53.64a77.4 77.4 0 0 1 50.57 28.25A75.64 75.64 0 0 1 146.4 84a76 76 0 0 1-27.21 50.73Z"/><path fill="#fff" d="m223.66 47.33-15.25 34.31a3.77 3.77 0 0 1-2.97 2.25 3.86 3.86 0 0 1-3.48-1.33l-4.13-4.8-18.43-21.5a3.83 3.83 0 0 1 2.2-6.22l11.17-2.36a24.72 24.72 0 0 0-9.21-15.64 25.29 25.29 0 0 0-34 2.6 24.62 24.62 0 0 0-6.66 16.85c0 1.9-.7 3.73-2 5.13a7.75 7.75 0 0 1-13.45-5.13 39.8 39.8 0 0 1 9.52-25.7 40.68 40.68 0 0 1 23.99-13.67 40.98 40.98 0 0 1 27.27 4.72 40.2 40.2 0 0 1 17.86 20.91c.8 2.19 1.4 4.44 1.82 6.72l9.61-2.02 1.82-.38a3.89 3.89 0 0 1 3.8 1.32 3.77 3.77 0 0 1 .52 3.94Z"/></svg>