<svg xmlns="http://www.w3.org/2000/svg" width="37" height="37" fill="none"><g clip-path="url(#a)"><path fill="#fff" d="M4.4 10.1c-.57 0-1.03-.45-1.03-1.01v-4.7c0-.56.46-1.02 1.02-1.02h4.7a1.02 1.02 0 0 1 0 2.04H5.4V9.1c0 .56-.45 1.02-1.02 1.02ZM32.6 33.63h-4.69a1.02 1.02 0 0 1 0-2.04h3.68V27.9a1.02 1.02 0 0 1 2.04 0v4.7c0 .56-.46 1.02-1.02 1.02Z"/><path fill="#fff" d="M35.98 37H1.02C.46 37 0 36.54 0 35.98V1.02C0 .46.46 0 1.02 0h34.96C36.54 0 37 .46 37 1.02v34.96c0 .56-.46 1.02-1.02 1.02ZM2.04 34.96h32.92V2.04H2.04v32.92Z"/><path fill="#34D8D8" d="M27.55 20.8c1.07-5.37 2.2-11.7 2.07-11.92-.22-.4-22.25 8.31-22.25 8.31l5.7 3s2.4 6.4 2.83 6.5c.3.08 3.44-2.73 3.44-2.73l6.53 4.18m-6.06-10.26-2.5 3.79-1.59-3.8 10.09-4.43-6 4.44Z"/><path fill="#fff" d="M25.87 29.16c-.19 0-.38-.05-.55-.16l-5.88-3.76-1.04.9c-1.73 1.45-2.16 1.7-2.75 1.55-.56-.14-.84-.63-1.3-1.62a152.32 152.32 0 0 1-2.1-5.15L6.88 18.1a1.02 1.02 0 0 1 .1-1.86c.06-.02 5.58-2.2 11.05-4.3 3.22-1.24 5.8-2.21 7.66-2.89a79.44 79.44 0 0 1 3.4-1.14c.66-.16 1.14 0 1.4.45.23.38.29.49-.45 4.73-.4 2.3-.96 5.25-1.5 7.9a1.02 1.02 0 0 1-2-.4c.87-4.33 1.59-8.34 1.9-10.35A627.25 627.25 0 0 0 9.8 17.33l3.73 1.96c.22.12.4.31.48.54.75 2 1.67 4.28 2.21 5.44.65-.5 1.61-1.33 2.43-2.07.34-.3.85-.34 1.24-.1l6.52 4.17a1.02 1.02 0 0 1-.55 1.89Zm-8.56-6.47a1.02 1.02 0 0 1-.95-.63l-1.58-3.8c-.22-.5.02-1.1.53-1.32L25.4 12.5a1.02 1.02 0 0 1 1.02 1.76l-5.86 4.33-2.4 3.64c-.19.29-.51.46-.85.46Zm-.26-4.28.46 1.1 1.2-1.83-1.66.73Z"/></g><defs><clipPath id="a"><path fill="#fff" d="M0 0h37v37H0z"/></clipPath></defs></svg>