<svg xmlns="http://www.w3.org/2000/svg" width="19" height="38" fill="none"><path fill="#fff" d="M3.63 15.03c3.81-7.78 8.2-12.62 10.85-11.69 1.08.38 2.05 1.77 2.12 1.88 1.73 2.51 1.15 5.7 1 6.52-.47 2.64-2.12 5.9-4.6 6.64-1.07.32-1.96.08-2.06.46-.18.7 3.07 1.3 4.34 3.99.92 1.97.8 5.07-.93 7.18a5.26 5.26 0 0 1-5.96 1.7c-2.5-1.04-3.38-4.74-3.9-4.48-.3.14-.15 1.25-.02 1.83.35 1.68 1.29 2.75 1.6 3.1a39.23 39.23 0 0 1 4 5.84 109.07 109.07 0 0 0-5.22-5.97c-.34-.33-.58-.63-1.08-1.22-.3-.37-.5-.63-.67-1.02a3.9 3.9 0 0 1-.28-.97c-.2-1.28-.34-2.54-.4-3-.14-1.16-.45-1.98-.69-2.64-.8-2.2-1.88-3.33-1.5-4.18l.37-.76c.25-.52.37-.8.37-.94.02-.57-.6-.67-.86-1.36-.28-.78 0-1.71.34-2.26.55-.88 1.34-.86 2.18-1.31.38-.2 1.39-.8 2.63-3.96C7.02 3.95 7.26 0 7.29 0c.02 0-.08 4.22-1.7 9.69a44.58 44.58 0 0 1-1.96 5.34Z"/></svg>