<svg xmlns="http://www.w3.org/2000/svg" width="37" height="37" fill="none"><g clip-path="url(#a)"><path fill="#fff" d="M4.4 10.1c-.57 0-1.03-.45-1.03-1.01v-4.7c0-.56.46-1.02 1.02-1.02h4.7a1.02 1.02 0 0 1 0 2.04H5.4V9.1c0 .56-.45 1.02-1.02 1.02ZM32.6 33.63h-4.69a1.02 1.02 0 0 1 0-2.04h3.68V27.9a1.02 1.02 0 0 1 2.04 0v4.7c0 .56-.46 1.02-1.02 1.02Z"/><path fill="#fff" d="M35.98 37H1.02C.46 37 0 36.54 0 35.98V1.02C0 .46.46 0 1.02 0h34.96C36.54 0 37 .46 37 1.02v34.96c0 .56-.46 1.02-1.02 1.02ZM2.04 34.96h32.92V2.04H2.04v32.92Z"/><path fill="#34D8D8" d="M25.49 19.68c.25.35.49.7.75 1.04.62.8 3.82 5.3 3.82 5.3h-5.38s-2.3-2.26-2.89-2.95c-.18-.21-.37-.41-.56-.6-.1-.12-.23-.14-.35-.14a.4.4 0 0 0-.38.28c-.07.17-.9 3.41-.9 3.41a49.3 49.3 0 0 1-3.94-.03s-2.99-4.4-3.96-5.96c-1.26-2.02-4.76-8.43-4.76-8.43h3.8s5.21 7.89 5.21 7.84v-5.91l-.01-.33c-.02-.24-.14-.4-.35-.44l-.3-.05c-.29-.04-.42-.19-.45-.54-.04-.53.17-.94.6-1.12.18-.08.37-.1.57-.1h3.88l.03 4v4.23l4.77-7.58h5.05l-2.26 3.92"/><path fill="#fff" d="M17.8 27.07c-.8 0-1.62-.01-2.21-.06-.31-.02-.6-.19-.77-.44a283.5 283.5 0 0 1-3.98-6 296.12 296.12 0 0 1-4.8-8.48 1.02 1.02 0 0 1 .9-1.51h3.79c.35 0 .67.17.86.45l3.34 5.05v-2.4c-.41-.12-1.02-.46-1.1-1.42a2.06 2.06 0 0 1 2.19-2.33h3.87c.56 0 1.01.45 1.02 1.01l.04 4.02v.67l2.87-4.58c.2-.3.52-.48.87-.48h5.04a1.02 1.02 0 0 1 .9 1.54s-1.2 2.05-2.27 3.92A1.02 1.02 0 1 1 26.6 15l1.38-2.39h-2.72l-4.46 7.1a1.02 1.02 0 0 1-1.89-.54v-4.22l-.02-2.99H16.3c.37.25.6.65.65 1.15v.02a3254.62 3254.62 0 0 1 .01 6.3c0 .45-.3.85-.73.98-.26.08-.77.12-1.2-.49a35.73 35.73 0 0 1-.77-1.15 1138.28 1138.28 0 0 1-4.08-6.16H8.67a224.7 224.7 0 0 0 3.9 6.87c.77 1.25 2.89 4.38 3.66 5.51.75.03 1.75.03 2.57.02.6-2.34.7-2.67.73-2.75.2-.58.71-.95 1.33-.96.55-.02.91.23 1.11.45l.1.1.5.55c.4.46 1.77 1.84 2.53 2.6H28.08a187.19 187.19 0 0 0-3.42-4.74 1.02 1.02 0 1 1 1.66-1.19l.23.34c.17.24.33.46.5.67.62.8 3.7 5.16 3.84 5.34a1.02 1.02 0 0 1-.83 1.62H24.68c-.27 0-.53-.1-.72-.3-.08-.08-1.98-1.96-2.76-2.81l-.61 2.34c-.11.44-.5.75-.96.77l-1.84.02Z"/></g><defs><clipPath id="a"><path fill="#fff" d="M0 0h37v37H0z"/></clipPath></defs></svg>