<svg xmlns="http://www.w3.org/2000/svg" width="72" height="72" fill="none"><g clip-path="url(#a)"><g fill="#fff"><path d="M8.54 19.67c-1.1 0-1.98-.89-1.98-1.99V8.54c0-1.1.89-1.98 1.98-1.98h9.14a1.99 1.99 0 0 1 0 3.97h-7.15v7.15c0 1.1-.89 2-1.99 2ZM63.46 65.44h-9.14a1.99 1.99 0 0 1 0-3.97h7.15v-7.15a1.99 1.99 0 0 1 3.97 0v9.14c0 1.1-.89 1.98-1.98 1.98Z"/><path d="M70.01 72H2C.89 72 0 71.11 0 70.01V2C0 .89.9 0 1.99 0H70C71.11 0 72 .89 72 1.99V70c0 1.1-.9 1.99-1.99 1.99ZM3.98 68.02h64.04V3.98H3.98v64.04Z"/></g><path fill="#34D8D8" d="M49.6 38.3c.48.67.95 1.37 1.46 2.02 1.2 1.54 7.43 10.32 7.43 10.32l-10.46.01s-4.48-4.42-5.62-5.75c-.35-.42-.73-.8-1.1-1.2-.2-.2-.44-.25-.68-.24a.77.77 0 0 0-.75.54c-.12.32-1.74 6.64-1.74 6.64-2 .06-5.67.09-7.66-.06 0 0-5.82-8.56-7.7-11.6-2.46-3.94-9.27-16.4-9.27-16.4 1.49 0 5.7 0 7.38-.02 0 0 10.15 15.36 10.15 15.26l-.01-11.5-.01-.63c-.04-.48-.27-.76-.68-.86l-.57-.1c-.58-.08-.82-.36-.88-1.05-.1-1.02.33-1.82 1.16-2.19.35-.15.72-.19 1.1-.18h7.55s.07 6.15.07 7.8v8.22l9.27-14.77h9.83l-4.4 7.64"/><path fill="#fff" d="M34.62 52.68c-1.53 0-3.14-.03-4.29-.12a1.99 1.99 0 0 1-1.5-.86c-.23-.35-5.86-8.63-7.75-11.67a576.3 576.3 0 0 1-9.31-16.5 1.99 1.99 0 0 1 1.74-2.95h7.38c.67 0 1.29.33 1.66.89 1.97 2.98 4.47 6.77 6.5 9.81v-4.67c-.8-.22-1.98-.88-2.15-2.75a4.01 4.01 0 0 1 4.27-4.54h7.53c1.1 0 1.98.88 1.99 1.97 0 .25.07 6.18.07 7.82v1.31l5.6-8.91c.36-.58 1-.93 1.69-.93h9.82a1.99 1.99 0 0 1 1.72 2.98l-4.4 7.63a1.99 1.99 0 1 1-3.45-1.99l2.68-4.64h-5.28l-8.68 13.82a1.99 1.99 0 0 1-3.68-1.05V29.1c0-1.03-.02-3.86-.05-5.8h-4.98A2.9 2.9 0 0 1 33 25.55c.02.28.02.54.02.77v11.5c0 .87-.57 1.65-1.41 1.9-.52.16-1.51.24-2.33-.94l-.34-.5-1.17-1.74a2252.69 2252.69 0 0 1-7.95-12l-2.94.01c2.16 3.93 5.92 10.7 7.58 13.37 1.5 2.42 5.62 8.51 7.12 10.72 1.46.06 3.41.06 5 .04 1.18-4.55 1.37-5.2 1.43-5.35a2.75 2.75 0 0 1 2.57-1.87 2.77 2.77 0 0 1 2.18.88l.2.2c.32.34.65.68.97 1.06.77.9 3.42 3.57 4.91 5.05H54.64a364.1 364.1 0 0 0-6.22-8.58l-.44-.63a1.99 1.99 0 1 1 3.23-2.32l.46.66c.33.46.63.9.95 1.3a631.51 631.51 0 0 1 7.49 10.4 1.99 1.99 0 0 1-1.62 3.14h-5.26l-5.2.01c-.53 0-1.03-.2-1.4-.57-.17-.17-3.87-3.82-5.38-5.49l-1.19 4.56a1.99 1.99 0 0 1-1.87 1.5c-.84.01-2.17.04-3.57.04Z"/></g><defs><clipPath id="a"><path fill="#fff" d="M0 0h72v72H0z"/></clipPath></defs></svg>