<svg xmlns="http://www.w3.org/2000/svg" width="72" height="72" fill="none"><g fill="#18BCBC" clip-path="url(#a)"><path d="m62.62 52.92-2.82-2.73a.83.83 0 0 0-1.16 0l-2.9 2.8a5 5 0 0 1-8.47-3.7v-9.12h-30.8a2.55 2.55 0 0 1-2.56-2.38 2.5 2.5 0 0 1 2.5-2.62h30.86v-3.54a15.27 15.27 0 0 1-.06-18.99H2.5a2.5 2.5 0 0 0-2.5 2.5V60.2a2.5 2.5 0 0 0 2.5 2.5h63.67a2.5 2.5 0 0 0 2.5-2.5v-6.46a5 5 0 0 1-6.05-.81ZM28.34 23.5h12a2.5 2.5 0 0 1 0 5h-12a2.5 2.5 0 1 1 0-5ZM42 51.83H26.67a2.5 2.5 0 0 1 0-5H42a2.5 2.5 0 1 1 0 5Z"/><path d="M49.77 34.1v15.23A2.5 2.5 0 0 0 54 51.2l4.64-4.49a.83.83 0 0 1 1.16 0l4.63 4.49a2.5 2.5 0 0 0 4.24-1.87V34.1a15.26 15.26 0 0 1-18.9 0Z"/><path d="M50.57 31.52a12.78 12.78 0 0 0 20.54-14.07c-3.58-9.2-15.16-10.7-21.31-4a12.78 12.78 0 0 0 .77 18.07Zm8.65-13.5a4.08 4.08 0 1 1 0 8.15 4.08 4.08 0 0 1 0-8.16Z"/></g><defs><clipPath id="a"><path fill="#fff" d="M0 0h72v72H0z"/></clipPath></defs></svg>