<svg xmlns="http://www.w3.org/2000/svg" width="136" height="177" fill="none"><path fill="#fff" d="M51.78 75.27a2.64 2.64 0 0 0 1.96-.84 2.84 2.84 0 0 0 .81-2.02 2.91 2.91 0 0 0-.81-2.01L42.83 59.15l10.9-11.26a2.86 2.86 0 0 0 .89-2.04 2.93 2.93 0 0 0-.81-2.07 2.76 2.76 0 0 0-2.01-.84 2.7 2.7 0 0 0-1.98.91l-10.9 11.27-11.3-11.65h2.6c2.99-.3 5.76-1.72 7.77-4.01a12.64 12.64 0 0 0 3.13-8.36c0-3.09-1.11-6.06-3.13-8.35a11.92 11.92 0 0 0-7.76-4.01H21c-.73 0-1.44.3-1.96.83a2.9 2.9 0 0 0-.8 2.02v38.19c0 .76.28 1.48.8 2.02a2.73 2.73 0 0 0 3.92 0 2.9 2.9 0 0 0 .8-2.02V47.5l11.28 11.64-9.93 10.14a2.84 2.84 0 0 0-.81 2.02 2.91 2.91 0 0 0 1.7 2.64c.35.15.7.22 1.07.21a2.64 2.64 0 0 0 1.96-.83l9.89-10.18 10.9 11.24a2.71 2.71 0 0 0 1.96.88ZM23.71 24.35h6.52c1.66.1 3.23.84 4.38 2.09a6.83 6.83 0 0 1 0 9.24 6.43 6.43 0 0 1-4.38 2.08H23.7V24.35Z"/><path fill="#fff" d="M124.25 82.61v-2.38h.57c.73 0 1.44-.3 1.96-.83a2.9 2.9 0 0 0 .8-2.02V64.33c0-.76-.29-1.49-.8-2.02a2.73 2.73 0 0 0-1.96-.84h-14.38V33.92c.02-.18.02-.37 0-.55a2.43 2.43 0 0 0-.24-.7v-.16a2.83 2.83 0 0 0-.44-.6L79.46.78a1.85 1.85 0 0 0-.6-.43l-.14-.1c-.2-.11-.43-.2-.66-.25a2.56 2.56 0 0 0-.54 0H2.77C2.07.01 1.38.3.87.8A2.9 2.9 0 0 0 0 2.69v139.38c0 .76.3 1.49.81 2.02.52.54 1.22.84 1.96.84H44v29.02c0 .75.3 1.48.81 2.01.52.54 1.22.84 1.96.84h39.21c.74 0 1.44-.3 1.96-.84a2.9 2.9 0 0 0 .81-2.01v-9.33h44.47c.74 0 1.44-.3 1.95-.84.52-.53.81-1.26.82-2.01V99.3c0-3.7-1.14-7.31-3.25-10.31-2.11-3-5.09-5.23-8.5-6.38ZM44.9 110.47V98.62h42.92v11.87l-42.92-.02Zm34.85 5.7h3.44v6.48H49.55v-6.47h30.2Zm8.97 21.87V116.2h1.85c.73 0 1.43-.31 1.95-.84.52-.54.81-1.26.82-2.02v-5.7h37.12v30.44l-41.74-.04Zm41.7-36.15H93.36v-6.13c0-.76-.29-1.48-.8-2.02a2.73 2.73 0 0 0-1.96-.83h-3.42a11.57 11.57 0 0 1 4.14-3.98 11.15 11.15 0 0 1 5.48-1.45h22.14a11.3 11.3 0 0 1 8.1 3.47 12.02 12.02 0 0 1 3.36 8.35l.04 2.59Zm-11.71-20.11H97.08v-1.55h21.63v1.55Zm3.34-7.25H93.83v-7.35h28.22v7.35Zm-72.5 53.84h33.67v30.45H49.55v-30.44Zm33.67 42.66H49.55v-6.47h33.67v6.47Zm47.24-12.17h-41.7v-15.1h41.7v15.1Zm-29.41-127.8H80.27V9.65l20.78 21.43ZM5.54 139.23V5.61h69.2v28.31c0 .76.29 1.48.8 2.02.53.53 1.23.84 1.96.84h27.4V61.5H90.98c-.73 0-1.43.3-1.95.84a2.9 2.9 0 0 0-.81 2.02v13.05c0 .76.29 1.48.8 2.02.53.53 1.23.83 1.96.83h.58v2.34c-2.4.8-4.6 2.14-6.44 3.92a17.65 17.65 0 0 0-4.2 6.38H42.18c-.74 0-1.44.3-1.96.83a2.9 2.9 0 0 0-.81 2.02v17.58c0 .76.29 1.49.8 2.02.53.54 1.23.84 1.97.84H44v23.02H5.54Z"/><path fill="#fff" d="M114.47 119.97h-3.8v-3.81c-.02-.32-.07-.63-.17-.93a2.8 2.8 0 0 0-1-1.39 2.73 2.73 0 0 0-3.56.32 2.9 2.9 0 0 0-.81 2.02v3.8h-3.8c-.74 0-1.44.3-1.96.84a2.9 2.9 0 0 0 0 4.04c.52.53 1.22.83 1.96.83h3.8v3.92c0 .67.24 1.31.66 1.82a2.7 2.7 0 0 0 3.5.6 2.83 2.83 0 0 0 1.37-2.42v-3.94h3.8c.74 0 1.44-.3 1.96-.83a2.9 2.9 0 0 0 0-4.04 2.72 2.72 0 0 0-1.95-.83Zm-54.66 26.5h3.8v3.8c0 .76.29 1.49.8 2.02a2.73 2.73 0 0 0 3.92 0 2.9 2.9 0 0 0 .81-2.01v-3.8h3.79a2.78 2.78 0 0 0 2.45-1.54 2.9 2.9 0 0 0-.48-3.33 2.73 2.73 0 0 0-1.95-.85h-3.8v-3.92c0-.75-.3-1.48-.82-2.02a2.73 2.73 0 0 0-3.91 0 2.9 2.9 0 0 0-.81 2.02v3.92h-3.8c-.74 0-1.44.3-1.96.84a2.9 2.9 0 0 0 .53 4.45c.43.27.92.42 1.43.42Z"/></svg>