<svg xmlns="http://www.w3.org/2000/svg" width="22" height="22" fill="none"><path fill="#18BCBC" d="M11 0a11 11 0 1 0 0 22 11 11 0 0 0 0-22Zm0 2.75c.9 0 1.76.25 2.59.52-.58.55-1.24 1.05-1.13 1.54.1.5 1.9.36 1.9 1.38 0 .74-1.16.96-.36 1.81.96.96-1.76 2.7-1.82 3.96-.08 2.28 2.31 2.67 4.21 2.67 1.16 0 1.46.55 1.38 1.21a8.27 8.27 0 0 1-6.8 3.44c-1.04 0-2-.25-2.91-.6.6-1.22-.77-3.61-2.07-4.38-.63-.63-1.98-.39-2.75-.69-.24-.74-.49-1.48-.52-2.3a.49.49 0 0 1 .44-.26c.52 0 1.24 1.05 1.63.94.49-.11-2.04-3.6-.86-4.29.55-.33 1.65 1.07 1.3-.44-.34-1.4.98-.77 1.81-1.13.71-.3 1.24-1.13.36-1.62a2.94 2.94 0 0 1-.6-.52A8.16 8.16 0 0 1 11 2.78v-.03Zm6.35 3c.5.6.88 1.26 1.21 1.98v.08c-.1.2-.3.3-.6.6-.77.78-.88-.57-1.21-.85-.36-.33-1.65.06-1.82-.35-.19-.5 1.38-1.16 2.42-1.46Z"/></svg>