<svg width="19" height="38" viewBox="0 0 19 38" fill="none" xmlns="http://www.w3.org/2000/svg">
<g id="Group">
<g id="&#208;&#161;&#208;&#187;&#208;&#190;&#208;&#185; 3">
<path id="Vector" d="M3.62716 15.0322C7.44097 7.24886 11.8314 2.40887 14.4821 3.3442C15.5568 3.72279 16.5266 5.11095 16.5987 5.21859C18.3254 7.73137 17.7487 10.9271 17.6013 11.7437C17.1262 14.3789 15.4781 17.6415 12.9946 18.3838C11.933 18.6993 11.0353 18.4618 10.9402 18.8366C10.7633 19.5456 14.007 20.1431 15.275 22.8304C16.2022 24.8013 16.0745 27.9042 14.3478 30.0124C12.7128 32.013 10.1768 32.4621 8.38786 31.7161C5.88464 30.6694 5.0131 26.9689 4.48231 27.2324C4.19726 27.3734 4.34142 28.4758 4.46593 29.0622C4.81979 30.7362 5.75686 31.8051 6.06157 32.1578C7.074 33.3381 8.38459 35.1197 10.0621 37.9999C6.72342 34.0284 5.38662 32.5438 4.85256 32.0278C4.5118 31.6975 4.26607 31.4006 3.7746 30.8067C3.47316 30.443 3.27002 30.1757 3.09964 29.786C2.91944 29.374 2.85719 29.0214 2.82442 28.821C2.61473 27.5442 2.48367 26.2822 2.42469 25.8145C2.27725 24.6639 1.97254 23.8399 1.73008 23.1756C0.930625 20.9894 -0.150609 19.8536 0.226185 19.0037C0.272056 18.9034 0.383454 18.7067 0.602977 18.2391C0.848712 17.7157 0.969943 17.4485 0.97322 17.3037C0.986326 16.7321 0.363793 16.6282 0.114782 15.9415C-0.166995 15.1621 0.118058 14.2268 0.452257 13.6849C1.0027 12.8015 1.78906 12.82 2.62783 12.3672C3.0079 12.1631 4.02033 11.5618 5.25884 8.41061C7.01502 3.94549 7.26731 -0.00370904 7.28697 2.61419e-06C7.30663 0.00371427 7.21162 4.22015 5.59632 9.68741C4.92136 11.9515 4.18743 13.7702 3.62716 15.0322Z" fill="white"/>
</g>
</g>
</svg>
