<svg xmlns="http://www.w3.org/2000/svg" width="16" height="32" fill="none"><path fill="#fff" d="M3.05 12.66C6.27 6.1 9.96 2.03 12.2 2.82c.9.31 1.72 1.48 1.78 1.57 1.45 2.12.97 4.81.84 5.5-.4 2.22-1.79 4.97-3.88 5.6-.9.26-1.65.06-1.73.37-.15.6 2.59 1.1 3.65 3.37a6.03 6.03 0 0 1-.78 6.04 4.43 4.43 0 0 1-5.02 1.44c-2.1-.88-2.84-4-3.29-3.78-.24.12-.11 1.05 0 1.54.29 1.41 1.08 2.31 1.33 2.61.86 1 1.96 2.5 3.37 4.92a91.85 91.85 0 0 0-4.38-5.03c-.3-.28-.5-.53-.91-1.03-.26-.3-.43-.53-.57-.86-.15-.34-.2-.64-.23-.81-.18-1.07-.29-2.14-.34-2.53-.12-.97-.38-1.66-.58-2.22C.78 17.68-.13 16.72.19 16l.32-.64c.2-.44.3-.67.31-.79.01-.48-.51-.57-.72-1.15-.24-.65 0-1.44.28-1.9.46-.74 1.13-.72 1.83-1.1.32-.18 1.18-.68 2.22-3.34C5.9 3.32 6.12 0 6.13 0c.02 0-.06 3.55-1.42 8.16a37.53 37.53 0 0 1-1.66 4.5Z"/></svg>