<svg xmlns="http://www.w3.org/2000/svg" width="197" height="106" fill="none"><path fill="#fff" d="M92.54 22.6c5.7-11.7 12.27-18.98 16.23-17.57 1.6.57 3.06 2.65 3.16 2.81 2.59 3.78 1.72 8.59 1.5 9.81-.7 3.96-3.17 8.87-6.88 9.99-1.59.47-2.93.11-3.08.68-.26 1.06 4.59 1.96 6.48 6a10.81 10.81 0 0 1-1.38 10.8c-2.44 3-6.24 3.68-8.91 2.56-3.74-1.58-5.05-7.14-5.84-6.74-.42.2-.2 1.87-.02 2.75.53 2.51 1.93 4.12 2.38 4.65a59.01 59.01 0 0 1 5.98 8.78c-4.99-5.97-6.99-8.2-7.78-8.97-.51-.5-.88-.95-1.62-1.84a6.1 6.1 0 0 1-1-1.53 5.88 5.88 0 0 1-.42-1.46c-.31-1.91-.5-3.81-.6-4.51-.21-1.73-.67-2.97-1.03-3.97-1.2-3.29-2.81-5-2.25-6.27l.56-1.15a5.3 5.3 0 0 0 .56-1.4c.02-.87-.92-1.02-1.29-2.06-.42-1.17 0-2.57.5-3.39.83-1.33 2-1.3 3.26-1.98.57-.3 2.08-1.21 3.93-5.95C97.61 5.94 97.98 0 98.01 0c.03 0-.1 6.34-2.52 14.56-1.01 3.4-2.1 6.14-2.95 8.04Z"/><g fill="#fff"><path d="M0 81.78c-.08-2.12.9-4.5 2.75-4.5.9 0 1.54.73 1.5 1.92-.05.93-.41 1.46-.9 2.05-.5.59-.95 1.12-1 2.05-.04 1.51 1.04 1.98 2.17 1.98 3.87 0 7.75-4.83 11.22-9.85a6.94 6.94 0 0 0-1.99-.26c-1.26 0-2.56.4-4.1 1.32-.22.13-.4.33-.45.13-.04-.13.14-.33.32-.53 1.21-1.25 2.84-2.18 4.42-2.18.76 0 1.53.07 2.52.33 2.07-3.37 4.1-7.6 4.46-11.5.31-3.5-.9-5.02-2.7-5.02-2.03 0-4.47 1.32-6.13 3.24a14.11 14.11 0 0 0-3.3 7.53c-.17 2.05.28 3.7 1.77 3.9 1.53.2 3.2-1.65 4.32-3.44.9-1.45 1.58-3.7 1.67-4.95a6.8 6.8 0 0 0-.05-1.65c-.04-.33-.14-.47-.04-.53.09-.07.14 0 .27.26.09.2.4 1.05.36 2.25a11.27 11.27 0 0 1-1.71 5.28c-1.04 1.72-3.11 3.5-4.92 3.3-1.8-.2-2.7-1.91-2.52-4.56.18-2.37 1.58-5.41 3.74-7.79 1.94-2.18 4.24-3.44 6.62-3.44 2.57 0 5.41 1.46 5 6.94-.3 3.44-2.43 7.67-4.5 10.9.27.07.81.2 1.4.2 1.21 0 2.07-.13 3.1-1.05.27-.26.54-.6.64-.4.09.27-.23.6-.5.93a4.98 4.98 0 0 1-3.87 1.72c-.54 0-1.08-.07-1.58-.2-3.38 4.83-9.01 9.71-13.6 9.71-2.18 0-4.2-.98-4.38-4.1ZM25.24 79.05c-1.21 1.38-2.39 3.34-2.52 4.57-.1.77.31 1.18 1.04 1.18.58 0 2.16-.3 4.14-1.84.86-.67 1.98-1.75 2.7-2.47.27-.26.41-.3.5-.2.09.15-.05.35-.36.66-.6.62-1.85 1.85-2.66 2.47-1.58 1.23-3.7 2.2-5.23 2.2-1.71 0-2.52-.76-2.43-2.15.08-1.59 1.3-3.38 2.39-4.36 1.35-1.33 4.1-3.03 5.77-2.72 1.03.2 1.4.97 1.21 1.95-.18.98-.95 1.75-1.53 1.75-.77 0-.77-.72-.37-1.5.5-.97.68-1.58.14-1.69-.5-.11-1.53.66-2.79 2.15Z"/><path d="M36.87 77.3A63.14 63.14 0 0 0 33 82.95l.04.05c1.08-1.03 2.56-2.52 4.14-3.85 1.58-1.33 3.56-2.77 4.87-2.77 1.13 0 1.58.61 1.44 1.49-.14.82-.99 1.9-1.76 2.92a47.51 47.51 0 0 0-1.62 2.26l.04.05a77.78 77.78 0 0 1 4.24-3.95c1.58-1.33 3.56-2.77 4.91-2.77 1 0 1.5.56 1.4 1.38-.14.93-1.08 2.1-1.8 3.13-.72.98-1.22 1.8-1.5 2.26-.35.62-.35.98-.17 1.13.22.2.72 0 1.08-.2.54-.31 1.17-.73 2.16-1.6.77-.67 1.67-1.59 2.17-2.1.27-.26.45-.46.59-.3.09.1-.05.3-.37.66-.4.46-1.75 1.85-2.7 2.67-.9.77-2.66 2.05-4.05 2.05-.9 0-1.4-.46-1.36-1.33.05-1.19 1.13-2.52 1.9-3.6.67-.92 1.3-1.74 1.88-2.51.19-.26.27-.57.05-.72-.23-.16-.72.05-1.17.3a22.2 22.2 0 0 0-3.52 2.62c-1.98 1.75-3.06 2.93-5.04 4.67-.41.36-.72.47-1.17.47-.72 0-.86-.16-.6-.82a25.68 25.68 0 0 1 2.4-4.01c.76-1.08 1.58-2 1.89-2.52.18-.25.22-.61-.05-.72-.26-.1-.63.05-1.12.31-.81.46-2.17 1.38-3.52 2.62-1.98 1.74-3.06 2.92-5.04 4.67-.41.35-.68.46-1.22.46-.59 0-.9-.1-.54-.82.45-.98 1.17-2.21 1.99-3.44a32.83 32.83 0 0 1 2.43-3.28c-.31.15-1.13.82-1.76 1.38a34.8 34.8 0 0 0-1.84 1.8c-.41.4-.6.46-.68.35-.09-.1.04-.3.18-.46.63-.67 2.4-2.36 3.56-3.29 1.17-.92 1.76-1.07 2.62-1.12.89-.04 1.03.11.49.83Z"/><path d="M59.4 82.95c.86-.67 1.89-1.59 2.75-2.47.27-.25.4-.3.5-.2.08.15-.1.36-.37.67-.59.61-2.03 1.95-2.84 2.56-1.9 1.44-3.56 2.1-5.1 2.1-1.66 0-2.43-.71-2.39-2.05.05-1.02.45-1.95 1.36-3.18l-.05-.05-.9.93c-.22.2-.36.26-.45.16-.09-.16.09-.36.27-.57a17.73 17.73 0 0 1 3.87-3.08c1.31-.77 2.66-1.44 3.88-1.44 1.04 0 1.4.72 1.35 1.39-.09 1.33-1.53 2.36-2.89 3.13-1.3.72-2.84 1.33-3.87 1.64-.18.41-.27.87-.27 1.18 0 .77.36 1.18 1.04 1.18.6 0 2.13-.36 4.1-1.9Zm-1.53-2.57c1.12-.87 1.8-1.95 1.84-2.66.05-.47-.13-.72-.54-.72-.4 0-1.08.51-1.98 1.49a20.1 20.1 0 0 0-2.39 3.43 10 10 0 0 0 3.07-1.54Z"/><path d="M67.6 76.38c.85 0 1.12.56 1.12 1.12 0 .62-.36 1.29-.94 2.21-.68 1.03-1.62 2.41-2.12 3.24l.05.05c1.08-1.03 2.56-2.52 4.14-3.85 1.58-1.33 3.56-2.77 4.87-2.77 1.13 0 1.58.61 1.44 1.49-.14.82-.99 1.9-1.76 2.92a44.25 44.25 0 0 0-1.62 2.26l.04.05a77.79 77.79 0 0 1 4.24-3.95c1.58-1.33 3.56-2.77 4.91-2.77 1 0 1.5.56 1.4 1.38-.14.93-1.08 2.1-1.8 3.13-.72.98-1.22 1.8-1.5 2.26-.35.62-.35.98-.17 1.13.22.2.72 0 1.08-.2.54-.31 1.17-.73 2.16-1.6.77-.67 1.67-1.59 2.17-2.1.27-.26.45-.46.59-.3.08.1-.05.3-.37.66-.4.46-1.75 1.85-2.7 2.67-.9.77-2.66 2.05-4.06 2.05-.9 0-1.4-.46-1.35-1.33.05-1.19 1.13-2.52 1.9-3.6l1.88-2.51c.19-.26.27-.57.05-.72-.23-.16-.72.05-1.17.3a22.2 22.2 0 0 0-3.52 2.62c-1.98 1.75-3.07 2.93-5.04 4.67-.41.36-.72.47-1.17.47-.72 0-.86-.16-.6-.82a25.67 25.67 0 0 1 2.4-4.01c.76-1.08 1.57-2 1.89-2.52.18-.25.22-.61-.05-.72-.27-.1-.63.05-1.12.31-.82.46-2.17 1.38-3.52 2.62-1.98 1.74-3.06 2.92-5.04 4.67-.41.35-.68.46-1.17.46-.64 0-.95-.1-.6-.82.32-.67 1.32-2.36 2-3.44.67-1.07 1.3-1.95 1.8-2.66.3-.47.4-.72.3-.87-.13-.21-.4-.1-.67.05-.54.3-1.21.87-1.76 1.38l-1.94 1.95c-.45.47-.63.62-.76.47-.09-.16.14-.42.68-.98.53-.57 1.53-1.64 2.34-2.36 1.22-1.07 2.12-1.7 3.07-1.7Z"/><path d="M84.9 84.03c.05-.72.45-1.5.86-2.1.9-1.39 1.8-2.62 3.2-4.11-.32.15-1.27.92-1.94 1.54-.68.61-1.17 1.07-1.62 1.54-.37.35-.54.51-.68.41-.09-.1 0-.3.5-.82.5-.51 2.11-2.05 3.2-2.87 1.17-.93 1.75-1.13 2.61-1.13.95 0 1.04.16.5.82-.6.72-1.45 1.9-2.35 3.18a21.29 21.29 0 0 0-1.66 2.77c-.18.42-.18.77-.05.93.19.2.6.16 1.04-.1 1-.62 1.99-1.44 3.38-2.67 2.17-1.9 3.43-3.18 4.87-4.46.36-.3.63-.57 1.3-.57.77 0 1.22.1.68.82-.8 1.13-1.48 1.96-2.39 3.3-.76 1.07-1.35 2-1.66 2.6-.27.52-.31.98-.14 1.14.23.2.59.1 1.04-.16.45-.26 1.3-.87 2.03-1.54.9-.82 1.66-1.6 2.16-2.1.27-.31.54-.52.64-.36.13.1-.23.51-.37.67-.54.61-1.66 1.7-2.75 2.66-.8.72-2.39 2.06-3.87 2.06-.9 0-1.4-.47-1.4-1.23 0-.72.32-1.44.72-2.1.5-.83 1.36-1.8 2.12-2.68l-.04-.05-3.6 3.24c-1.86 1.6-3.48 2.82-4.83 2.82-.96-.01-1.54-.53-1.5-1.45Z"/><path d="M100.13 84.54c-.05-.5.4-.79.82-1.54.37-.64.78-1.33 1.16-1.9l1.8-2.66c.32-.47.41-.72.32-.87-.14-.21-.4-.1-.68.05-.53.3-1.21.87-1.75 1.38l-1.94 1.95c-.45.47-.64.62-.77.47-.09-.16.14-.42.68-.98 1.1-1.16 1.91-2 2.34-2.36 1.41-1.17 2.28-2.57 3-3.71 1.06-1.72.85-2.2 2.24-5.76 1.02-2.62 2.49-5.83 2.8-5.69.19.08-.2 1.16-.39 3.26-.25 3.06.34 3.72-.16 5.12a5.14 5.14 0 0 1-3.6 3.07c-.04-.08 2.6-1.21 3.15-3.71.23-1.07.06-2.33-.28-2.43-.43-.13-1.31 1.56-1.63 3.26-.1.55-.04.52-.14 1.63a18.82 18.82 0 0 1-.8 4.4c-.38 1.17-.8 1.98-.94 2.2-1.31 1.96-2.03 3.09-3.3 5.04-.61.95-1.19.67-1.35.61-.3-.12-.54-.47-.58-.83Zm6.45-1.03c.04-1.38.67-2.26.63-2.77-1.4.05-1.9-.3-1.85-.56.05-.3.45-.42.9-.36s1.04.2 1.31.41c.81 0 1.76-.97 2.34-1.7.86-1.02 1.72-2.2 2.93-2.2 1.08 0 1.49.92 1.3 1.8-.17.86-.85 1.58-1.39 1.58-.67 0-.9-.66-.5-1.43.5-.93.5-1.29.19-1.34-.63-.1-1.4 1.03-2.25 2-.82.93-1.54 1.54-2.17 1.64.36.26.95.83.81 2.31-.08.88-.13 1.44.41 1.54.45.1 1.04-.3 1.53-.6.41-.27 1.17-.83 1.9-1.5.94-.87 1.39-1.33 1.98-1.95.22-.2.45-.51.63-.36.14.16-.27.56-.45.77-.59.62-1.53 1.64-2.57 2.52-.94.82-2.61 2.15-4.05 2.15-.87 0-1.68-.5-1.63-1.95Z"/><path d="M126 76.38c.94-.05 1.03.2.58.82-.58.77-1.57 2.05-2.52 3.38-.59.82-1.17 1.7-1.58 2.52-.3.61-.3 1.03-.13 1.18.22.21.67 0 1.04-.2.45-.26 1.3-.93 2.02-1.6.95-.86 1.67-1.58 2.17-2.1.27-.25.5-.5.63-.35.14.15-.09.41-.59.92-.59.62-1.66 1.7-2.52 2.47-.9.82-2.39 2.05-3.87 2.05-.86 0-1.27-.46-1.31-1.07-.05-.57.22-1.29.63-1.85l-.04-.05c-1.18 1.18-3.25 2.87-4.96 2.98-.99.05-2.03-.41-1.85-2.06.1-.77.45-1.59 1.27-2.66l-.05-.05-.59.61c-.18.16-.3.26-.4.16-.09-.16.13-.47.63-.98.14-.16.9-.87 1.35-1.23.45-.36 1.22-.93 2.07-1.44 1.76-1.03 3.34-1.64 4.51-1.44.9.16 1.21 1.08.95 1.95 1.07-1.3 1.84-1.96 2.56-1.96Zm-7.84 3.75c-1.85 2.05-2.62 3.38-2.53 4.05.05.36.27.52.59.52.86 0 2.57-1.13 3.79-2.41 1.44-1.44 3.06-3.65 3.1-4.47.05-.67-.3-.92-.8-.92-.9 0-2.53 1.38-4.16 3.23ZM136.36 81.82c0 .2-.04.25-.09.25-.09 0-.09 0-.18-.15-.31-.57-.81-.82-1.8-.82-1.17 0-1.9.46-3.38.46-.5 0-1.3-.26-1.58-.67-.04-.1-.04-.2 0-.26.05-.05.14-.05.18 0 .18.1.41.21.72.21.82 0 1.58-.51 2.26-.98a3.12 3.12 0 0 1 1.84-.72c1.49.01 2.07 1.4 2.03 2.68ZM138.84 82.95c0-1.64 1.08-2.67 2.12-2.72.94-.05 1.53.51 1.53 1.38 0 .67-.27 1.13-.86 1.6-.4.3-1.04.66-1.04 1.17 0 .77.68 1.19 2.17 1.19 3.6 0 7.84-2.67 12.57-6.68 4.14-3.43 8.11-8.05 12.57-12.78l1.4-1.44c.4-.46 1.17-.97 1.62-.92.68.1.54.5-.14 1.33-.4.51-.76.93-1.08 1.33-2.39 3.44-5.54 10.48-7.75 13.81 1.76-1.8 5.37-5.39 8.47-8.26 2.48-2.31 4.64-4.2 6.99-6.11 2.2-1.8 3.6-2.41 4.73-2.41a1.8 1.8 0 0 1 1.26.46c.03.03.48.47.58 1.06.12.69-.31 1.29-.49 1.53a3.34 3.34 0 0 1-2.97 1.28c-.01-.06 1.12-.13 2.07-1.15.28-.3.77-.82.68-1.4-.09-.53-.6-.9-.96-1-1.19-.38-2.56 1.37-3.38 2.3a107.5 107.5 0 0 0-6.67 8.57c-2.34 3.34-4.77 6.98-4.82 8.89 0 .41.23.67.6.67.71 0 1.97-.77 3.42-2.1.9-.83 1.66-1.6 2.16-2.11.22-.2.4-.41.54-.26.09.16-.09.36-.4.72-.6.62-1.4 1.44-2.53 2.47-.9.82-2.44 2-3.7 2.05-1.12.05-1.98-.41-2.02-1.9-.05-1.84 1.4-4.25 3.33-7.08a68.34 68.34 0 0 1 7.48-9.08h-.04a173.43 173.43 0 0 0-9.06 8.36 278.46 278.46 0 0 0-8.6 8.83c-.54.56-.77.97-1.17.67-.37-.36-.14-.98.13-1.39 2.62-4.15 7.13-12.78 9.55-16.22h-.04c-1.66 1.85-7.52 8.47-11.53 11.8-4.47 3.8-8.84 6.73-12.75 6.73-2.08 0-3.97-.67-3.97-3.19Z"/><path d="M180.43 82.95c.85-.67 1.89-1.59 2.75-2.47.26-.25.4-.3.5-.2.08.15-.1.36-.37.67a32.4 32.4 0 0 1-2.84 2.56c-1.9 1.44-3.56 2.1-5.1 2.1-1.66 0-2.43-.71-2.39-2.05.05-1.02.45-1.95 1.36-3.18l-.05-.05-.9.93c-.23.2-.36.26-.45.16-.09-.16.09-.36.27-.57a17.63 17.63 0 0 1 3.87-3.08c1.31-.77 2.66-1.44 3.88-1.44 1.04 0 1.4.72 1.35 1.39-.09 1.33-1.53 2.36-2.89 3.13-1.3.72-2.84 1.33-3.87 1.64-.18.41-.27.87-.27 1.18 0 .77.36 1.18 1.04 1.18.6 0 2.13-.36 4.1-1.9Zm-1.53-2.57c1.13-.87 1.8-1.95 1.85-2.66.04-.47-.14-.72-.54-.72s-1.09.51-1.99 1.49c-.72.77-1.84 2.4-2.39 3.43a10 10 0 0 0 3.07-1.54Z"/><path d="M191.11 76.38c.9.15 1.13.92 1.04 1.74h.04c1-1.28 1.5-1.74 2.17-1.74.85 0 1.08.2.58.82-.8 1.08-1.44 2.05-2.34 3.39-.76 1.12-2.34 3.64-3.69 5.7 1-.68 2.97-2.06 4.33-3.24.98-.87 1.84-1.64 2.79-2.62.22-.25.45-.35.54-.25.13.15-.23.51-.45.77-.68.72-1.63 1.59-2.66 2.51a47.35 47.35 0 0 1-4.96 3.65 112.77 112.77 0 0 1-6.17 9.19c-3.02 3.8-6.62 7.03-9.28 8.62a6.27 6.27 0 0 1-3.11 1.08c-1.13 0-2.34-.41-2.12-2.15.36-3.08 5.59-7.4 9.1-10.01 4.15-3.03 6.04-4.16 9.15-6.37.81-1.28 2.3-3.6 3.02-4.83l-.05-.05c-1.21 1.19-3.2 2.78-4.86 2.88-1 .05-1.99-.36-1.85-2.06.09-.77.45-1.59 1.26-2.66l-.04-.05-.59.61c-.18.16-.31.26-.4.16-.1-.16.22-.57.71-1.08a16.23 16.23 0 0 1 3.34-2.57c1.62-.98 3.33-1.65 4.5-1.44Zm-14.46 18.38c-3.79 2.87-7.13 6.41-7.3 9.08-.05.77.22 1.23.67 1.38.72.26 2.03-.25 2.84-.82 2.03-1.38 4.7-4.05 8.25-9.24 1.8-2.61 3.65-5.39 4.55-6.82-2.66 2-4.83 3.23-9.01 6.42Zm10.13-14.63c-1.84 2.05-2.61 3.38-2.52 4.05.05.36.27.52.6.52.85 0 2.56-1.13 3.78-2.41 1.44-1.44 3.06-3.65 3.1-4.47.05-.67-.3-.92-.8-.92-.91 0-2.53 1.38-4.16 3.23Z"/></g></svg>