<svg xmlns="http://www.w3.org/2000/svg" width="151" height="155" fill="none"><g fill="#fff"><path d="M9.42 112.16a2.31 2.31 0 0 0 1.98-1.13 2.47 2.47 0 0 0 .14-2.33A74.91 74.91 0 0 1 4.7 77.5c0-5.17 7.29-10.63 19.78-14.8-.32 2.42-.56 4.88-.72 7.38a2.5 2.5 0 0 0 .58 1.75 2.36 2.36 0 0 0 2.53.7 2.3 2.3 0 0 0 1.35-1.22c.14-.28.22-.6.23-.92.2-3.14.59-6.2 1.05-9.2 6.6-1.83 14.37-3.3 23.04-4.27-.16 2-.3 3.99-.4 5.99-.04.64.17 1.27.59 1.74.41.48 1 .77 1.62.8l.13.01c.6 0 1.18-.23 1.62-.66.43-.42.7-1 .73-1.62.13-2.3.28-4.53.46-6.7a210.47 210.47 0 0 1 35.9 0 243 243 0 0 1 .44 6.26 2.43 2.43 0 0 0 .77 1.68 2.29 2.29 0 0 0 1.72.6c.62-.04 1.2-.33 1.62-.81.41-.48.62-1.11.59-1.75-.1-1.85-.24-3.7-.38-5.54a149 149 0 0 1 23.03 4.26c.46 3.01.84 6.07 1.05 9.21.03.61.3 1.19.73 1.61.43.42 1 .66 1.6.66h.16c.62-.05 1.2-.35 1.61-.83.42-.48.62-1.11.58-1.75-.16-2.47-.4-4.93-.72-7.38 12.5 4.17 19.78 9.63 19.78 14.8 0 10.7-2.36 21.48-6.8 31.15a2.48 2.48 0 0 0 .32 2.72 2.35 2.35 0 0 0 1.66.81 2.3 2.3 0 0 0 1.72-.67c.23-.22.41-.5.54-.8a79.97 79.97 0 0 0 7.26-33.2c0-42.74-33.75-77.51-75.24-77.51C33.75 0 0 34.77 0 77.5a79.9 79.9 0 0 0 7.3 33.28 2.3 2.3 0 0 0 2.13 1.38Zm43.56-60.08c-8.02.87-15.69 2.2-22.6 3.96a93.37 93.37 0 0 1 5.97-18.91 88.28 88.28 0 0 1 19.92-6.24 190.18 190.18 0 0 0-3.3 21.19Zm22.25-1.22c-5.85 0-11.72.28-17.48.77.84-8.19 2.06-15.41 3.5-21.6 9.28-1.3 18.68-1.3 27.96 0a173.42 173.42 0 0 1 3.51 21.6c-5.82-.5-11.65-.76-17.49-.77Zm22.26 1.22c-.7-7.13-1.8-14.2-3.3-21.19a88.33 88.33 0 0 1 19.93 6.24 93.35 93.35 0 0 1 5.96 18.91 164.02 164.02 0 0 0-22.6-3.96Zm27.64 5.38a101.6 101.6 0 0 0-4.65-17.07c11.4 6.56 19.68 15.55 23.26 25.8-4.46-3.47-10.92-6.38-18.61-8.73Zm16.01-5.6c-5.72-7.35-13.81-13.64-23.54-18.36-4.68-9.99-10.86-18.27-18.02-24.1A70.54 70.54 0 0 1 124.82 26a73.15 73.15 0 0 1 16.32 25.86Zm-30.26-21.27a96.16 96.16 0 0 0-17.9-4.82c-2.08-7.94-4.71-14.63-7.89-19.21 10.13 3.46 19.16 12.08 25.79 24.03ZM75.23 4.84c4.28 0 9.04 7.2 12.7 20.2-4.21-.53-8.45-.8-12.7-.82-4.33 0-8.56.32-12.7.82 3.67-13 8.42-20.2 12.7-20.2ZM57.5 25.78a95.62 95.62 0 0 0-17.9 4.81c6.63-11.94 15.65-20.56 25.78-24.02-3.18 4.58-5.8 11.26-7.88 19.2ZM50.89 9.4c-7.16 5.83-13.34 14.1-18.01 24.1-9.74 4.72-17.83 11.01-23.56 18.36a73.17 73.17 0 0 1 16.33-25.87A70.57 70.57 0 0 1 50.89 9.4Zm-20.9 30.99a101.2 101.2 0 0 0-4.65 17.07c-7.68 2.35-14.15 5.26-18.62 8.73C10.32 55.95 18.6 46.95 30 40.39ZM11.9 138.02a2.36 2.36 0 0 0-1.64-.79 2.3 2.3 0 0 0-1.69.63 2.41 2.41 0 0 0-.76 1.68 2.49 2.49 0 0 0 .61 1.74l1.7 1.92a6.1 6.1 0 0 1 1.53 4.05v5.33c0 .64.24 1.26.69 1.71a2.32 2.32 0 0 0 3.32 0c.44-.45.69-1.07.69-1.71v-5.33a11 11 0 0 0-2.75-7.31l-1.7-1.92ZM53.29 136.07a2.46 2.46 0 0 0-.16 3.42 6.92 6.92 0 0 1 1.73 4.6v8.49c0 .64.25 1.26.7 1.71a2.32 2.32 0 0 0 3.32 0c.44-.45.69-1.07.69-1.71v-8.5c0-2.91-1.05-5.7-2.96-7.85a2.34 2.34 0 0 0-1.63-.8 2.29 2.29 0 0 0-1.69.64ZM93.86 136.23a11.82 11.82 0 0 0-2.96 7.85v8.5c0 .64.25 1.26.69 1.71a2.32 2.32 0 0 0 3.33 0c.44-.45.68-1.07.68-1.71v-8.5c0-1.7.62-3.33 1.73-4.59a2.43 2.43 0 0 0 .62-1.74 2.47 2.47 0 0 0-.77-1.68 2.34 2.34 0 0 0-1.69-.64 2.28 2.28 0 0 0-1.63.8ZM138.58 138.02l-1.71 1.92a11 11 0 0 0-2.75 7.3v5.34c0 .64.25 1.26.7 1.71a2.32 2.32 0 0 0 3.32 0c.44-.45.69-1.07.69-1.71v-5.33c0-1.5.54-2.94 1.51-4.05l1.7-1.92a2.44 2.44 0 0 0 .67-1.76 2.48 2.48 0 0 0-.76-1.72 2.33 2.33 0 0 0-1.73-.63 2.3 2.3 0 0 0-1.64.85Z"/><path d="m142.84 126.25-11.18-4.32v-5.58c1.47-1.35 2.65-3 3.46-4.86.81-1.85 1.23-3.86 1.24-5.89v-5.66l2.73-10.32a8.42 8.42 0 0 0-1.34-6.24 7.96 7.96 0 0 0-5.24-3.4l-13.4-2.3c-1.98-.34-4 .1-5.66 1.23a8.13 8.13 0 0 0-3.33 4.88 6.93 6.93 0 0 0-3.29 2.32 7.4 7.4 0 0 0-1.3 6.31l2.62 7.57v5.62c0 4.28 1.84 8.09 4.7 10.75v5.57l-11.18 4.32c-.18.08-.34.19-.53.27L97.22 124a8 8 0 0 0 3.61-3.56 8.33 8.33 0 0 0 .82-5.08c-1.14-7.3-1.71-14.7-1.72-22.1v-8.02c0-6.7-2.59-13.12-7.19-17.86a24.2 24.2 0 0 0-17.33-7.4 24.2 24.2 0 0 0-17.34 7.4 25.69 25.69 0 0 0-7.19 17.86v8.02c0 7.37-.58 14.81-1.71 22.1a8.24 8.24 0 0 0 .75 5 7.9 7.9 0 0 0 3.5 3.53l-4.09 2.63c-.18-.08-.34-.2-.53-.27l-11.18-4.32v-5.58c1.47-1.35 2.65-3 3.46-4.86.8-1.85 1.23-3.86 1.23-5.89v-5.66l2.74-10.32a8.43 8.43 0 0 0-1.34-6.24 7.96 7.96 0 0 0-5.25-3.4l-13.4-2.3c-1.97-.34-3.99.1-5.65 1.24a8.15 8.15 0 0 0-3.33 4.87 6.92 6.92 0 0 0-3.29 2.32 7.4 7.4 0 0 0-1.3 6.31L14.1 100v5.62c0 4.28 1.83 8.09 4.7 10.75v5.57l-11.18 4.32a11.86 11.86 0 0 0-5.53 4.45 12.41 12.41 0 0 0-2.1 6.89v14.99c0 .64.25 1.26.69 1.71a2.31 2.31 0 0 0 3.32 0c.44-.45.7-1.07.7-1.71v-15a7.3 7.3 0 0 1 4.57-6.8l4.7-1.8a18.87 18.87 0 0 0 6.4 4.97 18.35 18.35 0 0 0 7.83 1.77c2.7 0 5.38-.61 7.84-1.78a18.87 18.87 0 0 0 6.4-4.97l2.9 1.12c-1.94 2.43-3.01 5.47-3.03 8.6v13.89c0 .64.25 1.26.69 1.71a2.31 2.31 0 0 0 3.32 0c.44-.45.7-1.07.7-1.71V138.7a9 9 0 0 1 4.1-7.64l10.46-6.71a18.74 18.74 0 0 0 13.64 6.15c5.18 0 10.08-2.33 13.63-6.14l10.46 6.7a9 9 0 0 1 4.13 7.64v13.88c0 .64.24 1.26.69 1.71a2.31 2.31 0 0 0 3.32 0c.44-.45.69-1.07.69-1.71V138.7c0-3.22-1.14-6.2-3.03-8.61l2.9-1.12a18.86 18.86 0 0 0 6.4 4.98 18.35 18.35 0 0 0 7.83 1.77c2.71 0 5.38-.61 7.84-1.78a18.86 18.86 0 0 0 6.4-4.97l4.7 1.81a7.3 7.3 0 0 1 4.58 6.8v15c0 .64.24 1.26.68 1.71a2.31 2.31 0 0 0 3.33 0c.44-.45.69-1.07.69-1.71v-15c-.01-2.46-.74-4.86-2.1-6.88a11.87 11.87 0 0 0-5.53-4.45Zm-125.75-32L16 91.1a2.39 2.39 0 0 1 .45-1.94 2.26 2.26 0 0 1 1.75-.86c1.3 0 2.35-1.24 2.35-2.57a3.42 3.42 0 0 1 1.15-2.52 3.21 3.21 0 0 1 2.6-.75l13.4 2.3a3.24 3.24 0 0 1 2.18 1.42c.52.75.71 1.68.6 2.38l-1.42 5.35-.4-.6a2.37 2.37 0 0 0-1.95-1.06H19.65a2.3 2.3 0 0 0-1.96 1.08l-.6.92Zm1.71 11.36v-5.28l2.11-3.25h14.55l2.15 3.25v5.28c0 1.49-.34 2.96-1 4.3a9.58 9.58 0 0 1-2.75 3.39h-.01a9.42 9.42 0 0 1-2.67 1.45l-.08.02c-1.87.63-3.89.64-5.76.01l-.1-.03a9.26 9.26 0 0 1-2.67-1.44h-.01a9.6 9.6 0 0 1-2.76-3.4 9.9 9.9 0 0 1-1-4.3Zm9.41 25.27c-3.48-.01-6.84-1.35-9.43-3.76l3.2-1.24a2.47 2.47 0 0 0 1.52-2.27v-4.32c.3.1.6.15.9.24.42.12.82.26 1.25.34.63.12 1.28.17 1.93.2.21 0 .41.07.63.07.2 0 .4-.06.6-.07.66-.03 1.32-.08 1.96-.2.43-.08.83-.22 1.25-.34.3-.09.6-.14.9-.25v4.33c0 .5.15.97.42 1.38.27.4.66.71 1.1.89l3.2 1.24a13.89 13.89 0 0 1-9.43 3.75Zm36.35-14.14-5 3.2h-2.6a3.13 3.13 0 0 1-2.43-1.16 3.33 3.33 0 0 1-.72-2.65 149 149 0 0 0 1.77-22.87v-8.02c0-11.26 8.9-20.42 19.82-20.42 10.94 0 19.83 9.16 19.83 20.42v3.47a11.85 11.85 0 0 0-3.54-2.16 2.22 2.22 0 0 0-.83-.28c-1.01-.33-2.07-.5-3.14-.52l-1.06-.03c-6.2 0-12.1-2.14-17.15-6.13-.3-.4-.72-.7-1.2-.83a2.27 2.27 0 0 0-1.44.05 14.52 14.52 0 0 0-6.49 5.07 15.18 15.18 0 0 0-2.8 7.87c-.02.13-.08.25-.08.38v3.66c0 5.92 2.8 11.13 7.06 14.46v6.49Zm23.63-26.09v5.13c0 7.37-5.83 13.39-12.99 13.39s-13-6.01-13-13.4v-3.05c0-3.72 2.1-7.04 5.24-8.75a31.85 31.85 0 0 0 19.14 6.59l1.07.03c.19 0 .36.05.54.06Zm-12.96 35c-3.57 0-6.97-1.46-9.58-3.9l2.5-1.61a2.43 2.43 0 0 0 1.06-2.06h.05v-5.2A17 17 0 0 0 75.2 114c2.1 0 4.1-.44 5.99-1.14v5.22h.04c0 .8.36 1.6 1.07 2.06l2.52 1.6a14.07 14.07 0 0 1-9.59 3.9Zm21.05-6.87a3.2 3.2 0 0 1-2.44 1.16H90.9l-5-3.2v-6.53a18.04 18.04 0 0 0 5.15-6.37 18.59 18.59 0 0 0 1.86-8.06v-2.74a9.35 9.35 0 0 1 2.33 6.27c0 .4.11.76.28 1.09.25 5.27.68 10.54 1.5 15.73a3.41 3.41 0 0 1-.73 2.66Zm14.86-24.53-1.1-3.15a2.39 2.39 0 0 1 .45-1.94 2.26 2.26 0 0 1 1.75-.86c1.3 0 2.35-1.24 2.35-2.57a3.43 3.43 0 0 1 1.14-2.52 3.22 3.22 0 0 1 2.6-.75l13.4 2.3a3.25 3.25 0 0 1 2.18 1.42c.52.75.72 1.68.6 2.38l-1.42 5.35-.4-.6a2.37 2.37 0 0 0-1.94-1.06H113.7a2.29 2.29 0 0 0-1.96 1.08l-.6.92Zm1.7 11.36v-5.28l2.11-3.25h14.56l2.15 3.25v5.28c0 2.02-.63 3.99-1.78 5.63a9.37 9.37 0 0 1-4.64 3.5l-.12.04a9.09 9.09 0 0 1-8.5-1.48c-.01-.01-.03 0-.04-.02a9.58 9.58 0 0 1-2.74-3.38 9.9 9.9 0 0 1-1-4.3Zm9.41 25.27c-3.48-.01-6.84-1.35-9.43-3.76l3.21-1.24a2.48 2.48 0 0 0 1.52-2.27v-4.33c.27.1.55.14.82.23.44.13.87.27 1.33.36.62.12 1.25.16 1.88.2.23 0 .44.06.67.06.2 0 .38-.05.57-.06a13.9 13.9 0 0 0 2-.2c.4-.08.77-.2 1.16-.32.32-.1.66-.14.98-.27v4.32c0 .5.14.98.42 1.38.27.4.65.72 1.1.9l3.2 1.23a13.88 13.88 0 0 1-9.43 3.77Z"/></g></svg>