<svg xmlns="http://www.w3.org/2000/svg" width="77" height="42" fill="none"><path fill="#fff" d="M36.25 9.19c2.23-4.58 4.8-7.43 6.35-6.88.63.22 1.2 1.04 1.24 1.1 1.01 1.48.67 3.36.59 3.84-.28 1.55-1.25 3.48-2.7 3.91-.62.19-1.15.05-1.2.27-.1.42 1.8.77 2.54 2.35a4.24 4.24 0 0 1-.55 4.23 3.07 3.07 0 0 1-3.49 1c-1.46-.61-1.97-2.8-2.28-2.64-.17.09-.09.73-.01 1.08.2.99.75 1.61.93 1.82.6.7 1.36 1.75 2.34 3.44a64.15 64.15 0 0 0-3.05-3.51c-.2-.2-.34-.37-.63-.72-.17-.22-.3-.37-.4-.6a2.3 2.3 0 0 1-.15-.57c-.13-.75-.2-1.5-.24-1.77-.08-.68-.26-1.16-.4-1.56-.47-1.28-1.1-1.95-.89-2.45l.23-.45c.14-.31.21-.47.21-.55.01-.34-.35-.4-.5-.8-.17-.46 0-1.01.2-1.33.32-.52.78-.51 1.27-.78.22-.12.82-.47 1.54-2.33C38.23 2.66 38.38.34 38.4.34a26.35 26.35 0 0 1-2.14 8.85ZM0 32.37c-.03-.83.36-1.76 1.08-1.76.35 0 .6.28.58.75-.02.36-.16.57-.35.8-.2.23-.37.44-.39.8-.02.6.4.78.85.78 1.52 0 3.03-1.9 4.4-3.86-.27-.08-.54-.1-.78-.1-.5 0-1 .15-1.6.52-.1.05-.17.13-.19.05-.01-.05.06-.13.13-.2.47-.5 1.11-.86 1.73-.86.3 0 .6.02.99.13.8-1.32 1.6-2.98 1.74-4.5.13-1.38-.35-1.97-1.06-1.97-.79 0-1.74.51-2.4 1.26-.68.78-1.21 2-1.28 2.95-.08.8.1 1.45.68 1.53.6.08 1.26-.65 1.7-1.35.35-.57.62-1.44.65-1.94.02-.23.02-.43-.02-.64-.01-.13-.05-.18-.01-.21.03-.03.05 0 .1.1.04.08.16.42.14.88a4.41 4.41 0 0 1-.67 2.07c-.4.68-1.22 1.38-1.92 1.3-.7-.08-1.06-.75-.99-1.79.07-.93.62-2.12 1.47-3.05.76-.86 1.65-1.35 2.59-1.35 1 0 2.12.57 1.96 2.72-.12 1.35-.96 3-1.77 4.27.1.03.32.08.55.08.48 0 .81-.05 1.22-.41.1-.1.2-.24.25-.16.03.1-.1.23-.2.36-.42.44-.86.68-1.52.68a2.4 2.4 0 0 1-.61-.08c-1.33 1.89-3.53 3.8-5.33 3.8-.85 0-1.65-.38-1.72-1.6ZM9.89 31.3a4.1 4.1 0 0 0-1 1.79c-.03.3.13.46.41.46.23 0 .85-.12 1.63-.72.33-.26.77-.68 1.06-.97.1-.1.16-.12.19-.08.03.06-.02.14-.14.27-.23.24-.73.72-1.04.96-.62.48-1.45.87-2.05.87-.67 0-.99-.3-.95-.85.03-.62.5-1.32.93-1.7.53-.53 1.6-1.2 2.26-1.07.4.08.55.38.48.76-.07.38-.37.69-.6.69-.3 0-.3-.29-.14-.59.19-.38.26-.62.05-.66-.2-.05-.6.26-1.1.84Z"/><path fill="#fff" d="M14.44 30.62a24.71 24.71 0 0 0-1.52 2.21l.02.02c.42-.4 1-.99 1.62-1.51.62-.52 1.4-1.09 1.9-1.09.45 0 .63.24.57.59-.05.32-.38.74-.69 1.14-.3.4-.47.64-.63.89l.02.02c.4-.4 1.04-1.03 1.66-1.55.61-.52 1.4-1.09 1.92-1.09.39 0 .58.22.55.55-.06.36-.43.82-.7 1.22-.3.38-.48.7-.6.89-.13.24-.13.38-.06.44.09.08.28 0 .42-.08.21-.12.46-.29.85-.63.3-.26.65-.62.85-.82.1-.1.17-.18.23-.12.03.04-.02.12-.14.26-.16.18-.7.73-1.06 1.05-.36.3-1.05.8-1.6.8-.35 0-.54-.18-.52-.52.02-.46.44-.99.74-1.4.26-.37.51-.7.74-1 .07-.1.1-.21.02-.28-.1-.06-.29.02-.46.12a8.7 8.7 0 0 0-1.38 1.03c-.78.68-1.2 1.14-1.98 1.83a.62.62 0 0 1-.45.18c-.29 0-.34-.06-.23-.32.17-.42.61-1.13.93-1.57.3-.42.62-.79.74-.99.07-.1.1-.24-.01-.28-.11-.04-.25.02-.45.12a8.3 8.3 0 0 0-1.37 1.03c-.78.68-1.2 1.14-1.98 1.83a.6.6 0 0 1-.47.18c-.24 0-.36-.04-.22-.32a12.85 12.85 0 0 1 1.73-2.63c-.12.05-.44.31-.68.53l-.73.7c-.16.17-.23.19-.26.15-.04-.04.02-.12.07-.18.25-.27.94-.93 1.4-1.29.45-.36.68-.42 1.02-.44.35-.02.4.04.19.33Z"/><path fill="#fff" d="M23.26 32.83c.34-.26.74-.63 1.08-.97.1-.1.16-.12.2-.08.03.06-.04.14-.15.26-.23.24-.8.77-1.11 1-.74.57-1.4.83-2 .83-.65 0-.95-.28-.93-.8.02-.4.17-.77.53-1.25l-.02-.02-.35.37c-.1.08-.14.1-.18.06-.03-.06.04-.14.1-.22a6.94 6.94 0 0 1 1.52-1.21c.52-.3 1.05-.56 1.52-.56.4 0 .55.28.53.54-.03.52-.6.92-1.13 1.22-.51.29-1.11.53-1.52.65-.07.16-.1.34-.1.46 0 .3.14.46.4.46.24 0 .84-.14 1.61-.74Zm-.6-1c.45-.35.71-.77.73-1.05.01-.18-.06-.28-.21-.28-.16 0-.43.2-.78.58-.28.3-.72.94-.94 1.35.36-.1.83-.33 1.2-.6Z"/><path fill="#fff" d="M26.48 30.25c.33 0 .44.22.44.44 0 .25-.15.5-.37.87-.27.4-.64.94-.83 1.27l.02.02c.42-.4 1-.99 1.62-1.51.62-.52 1.4-1.09 1.9-1.09.45 0 .62.24.57.59-.05.32-.39.74-.69 1.14-.3.4-.48.64-.63.89l.01.02c.4-.4 1.04-1.03 1.66-1.55.62-.52 1.4-1.09 1.93-1.09.38 0 .58.22.54.55-.05.36-.42.82-.7 1.22-.29.38-.48.7-.59.89-.14.24-.14.38-.07.44.1.08.28 0 .43-.08.2-.12.45-.29.84-.63.3-.26.66-.62.85-.82.1-.1.18-.18.23-.12.04.04-.01.12-.14.26-.16.18-.69.73-1.06 1.05-.35.3-1.04.8-1.59.8-.35 0-.54-.18-.53-.52.02-.46.45-.99.74-1.4l.74-1c.08-.1.11-.21.02-.28-.09-.06-.28.02-.46.12A8.7 8.7 0 0 0 30 31.76c-.78.68-1.2 1.14-1.98 1.83a.62.62 0 0 1-.46.18c-.28 0-.33-.06-.23-.32.18-.42.62-1.13.94-1.57.3-.42.62-.79.74-.99.07-.1.09-.24-.02-.28-.1-.04-.25.02-.44.12a8.3 8.3 0 0 0-1.38 1.03c-.77.68-1.2 1.14-1.97 1.83a.6.6 0 0 1-.46.18c-.25 0-.37-.04-.23-.32.12-.27.51-.93.77-1.35.27-.42.52-.76.71-1.04.12-.19.16-.29.12-.35-.05-.08-.16-.03-.26.02a4.1 4.1 0 0 0-.69.55l-.76.76c-.18.18-.25.24-.3.18-.03-.06.05-.16.27-.38.2-.22.6-.64.91-.92.48-.42.84-.67 1.2-.67Z"/><path fill="#fff" d="M33.25 33.25c.02-.28.18-.58.34-.82.35-.55.7-1.03 1.25-1.61-.12.06-.5.36-.76.6s-.46.42-.63.6c-.14.14-.21.2-.27.17-.03-.04 0-.12.2-.33.19-.2.82-.8 1.25-1.12.46-.36.69-.44 1.02-.44.37 0 .41.06.2.32-.23.28-.57.74-.92 1.24-.28.43-.56.87-.65 1.09-.07.16-.07.3-.02.36.07.08.23.06.4-.04.4-.24.78-.56 1.33-1.04.85-.74 1.34-1.25 1.9-1.75.15-.12.26-.22.52-.22.3 0 .48.04.26.32-.31.44-.58.77-.93 1.29-.3.42-.53.78-.65 1.02-.1.2-.13.39-.06.44.1.09.23.04.4-.06.19-.1.52-.34.8-.6.36-.32.66-.62.85-.82.1-.12.21-.2.25-.14.05.04-.09.2-.14.26-.21.24-.66.66-1.08 1.04-.32.29-.94.8-1.52.8-.35 0-.54-.17-.54-.48 0-.28.12-.56.28-.82.2-.32.53-.7.83-1.04l-.02-.02-1.41 1.26c-.73.63-1.36 1.11-1.89 1.11-.38 0-.6-.2-.59-.57Z"/><path fill="#fff" d="M39.22 33.45c-.02-.2.15-.3.32-.6.14-.25.3-.52.45-.75l.71-1.04c.12-.18.16-.28.12-.34-.05-.08-.16-.04-.26.02-.21.12-.48.34-.69.54l-.76.77c-.18.18-.25.24-.3.18-.03-.06.05-.16.27-.39.43-.45.75-.78.91-.92.55-.46.9-1 1.17-1.45.42-.68.34-.86.89-2.26.4-1.02.97-2.28 1.1-2.23.07.03-.09.45-.16 1.28-.1 1.2.13 1.46-.06 2a2.01 2.01 0 0 1-1.41 1.2c-.02-.03 1.02-.47 1.23-1.45.09-.42.02-.91-.11-.95-.17-.05-.51.61-.64 1.28-.04.21-.01.2-.05.64-.05.52-.1 1.08-.32 1.72-.15.46-.3.78-.37.86l-1.28 1.98c-.25.37-.47.26-.53.24a.41.41 0 0 1-.23-.33Zm2.52-.4c.02-.54.27-.89.25-1.09-.55.02-.74-.12-.72-.22.01-.12.17-.16.35-.14.18.02.4.08.51.16.32 0 .69-.38.92-.66.33-.4.67-.87 1.15-.87.42 0 .58.37.5.7-.06.35-.33.63-.54.63-.26 0-.35-.26-.2-.56.2-.37.2-.5.08-.53-.25-.04-.55.4-.88.79-.32.36-.6.6-.85.64.14.1.37.32.32.9-.04.35-.06.57.16.6.17.05.4-.11.6-.23.16-.1.45-.32.74-.58.37-.35.54-.53.77-.77.1-.08.18-.2.25-.14.05.06-.1.22-.18.3-.23.24-.6.64-1 .99-.37.32-1.03.84-1.59.84-.34 0-.66-.2-.64-.76Z"/><path fill="#fff" d="M49.35 30.25c.37-.02.4.08.23.32-.23.3-.62.8-.99 1.33-.23.32-.46.67-.62.99-.12.24-.12.4-.05.46.09.08.26 0 .4-.08.18-.1.52-.36.8-.62.37-.34.65-.63.85-.83.1-.1.2-.2.25-.14.05.06-.04.16-.23.37-.23.24-.66.66-1 .96-.35.32-.93.8-1.51.8-.34 0-.5-.18-.51-.42-.02-.22.09-.5.25-.72l-.02-.02c-.46.46-1.27 1.13-1.94 1.17-.4.02-.8-.16-.73-.8.04-.3.18-.63.5-1.05l-.02-.02-.23.24c-.07.06-.12.1-.16.06-.03-.06.06-.18.25-.38a7.28 7.28 0 0 1 1.34-1.05c.69-.4 1.3-.64 1.76-.56.36.06.48.42.38.76.42-.5.72-.77 1-.77Zm-3.07 1.47c-.73.8-1.03 1.33-1 1.6.03.13.11.2.24.2.33 0 1-.45 1.48-.95.57-.57 1.2-1.43 1.22-1.75.02-.26-.12-.36-.32-.36-.35 0-.99.54-1.62 1.26ZM53.4 32.38c0 .08-.01.1-.03.1-.03 0-.03 0-.07-.06-.12-.22-.32-.32-.7-.32-.46 0-.74.18-1.33.18-.2 0-.51-.1-.62-.26v-.1c.02-.02.06-.02.08 0 .07.04.15.08.28.08.32 0 .62-.2.88-.38.18-.14.44-.28.72-.28.58 0 .81.54.8 1.04ZM54.38 32.83c0-.64.42-1.05.83-1.07.37-.02.6.2.6.54 0 .27-.1.44-.34.63-.16.12-.4.26-.4.46 0 .3.26.46.84.46 1.41 0 3.07-1.04 4.93-2.61 1.62-1.35 3.17-3.16 4.92-5l.55-.57c.16-.18.46-.38.63-.36.27.04.21.2-.05.52l-.42.52c-.94 1.35-2.18 4.1-3.04 5.4.69-.7 2.1-2.1 3.32-3.23a52 52 0 0 1 2.73-2.39c.87-.7 1.42-.94 1.86-.94a.7.7 0 0 1 .49.18c.01 0 .19.18.23.41.04.27-.12.5-.2.6a1.3 1.3 0 0 1-1.16.5c0-.02.44-.05.82-.45.1-.11.3-.32.26-.55-.03-.2-.23-.35-.37-.39-.47-.15-1 .54-1.33.9-.8.9-1.78 2.18-2.61 3.36-.92 1.3-1.87 2.73-1.89 3.48 0 .16.09.26.23.26.28 0 .78-.3 1.34-.82.36-.32.66-.62.85-.83.09-.08.16-.16.21-.1.04.07-.03.14-.16.29-.23.24-.54.56-.99.96-.35.32-.95.79-1.44.8-.44.03-.78-.16-.8-.74-.01-.72.55-1.66 1.31-2.77.7-1.05 2.03-2.7 2.93-3.56h-.02c-1.18 1-2.38 2.13-3.54 3.28a108.9 108.9 0 0 0-3.38 3.45c-.2.22-.3.39-.45.27-.15-.14-.06-.39.05-.55 1.02-1.63 2.79-5 3.74-6.35h-.02c-.65.72-2.94 3.32-4.51 4.62-1.75 1.5-3.46 2.64-5 2.64-.81 0-1.55-.27-1.55-1.25Z"/><path fill="#fff" d="M70.67 32.83c.33-.26.74-.63 1.07-.97.1-.1.16-.12.2-.08.03.06-.04.14-.14.26-.23.24-.8.77-1.12 1-.74.57-1.4.83-2 .83-.64 0-.95-.28-.93-.8.02-.4.18-.77.53-1.25l-.02-.02-.35.37c-.09.08-.14.1-.18.06-.03-.06.04-.14.11-.22a6.95 6.95 0 0 1 1.52-1.21c.5-.3 1.04-.56 1.51-.56.41 0 .55.28.53.54-.03.52-.6.92-1.13 1.22-.5.29-1.1.53-1.51.65-.07.16-.1.34-.1.46 0 .3.13.46.4.46.23 0 .83-.14 1.6-.74Zm-.6-1c.44-.35.7-.77.72-1.05.02-.18-.05-.28-.2-.28-.17 0-.43.2-.79.58-.28.3-.72.94-.93 1.35.35-.1.83-.33 1.2-.6Z"/><path fill="#fff" d="M74.85 30.25c.35.06.44.37.4.69h.03c.38-.5.58-.69.84-.69.34 0 .43.08.23.32-.32.43-.56.8-.91 1.33-.3.44-.92 1.43-1.45 2.23.39-.26 1.16-.8 1.7-1.26.38-.34.72-.65 1.09-1.03.09-.1.17-.14.2-.1.06.06-.08.2-.17.3-.26.29-.63.63-1.04.99-.63.54-1.38 1.07-1.94 1.43a44.12 44.12 0 0 1-2.42 3.6 15.23 15.23 0 0 1-3.63 3.37c-.46.29-.89.43-1.22.43-.44 0-.92-.17-.83-.85.14-1.2 2.19-2.9 3.56-3.92 1.63-1.19 2.37-1.63 3.59-2.5.32-.5.9-1.4 1.18-1.88l-.02-.02c-.47.46-1.25 1.08-1.9 1.12-.4.02-.78-.14-.73-.8.04-.3.18-.62.5-1.05l-.02-.01-.23.24c-.07.06-.12.1-.16.06-.03-.06.09-.22.28-.43a6.23 6.23 0 0 1 1.3-1c.64-.38 1.31-.65 1.77-.57Zm-5.66 7.2c-1.49 1.13-2.8 2.52-2.86 3.56-.02.3.09.48.26.54.28.1.8-.1 1.12-.32.79-.54 1.83-1.59 3.22-3.62.71-1.02 1.43-2.1 1.79-2.67-1.05.78-1.9 1.26-3.53 2.51Zm3.97-5.73c-.73.8-1.03 1.33-1 1.6.03.13.11.2.24.2.34 0 1-.45 1.48-.95.57-.57 1.2-1.43 1.22-1.75.02-.26-.12-.36-.32-.36-.35 0-.99.54-1.62 1.26Z"/></svg>