<svg xmlns="http://www.w3.org/2000/svg" width="99" height="53" fill="none"><path fill="#fff" d="M46.27 11.3C49.12 5.45 52.4 1.8 54.4 2.5c.8.29 1.52 1.33 1.58 1.41 1.29 1.9.86 4.3.75 4.9-.36 1.99-1.59 4.44-3.45 5-.79.23-1.46.06-1.53.34-.13.53 2.29.98 3.24 3a5.4 5.4 0 0 1-.7 5.4 3.91 3.91 0 0 1-4.45 1.28c-1.87-.79-2.52-3.57-2.92-3.37-.21.1-.1.93-.01 1.37.26 1.26.96 2.07 1.2 2.33a29.5 29.5 0 0 1 2.98 4.4c-2.5-3-3.5-4.1-3.9-4.5a10.6 10.6 0 0 1-.8-.91 3.05 3.05 0 0 1-.5-.77 2.94 2.94 0 0 1-.2-.73c-.17-.96-.26-1.9-.3-2.26-.12-.86-.35-1.48-.53-1.98-.6-1.64-1.4-2.5-1.12-3.14.03-.07.12-.22.28-.57.18-.4.28-.6.28-.7 0-.43-.46-.51-.64-1.03-.21-.58 0-1.29.25-1.7.41-.66 1-.64 1.62-.98.29-.16 1.05-.61 1.97-2.98C48.8 2.97 49 0 49.01 0c.01 0-.06 3.17-1.27 7.28-.5 1.7-1.05 3.07-1.47 4.02Z"/><g fill="#fff"><path d="M0 40.89c-.04-1.06.45-2.25 1.38-2.25.45 0 .76.37.74.96-.02.46-.2.73-.45 1.02-.25.3-.47.57-.5 1.03-.02.76.53.99 1.09.99 1.94 0 3.87-2.41 5.6-4.93-.33-.1-.67-.13-.98-.13-.63 0-1.29.2-2.05.66-.12.07-.2.17-.23.07-.02-.07.07-.16.16-.26.6-.63 1.42-1.1 2.2-1.1.39 0 .77.04 1.27.17 1.03-1.68 2.05-3.8 2.23-5.75.16-1.75-.45-2.51-1.35-2.51-1.02 0-2.23.66-3.07 1.62a7.06 7.06 0 0 0-1.64 3.76c-.1 1.03.13 1.85.88 1.95.76.1 1.6-.82 2.16-1.71.45-.73.79-1.85.83-2.48.03-.3.03-.56-.02-.83-.02-.16-.07-.23-.02-.26.04-.04.07 0 .13.13.05.1.2.53.18 1.12-.02.8-.33 1.82-.85 2.65-.52.85-1.56 1.75-2.46 1.65-.9-.1-1.35-.96-1.26-2.28a7.1 7.1 0 0 1 1.87-3.9c.97-1.1 2.12-1.72 3.31-1.72 1.29 0 2.7.73 2.5 3.47-.15 1.72-1.21 3.84-2.25 5.45.13.04.4.1.7.1.6 0 1.03-.06 1.55-.52.14-.13.27-.3.32-.2.04.13-.11.3-.25.46a2.5 2.5 0 0 1-1.94.86c-.27 0-.54-.03-.78-.1-1.7 2.41-4.51 4.86-6.8 4.86-1.1 0-2.1-.5-2.2-2.05ZM12.62 39.52c-.6.7-1.2 1.67-1.26 2.29-.05.38.16.6.52.6.3 0 1.08-.16 2.07-.93.43-.34 1-.88 1.35-1.24.14-.12.2-.15.25-.1.04.08-.02.18-.18.34-.3.3-.93.92-1.33 1.23a4.88 4.88 0 0 1-2.62 1.1c-.85 0-1.26-.38-1.21-1.07.04-.8.65-1.7 1.2-2.18.67-.67 2.04-1.52 2.88-1.37.52.1.7.5.6.98-.09.49-.47.87-.76.87-.38 0-.38-.36-.18-.74.24-.49.34-.8.07-.85-.25-.06-.77.33-1.4 1.07Z"/><path d="M18.43 38.65c-.38.49-.65.88-.88 1.2-.36.52-.8 1.21-1.05 1.63l.02.02c.54-.51 1.28-1.26 2.07-1.92.79-.67 1.78-1.4 2.43-1.4.57 0 .8.32.72.75-.06.41-.49.95-.87 1.47-.39.5-.61.82-.81 1.13l.02.02c.52-.51 1.33-1.3 2.12-1.97.78-.67 1.78-1.4 2.45-1.4.5 0 .75.3.7.7-.07.46-.54 1.05-.9 1.57-.36.48-.6.9-.75 1.13-.18.3-.18.48-.09.56.12.1.36 0 .54-.1.27-.16.59-.36 1.09-.8.38-.33.83-.8 1.08-1.05.13-.13.22-.23.3-.15.04.05-.03.15-.19.33-.2.23-.88.92-1.35 1.33-.45.39-1.33 1.03-2.03 1.03-.45 0-.7-.23-.67-.67.02-.59.56-1.25.94-1.8l.95-1.25c.09-.13.13-.28.02-.36-.11-.08-.36.02-.59.15-.4.23-1.03.67-1.75 1.31-1 .87-1.54 1.46-2.53 2.34a.79.79 0 0 1-.58.23c-.36 0-.43-.08-.3-.41.23-.54.8-1.44 1.2-2 .38-.54.79-1 .94-1.26.1-.13.12-.31-.02-.36-.13-.05-.31.02-.56.15-.4.23-1.08.7-1.76 1.3-1 .88-1.53 1.47-2.52 2.34a.78.78 0 0 1-.6.23c-.3 0-.46-.05-.28-.4.23-.5.59-1.11 1-1.72.35-.54.78-1.16 1.21-1.65a6.6 6.6 0 0 0-.88.7c-.22.2-.58.53-.92.9-.2.2-.3.22-.34.17-.04-.05.02-.15.1-.23.3-.33 1.19-1.18 1.77-1.64.59-.47.88-.54 1.3-.57.45-.02.52.06.25.42Z"/><path d="M29.7 41.48c.43-.34.94-.8 1.37-1.24.14-.13.2-.15.25-.1.04.08-.04.18-.18.33-.3.31-1.01.98-1.42 1.29a4.3 4.3 0 0 1-2.55 1.05c-.83 0-1.22-.36-1.2-1.03.03-.51.23-.97.68-1.59l-.02-.02-.45.46c-.11.1-.18.13-.23.08-.04-.08.05-.18.14-.28a8.88 8.88 0 0 1 1.94-1.54 4.18 4.18 0 0 1 1.93-.72c.52 0 .7.36.68.69-.04.67-.77 1.18-1.44 1.56-.66.36-1.42.67-1.94.82-.09.21-.13.44-.13.6 0 .38.18.59.51.59.3 0 1.07-.18 2.06-.95Zm-.77-1.29c.57-.43.9-.97.93-1.33.02-.23-.07-.36-.27-.36s-.54.26-1 .74c-.36.39-.92 1.2-1.19 1.72a5 5 0 0 0 1.53-.77Z"/><path d="M33.8 38.19c.43 0 .56.28.56.56 0 .3-.18.64-.47 1.1-.34.52-.81 1.21-1.06 1.63l.02.02c.54-.51 1.29-1.26 2.08-1.92.78-.67 1.78-1.4 2.43-1.4.56 0 .79.32.72.75-.07.41-.5.95-.88 1.47-.38.5-.6.82-.81 1.13l.02.02c.52-.51 1.33-1.3 2.12-1.97.79-.67 1.78-1.4 2.46-1.4.5 0 .74.3.7.7-.07.46-.55 1.05-.9 1.57-.37.48-.61.9-.75 1.13-.18.3-.18.48-.1.56.12.1.37 0 .55-.1.27-.16.58-.36 1.08-.8.38-.33.83-.8 1.08-1.05.14-.13.23-.23.3-.15.04.05-.02.15-.18.33-.2.23-.88.92-1.35 1.33-.46.39-1.33 1.03-2.03 1.03-.45 0-.7-.23-.68-.67.02-.59.56-1.25.95-1.8l.94-1.25c.1-.13.14-.28.02-.36-.1-.08-.36.02-.58.15-.4.23-1.04.67-1.76 1.31-1 .87-1.53 1.46-2.52 2.34a.79.79 0 0 1-.59.23c-.36 0-.43-.08-.3-.41.23-.54.8-1.44 1.2-2 .39-.54.8-1 .95-1.26.09-.13.11-.31-.02-.36-.14-.06-.32.02-.57.15-.4.23-1.08.7-1.75 1.3-1 .88-1.54 1.47-2.53 2.34a.76.76 0 0 1-.58.23c-.32 0-.47-.05-.3-.4.16-.34.66-1.19 1-1.72.33-.54.65-.98.9-1.34.15-.23.2-.36.15-.43-.06-.1-.2-.05-.33.02-.27.16-.61.44-.88.7l-.97.97c-.23.23-.32.3-.39.23-.04-.08.07-.2.34-.49.27-.28.77-.82 1.17-1.18.62-.53 1.07-.84 1.54-.84Z"/><path d="M42.45 42.01c.02-.36.23-.74.43-1.05.45-.69.9-1.3 1.6-2.05-.16.08-.63.46-.97.77-.34.3-.59.54-.81.77-.18.18-.27.26-.34.2-.04-.05 0-.15.25-.4.25-.26 1.06-1.03 1.6-1.44.58-.46.88-.57 1.3-.57.48 0 .52.08.25.41-.3.36-.72.95-1.17 1.6-.36.53-.72 1.1-.83 1.38-.1.2-.1.39-.02.46.09.1.3.08.52-.05.5-.3.99-.72 1.69-1.33 1.08-.95 1.7-1.59 2.43-2.23.18-.15.32-.28.65-.28.39 0 .61.05.34.4-.4.57-.74.98-1.2 1.65-.37.54-.67 1-.83 1.3-.13.27-.15.5-.06.57.1.1.29.05.52-.08.22-.12.65-.43 1-.77.46-.4.84-.8 1.1-1.05.13-.15.26-.25.3-.18.08.05-.1.26-.17.34-.27.3-.84.85-1.38 1.33-.4.36-1.2 1.03-1.93 1.03-.46 0-.7-.23-.7-.62 0-.36.15-.72.36-1.05.24-.4.67-.9 1.06-1.33l-.03-.03-1.8 1.62c-.92.8-1.73 1.41-2.4 1.41-.49 0-.78-.26-.76-.73Z"/><path d="M50.07 42.27c-.03-.25.2-.4.4-.77.19-.32.4-.67.59-.95l.9-1.33c.15-.23.2-.36.15-.44-.06-.1-.2-.05-.33.03-.27.15-.61.43-.88.69l-.97.98c-.23.23-.32.3-.38.23-.05-.08.06-.2.33-.49.56-.58.96-1 1.17-1.18.71-.59 1.15-1.29 1.5-1.86.54-.86.43-1.1 1.13-2.87.5-1.31 1.24-2.92 1.4-2.85.09.04-.1.58-.2 1.63-.13 1.53.17 1.86-.08 2.56a2.57 2.57 0 0 1-1.8 1.53c-.02-.04 1.3-.6 1.57-1.85.12-.54.04-1.17-.14-1.22-.21-.06-.65.78-.8 1.64-.06.27-.03.25-.08.81a9.43 9.43 0 0 1-.4 2.2c-.19.59-.4.99-.47 1.1-.66.98-1.02 1.54-1.65 2.52-.3.48-.6.34-.67.3a.53.53 0 0 1-.3-.41Zm3.22-.51c.02-.7.34-1.13.31-1.39-.7.03-.94-.15-.92-.28.02-.15.23-.2.45-.18.23.03.52.1.66.2.4 0 .87-.48 1.17-.84.42-.51.85-1.1 1.46-1.1.54 0 .74.46.65.9-.09.43-.42.79-.7.79-.33 0-.44-.34-.24-.72.25-.47.25-.64.09-.67-.32-.05-.7.51-1.13 1-.4.47-.76.77-1.08.82.18.13.47.41.4 1.16-.04.43-.06.72.21.77.23.05.52-.16.77-.3.2-.14.58-.42.94-.75.47-.44.7-.67 1-.98.1-.1.22-.26.31-.18.07.08-.13.28-.23.39-.29.3-.76.82-1.28 1.25-.47.41-1.3 1.08-2.03 1.08-.43 0-.83-.25-.81-.97Z"/><path d="M63 38.19c.47-.03.52.1.3.4-.3.4-.8 1.04-1.27 1.7-.3.41-.58.85-.79 1.26-.15.3-.15.51-.07.6.12.1.34 0 .52-.11.23-.13.66-.46 1.02-.8.47-.43.83-.8 1.08-1.05.13-.13.25-.25.32-.18.06.08-.05.21-.3.47a27 27 0 0 1-1.26 1.23c-.45.41-1.2 1.03-1.94 1.03-.43 0-.63-.24-.65-.54-.02-.28.11-.64.31-.93l-.02-.02c-.58.6-1.62 1.44-2.48 1.49-.49.02-1-.2-.92-1.03.05-.38.23-.8.63-1.33l-.02-.03-.3.31c-.08.08-.15.13-.2.08-.04-.08.07-.23.32-.49a9.29 9.29 0 0 1 1.71-1.34c.88-.5 1.67-.82 2.25-.72.46.08.61.54.48.98.53-.65.92-.98 1.28-.98Zm-3.92 1.87c-.93 1.03-1.31 1.7-1.26 2.03.02.18.13.26.29.26.43 0 1.28-.57 1.9-1.2.71-.73 1.53-1.83 1.55-2.24.02-.33-.16-.46-.4-.46-.46 0-1.27.69-2.08 1.61ZM68.18 40.9c0 .11-.02.14-.04.14-.05 0-.05 0-.1-.08-.15-.28-.4-.41-.9-.41-.58 0-.94.23-1.69.23-.24 0-.65-.13-.78-.33-.03-.05-.03-.1 0-.13.02-.03.06-.03.09 0 .09.05.2.1.36.1.4 0 .79-.26 1.12-.49.23-.18.57-.36.93-.36.74 0 1.03.7 1.01 1.34ZM69.42 41.48c0-.82.54-1.34 1.06-1.37.47-.02.76.26.76.7 0 .33-.13.56-.42.8-.2.14-.52.33-.52.58 0 .39.33.6 1.08.6 1.8 0 3.92-1.34 6.29-3.34 2.07-1.72 4.05-4.03 6.28-6.4l.7-.71c.2-.24.59-.5.81-.47.34.05.27.26-.07.67l-.54.67c-1.2 1.72-2.77 5.23-3.87 6.9.88-.9 2.68-2.7 4.23-4.13a66.3 66.3 0 0 1 3.5-3.06c1.1-.9 1.8-1.2 2.36-1.2a.9.9 0 0 1 .63.23c.01.02.24.23.29.53.06.34-.15.64-.24.77-.51.71-1.48.67-1.5.63 0-.03.57-.06 1.05-.57.13-.15.38-.41.33-.7-.04-.27-.3-.45-.47-.5-.6-.19-1.28.69-1.7 1.15a53.75 53.75 0 0 0-3.33 4.29c-1.17 1.67-2.39 3.49-2.4 4.44 0 .2.1.33.29.33.36 0 .99-.38 1.7-1.05a25 25 0 0 0 1.09-1.05c.11-.1.2-.2.27-.13.04.08-.04.18-.2.36-.3.3-.7.72-1.27 1.23-.45.41-1.21 1-1.84 1.03-.57.03-1-.2-1.02-.95-.02-.92.7-2.13 1.67-3.54.9-1.33 2.6-3.44 3.74-4.54h-.02a86.64 86.64 0 0 0-4.53 4.18 139.1 139.1 0 0 0-4.3 4.41c-.27.29-.38.5-.59.34-.18-.18-.07-.49.07-.7 1.3-2.07 3.56-6.38 4.78-8.1h-.02c-.84.92-3.77 4.23-5.77 5.9-2.23 1.9-4.42 3.36-6.38 3.36-1.04 0-1.98-.34-1.98-1.6Z"/><path d="M90.21 41.48c.43-.34.95-.8 1.38-1.24.13-.13.2-.15.25-.1.04.08-.05.18-.19.33-.29.31-1.01.98-1.42 1.29a4.3 4.3 0 0 1-2.54 1.05c-.84 0-1.22-.36-1.2-1.03.02-.51.23-.97.68-1.59l-.02-.02-.46.46c-.1.1-.18.13-.22.08-.04-.08.04-.18.13-.28a8.87 8.87 0 0 1 1.94-1.54 4.18 4.18 0 0 1 1.94-.72c.52 0 .7.36.67.69-.04.67-.76 1.18-1.44 1.56-.65.36-1.42.67-1.94.82-.09.21-.13.44-.13.6 0 .38.18.59.52.59.3 0 1.06-.18 2.05-.95Zm-.76-1.29c.56-.43.9-.97.92-1.33.03-.23-.07-.36-.27-.36s-.54.26-.99.74c-.36.39-.92 1.2-1.2 1.72a5 5 0 0 0 1.54-.77Z"/><path d="M95.56 38.19c.45.08.56.46.51.87h.03c.5-.64.74-.87 1.08-.87.43 0 .54.1.3.41-.41.54-.73 1.03-1.18 1.7-.38.56-1.17 1.81-1.84 2.84.49-.33 1.48-1.03 2.16-1.61.5-.44.92-.82 1.4-1.31.1-.13.22-.18.26-.13.07.08-.1.26-.22.38-.34.36-.81.8-1.33 1.26a23.7 23.7 0 0 1-2.48 1.82 56.36 56.36 0 0 1-3.09 4.6 19.44 19.44 0 0 1-4.64 4.31c-.58.36-1.12.54-1.55.54-.57 0-1.17-.2-1.06-1.08.18-1.54 2.8-3.7 4.55-5 2.07-1.52 3.02-2.08 4.58-3.18.4-.65 1.14-1.8 1.5-2.42l-.02-.02c-.6.59-1.6 1.38-2.43 1.43-.5.03-1-.17-.93-1.02.05-.39.23-.8.64-1.34l-.03-.02-.29.3c-.1.08-.16.13-.2.08-.05-.07.1-.28.36-.53a7.9 7.9 0 0 1 1.66-1.29c.81-.49 1.67-.82 2.26-.72Zm-7.24 9.19c-1.89 1.44-3.56 3.2-3.65 4.54-.02.39.12.62.34.7.36.12 1.02-.14 1.42-.42 1.02-.69 2.35-2.03 4.12-4.62.9-1.3 1.83-2.7 2.28-3.41-1.33 1-2.41 1.62-4.5 3.2Zm5.07-7.32c-.92 1.03-1.3 1.7-1.26 2.03.02.18.14.26.3.26.42 0 1.28-.56 1.89-1.2.72-.73 1.53-1.83 1.55-2.24.03-.33-.15-.46-.4-.46-.46 0-1.27.7-2.08 1.61Z"/></g></svg>