<svg xmlns="http://www.w3.org/2000/svg" width="126" height="68" fill="none"><path fill="#fff" d="M58.95 14.4c3.63-7.46 7.8-12.1 10.33-11.2 1.02.36 1.95 1.7 2.02 1.8 1.64 2.4 1.1 5.46.95 6.24-.45 2.53-2.02 5.65-4.39 6.36-1 .3-1.86.08-1.95.44-.17.67 2.92 1.25 4.13 3.82a6.89 6.89 0 0 1-.89 6.88 4.99 4.99 0 0 1-5.67 1.63c-2.39-1-3.22-4.55-3.72-4.3-.27.14-.13 1.2-.02 1.76.34 1.6 1.23 2.62 1.52 2.96a37.57 37.57 0 0 1 3.81 5.6c-3.18-3.8-4.45-5.23-4.96-5.72-.32-.32-.56-.6-1.02-1.17-.3-.35-.48-.6-.65-.98-.17-.4-.23-.73-.26-.92-.2-1.23-.32-2.44-.38-2.88-.14-1.1-.43-1.9-.66-2.53-.76-2.1-1.8-3.18-1.43-4 .04-.09.15-.28.36-.73.23-.5.34-.75.35-.9.01-.54-.58-.64-.82-1.3-.27-.74 0-1.64.32-2.16.53-.84 1.27-.82 2.07-1.26.37-.2 1.33-.77 2.5-3.79C62.18 3.78 62.42 0 62.44 0c.02 0-.07 4.04-1.61 9.28a42.83 42.83 0 0 1-1.87 5.11Z"/><g fill="#fff"><path d="M0 52.09c-.05-1.35.58-2.86 1.75-2.86.58 0 .98.46.95 1.22a2 2 0 0 1-.57 1.3c-.32.38-.6.72-.63 1.3-.03.97.66 1.27 1.38 1.27 2.46 0 4.93-3.08 7.14-6.28a4.42 4.42 0 0 0-1.26-.16c-.8 0-1.63.25-2.61.84-.14.09-.26.2-.29.09-.03-.09.09-.21.2-.34.78-.8 1.81-1.4 2.82-1.4.48 0 .97.05 1.6.22 1.32-2.15 2.61-4.84 2.84-7.33.2-2.23-.57-3.2-1.72-3.2-1.29 0-2.84.85-3.9 2.07a8.99 8.99 0 0 0-2.1 4.8c-.11 1.3.18 2.35 1.12 2.48.98.13 2.04-1.05 2.76-2.2.57-.92 1-2.35 1.06-3.15.03-.38.03-.71-.03-1.05-.03-.2-.09-.3-.03-.34.06-.04.09 0 .17.17.06.12.26.67.24 1.43-.03 1.01-.44 2.32-1.1 3.37-.66 1.1-1.98 2.23-3.13 2.1-1.14-.13-1.72-1.22-1.6-2.9.11-1.52 1-3.45 2.38-4.97 1.24-1.39 2.7-2.19 4.22-2.19 1.63 0 3.44.93 3.18 4.43-.2 2.18-1.55 4.88-2.87 6.94.18.04.52.13.9.13.77 0 1.31-.09 1.97-.67.18-.17.35-.38.4-.26.06.17-.14.38-.3.6-.7.7-1.42 1.09-2.48 1.09a3.9 3.9 0 0 1-1-.13C9.3 51.58 5.72 54.7 2.79 54.7c-1.38 0-2.67-.63-2.79-2.61ZM16.08 50.35c-.78.88-1.53 2.13-1.61 2.91-.06.5.2.75.66.75.38 0 1.38-.2 2.64-1.17.55-.43 1.26-1.11 1.72-1.57.17-.17.26-.2.32-.13.05.1-.03.22-.23.42a18.7 18.7 0 0 1-1.7 1.57c-1 .79-2.35 1.41-3.33 1.41-1.09 0-1.6-.49-1.55-1.37a4.64 4.64 0 0 1 1.53-2.78c.86-.85 2.6-1.93 3.67-1.73.66.13.89.62.77 1.24-.11.62-.6 1.11-.97 1.11-.49 0-.49-.46-.23-.95.31-.62.43-1.01.08-1.08-.31-.07-.97.42-1.77 1.37Z"/><path d="M23.48 49.24a40.22 40.22 0 0 0-2.47 3.6l.03.03c.7-.66 1.64-1.6 2.64-2.45 1-.85 2.27-1.77 3.1-1.77.72 0 1 .39.92.95-.09.52-.63 1.2-1.12 1.86-.49.65-.77 1.04-1.03 1.44l.03.03c.66-.65 1.69-1.67 2.7-2.51 1-.85 2.26-1.77 3.12-1.77.63 0 .95.36.9.88-.1.59-.7 1.34-1.16 2-.45.62-.77 1.14-.94 1.43-.23.4-.23.63-.12.72.14.13.46 0 .7-.13a8 8 0 0 0 1.37-1.01c.49-.43 1.06-1.02 1.38-1.34.17-.17.29-.3.37-.2.06.07-.03.2-.23.43-.26.3-1.12 1.17-1.72 1.7-.57.49-1.7 1.3-2.58 1.3-.58 0-.9-.29-.86-.84.02-.76.71-1.6 1.2-2.3l1.2-1.6c.12-.16.18-.36.03-.45-.14-.1-.46.03-.74.2-.52.29-1.32.84-2.24 1.66-1.27 1.11-1.96 1.86-3.22 2.97a1 1 0 0 1-.74.3c-.46 0-.55-.1-.38-.53.29-.68 1-1.83 1.53-2.55.48-.68 1-1.27 1.2-1.6.12-.16.14-.4-.03-.46s-.4.03-.72.2c-.51.3-1.37.88-2.24 1.66-1.26 1.12-1.95 1.87-3.2 2.98a.99.99 0 0 1-.78.3c-.38 0-.58-.07-.35-.53.3-.62.75-1.4 1.27-2.19.46-.68 1-1.47 1.55-2.1-.2.1-.72.53-1.12.89-.29.26-.75.69-1.18 1.14-.26.27-.37.3-.43.23-.05-.07.03-.2.12-.3a28 28 0 0 1 2.26-2.09c.75-.59 1.12-.68 1.67-.71.57-.03.66.07.31.53Z"/><path d="M37.83 52.84c.55-.43 1.2-1.02 1.75-1.58.18-.16.26-.2.32-.13.06.1-.06.23-.23.43-.38.4-1.3 1.24-1.81 1.63-1.2.92-2.27 1.34-3.25 1.34-1.06 0-1.55-.45-1.52-1.3.03-.66.29-1.25.86-2.03l-.03-.03-.57.59c-.14.13-.23.16-.29.1-.05-.1.06-.23.18-.36a11.31 11.31 0 0 1 2.46-1.96c.84-.5 1.7-.92 2.47-.92.66 0 .89.46.86.88-.05.85-.97 1.5-1.84 2-.83.45-1.8.85-2.46 1.04-.12.26-.17.56-.17.75 0 .5.23.76.66.76.37 0 1.35-.23 2.61-1.21Zm-.97-1.64c.71-.55 1.15-1.24 1.17-1.7.03-.3-.08-.46-.34-.46s-.69.33-1.26.95a12.8 12.8 0 0 0-1.53 2.2 6.37 6.37 0 0 0 1.96-.99Z"/><path d="M43.06 48.65c.54 0 .71.36.71.72 0 .39-.23.81-.6 1.4-.43.66-1.03 1.54-1.35 2.07l.03.03c.7-.66 1.64-1.6 2.64-2.45 1-.85 2.27-1.77 3.1-1.77.72 0 1 .39.92.95-.09.52-.63 1.2-1.12 1.86-.49.65-.77 1.04-1.03 1.44l.02.03c.67-.65 1.7-1.67 2.7-2.51 1-.85 2.27-1.77 3.13-1.77.63 0 .95.36.9.88-.1.59-.7 1.34-1.16 2-.46.62-.77 1.14-.94 1.43-.24.4-.24.63-.12.72.14.13.46 0 .69-.13a8 8 0 0 0 1.38-1.01 26.7 26.7 0 0 0 1.38-1.34c.17-.17.28-.3.37-.2.06.07-.03.2-.23.43a24.3 24.3 0 0 1-1.72 1.7c-.58.49-1.7 1.3-2.58 1.3-.58 0-.9-.29-.87-.84.03-.76.72-1.6 1.2-2.3l1.21-1.6c.12-.16.17-.36.03-.45-.14-.1-.46.03-.74.2-.52.29-1.32.84-2.24 1.66-1.27 1.11-1.96 1.86-3.22 2.97a1 1 0 0 1-.74.3c-.46 0-.55-.1-.38-.53.29-.68 1-1.83 1.52-2.55.5-.68 1-1.27 1.2-1.6.12-.16.15-.4-.02-.46-.17-.07-.4.03-.72.2-.51.3-1.38.88-2.24 1.66-1.26 1.12-1.95 1.87-3.21 2.98a.97.97 0 0 1-.75.3c-.4 0-.6-.07-.37-.53.2-.43.83-1.5 1.26-2.19.43-.68.84-1.24 1.15-1.7.2-.3.26-.46.2-.55-.09-.13-.26-.07-.43.03-.34.2-.77.56-1.12.88l-1.24 1.25c-.28.3-.4.39-.48.3-.06-.1.09-.27.43-.63.34-.36.98-1.05 1.49-1.5.78-.69 1.35-1.08 1.96-1.08Z"/><path d="M54.08 53.52c.03-.46.29-.95.54-1.34.58-.88 1.15-1.67 2.04-2.61-.2.1-.8.59-1.23.98-.43.39-.75.68-1.04.98-.23.22-.34.32-.43.26-.05-.06 0-.2.32-.52a23.6 23.6 0 0 1 2.04-1.83c.74-.6 1.12-.72 1.66-.72.6 0 .66.1.32.52a40 40 0 0 0-1.5 2.03c-.45.68-.91 1.4-1.06 1.76-.11.27-.11.5-.02.6.11.13.37.1.66-.07.63-.4 1.26-.92 2.15-1.7 1.38-1.2 2.18-2.02 3.1-2.84.23-.2.4-.36.83-.36.5 0 .78.06.43.52-.51.72-.94 1.25-1.52 2.1-.48.68-.86 1.27-1.06 1.66-.17.33-.2.62-.09.72.15.13.38.06.67-.1.28-.16.83-.55 1.29-.98.57-.52 1.06-1.01 1.38-1.34.17-.2.34-.33.4-.23.09.07-.14.33-.23.43-.35.39-1.06 1.08-1.75 1.7-.52.46-1.52 1.3-2.47 1.3-.57 0-.89-.29-.89-.78 0-.46.2-.92.46-1.34.31-.52.86-1.14 1.35-1.7l-.03-.03-2.3 2.06c-1.17 1.01-2.2 1.8-3.07 1.8-.6-.01-.98-.34-.95-.93Z"/><path d="M63.78 53.85c-.04-.32.25-.5.52-.99.23-.4.5-.84.74-1.2l1.15-1.7c.2-.3.26-.46.2-.55-.09-.14-.26-.07-.43.03-.34.2-.78.55-1.12.88l-1.24 1.24c-.28.3-.4.4-.48.3-.06-.1.08-.26.43-.62.7-.74 1.22-1.28 1.49-1.5.9-.75 1.45-1.65 1.9-2.37.69-1.1.55-1.4 1.44-3.67.65-1.66 1.58-3.72 1.78-3.62.12.05-.13.73-.25 2.08-.16 1.94.22 2.36-.1 3.26a3.27 3.27 0 0 1-2.3 1.95c-.02-.05 1.66-.77 2.01-2.36.15-.69.04-1.49-.18-1.55-.27-.08-.83 1-1.03 2.08-.07.34-.03.33-.1 1.03a12 12 0 0 1-.5 2.8c-.24.75-.5 1.27-.6 1.41-.84 1.25-1.3 1.96-2.1 3.2-.4.61-.76.44-.86.4a.67.67 0 0 1-.37-.53Zm4.1-.66c.03-.88.43-1.43.4-1.76-.88.03-1.2-.2-1.17-.36.03-.2.29-.26.57-.23.3.04.66.13.84.26.51 0 1.12-.62 1.49-1.08.54-.65 1.09-1.4 1.86-1.4.7 0 .95.59.84 1.14-.12.56-.55 1.01-.9 1.01-.42 0-.57-.42-.3-.91.3-.6.3-.82.1-.85-.4-.07-.88.65-1.43 1.27-.52.6-.97.98-1.38 1.05.23.16.6.52.52 1.47-.05.55-.09.92.26.98.29.06.66-.2.98-.39.26-.16.74-.52 1.2-.95.6-.55.89-.85 1.26-1.24.15-.13.3-.33.4-.23.1.1-.16.36-.28.49-.37.4-.98 1.05-1.63 1.6-.6.53-1.67 1.37-2.59 1.37-.55 0-1.06-.32-1.04-1.24Z"/><path d="M80.25 48.65c.6-.03.66.13.38.52-.38.5-1 1.3-1.6 2.16a12.2 12.2 0 0 0-1.01 1.6c-.2.4-.2.66-.1.75.15.14.44 0 .67-.13a9 9 0 0 0 1.3-1.01c.6-.55 1.05-1.01 1.37-1.34.17-.16.32-.33.4-.23.1.1-.05.27-.37.6-.38.38-1.06 1.07-1.6 1.56-.58.53-1.53 1.31-2.48 1.31-.54 0-.8-.3-.83-.68-.03-.36.15-.82.4-1.18l-.02-.03c-.75.75-2.07 1.83-3.16 1.9-.63.03-1.3-.27-1.18-1.31.06-.5.29-1.02.8-1.7l-.02-.03-.38.39c-.11.1-.2.16-.25.1-.06-.1.08-.3.4-.62a11.82 11.82 0 0 1 2.18-1.7c1.12-.66 2.12-1.05 2.87-.92.57.1.77.68.6 1.24.68-.82 1.17-1.25 1.63-1.25Zm-5 2.39c-1.17 1.3-1.66 2.15-1.6 2.58.03.23.17.33.38.33.54 0 1.63-.72 2.4-1.54.92-.91 1.96-2.32 1.99-2.84.03-.43-.2-.6-.52-.6-.57 0-1.6.9-2.64 2.07ZM86.85 52.11c0 .14-.02.17-.05.17-.06 0-.06 0-.12-.1-.2-.36-.52-.52-1.15-.52-.74 0-1.2.29-2.15.29-.31 0-.83-.16-1-.43-.03-.06-.03-.13 0-.16s.08-.03.11 0a.9.9 0 0 0 .46.13c.52 0 1-.33 1.44-.62.28-.23.71-.46 1.17-.46.95 0 1.32.89 1.3 1.7ZM88.43 52.84c0-1.05.7-1.7 1.35-1.74.6-.03.98.33.98.88 0 .43-.17.72-.55 1.02-.26.2-.66.42-.66.75 0 .49.43.75 1.38.75 2.3 0 5-1.7 8-4.25 2.65-2.19 5.17-5.13 8.02-8.14l.88-.92c.26-.3.75-.62 1.04-.59.43.07.34.33-.09.85l-.69.85c-1.52 2.2-3.53 6.67-4.94 8.8 1.13-1.15 3.42-3.44 5.4-5.27a84.72 84.72 0 0 1 4.45-3.89c1.4-1.14 2.3-1.53 3.01-1.53a1.14 1.14 0 0 1 .8.3c.02.01.3.29.38.66.07.45-.2.83-.31.98-.65.91-1.9.86-1.9.82 0-.04.71-.09 1.32-.74.18-.18.49-.52.43-.9-.05-.33-.38-.56-.6-.63-.76-.24-1.64.88-2.16 1.47a68.65 68.65 0 0 0-4.25 5.46c-1.49 2.13-3.04 4.45-3.07 5.66 0 .26.15.43.38.43.46 0 1.26-.5 2.18-1.34.57-.53 1.06-1.02 1.38-1.34.14-.14.25-.27.34-.17.06.1-.06.23-.26.46-.37.4-.89.92-1.6 1.57-.58.52-1.56 1.28-2.36 1.31-.72.03-1.26-.26-1.29-1.2-.03-1.18.89-2.72 2.13-4.52 1.14-1.7 3.3-4.38 4.76-5.79h-.03a110.44 110.44 0 0 0-5.77 5.33 175.92 175.92 0 0 0-5.48 5.62c-.34.36-.49.62-.75.43-.23-.23-.08-.62.1-.88 1.66-2.65 4.53-8.14 6.08-10.33h-.03c-1.06 1.17-4.8 5.4-7.35 7.52-2.84 2.42-5.62 4.28-8.12 4.28-1.32 0-2.53-.43-2.53-2.03Z"/><path d="M114.92 52.84c.55-.43 1.2-1.02 1.75-1.58.17-.16.26-.2.32-.13.06.1-.06.23-.23.43-.38.4-1.3 1.24-1.81 1.63-1.2.92-2.27 1.34-3.25 1.34-1.06 0-1.55-.45-1.52-1.3.03-.66.29-1.25.86-2.03l-.03-.03-.57.59c-.14.13-.23.16-.29.1-.05-.1.06-.23.17-.36a11.32 11.32 0 0 1 2.47-1.96c.83-.5 1.7-.92 2.47-.92.66 0 .89.46.86.88-.06.85-.98 1.5-1.84 2-.83.45-1.8.85-2.46 1.04-.12.26-.18.56-.18.75 0 .5.23.76.67.76.38 0 1.35-.23 2.61-1.21Zm-.97-1.64c.72-.55 1.15-1.24 1.18-1.7.02-.3-.1-.46-.35-.46-.25 0-.69.33-1.26.95-.46.5-1.18 1.54-1.52 2.2a6.37 6.37 0 0 0 1.95-.99Z"/><path d="M121.73 48.65c.57.1.71.59.66 1.11h.03c.63-.82.94-1.11 1.38-1.11.54 0 .69.13.37.52-.52.69-.92 1.3-1.5 2.16-.48.72-1.48 2.32-2.34 3.63.63-.43 1.89-1.31 2.75-2.06.63-.55 1.18-1.05 1.78-1.67.14-.16.29-.22.34-.16.09.1-.14.33-.28.49-.44.46-1.04 1.01-1.7 1.6a30.14 30.14 0 0 1-3.16 2.32 71.65 71.65 0 0 1-3.93 5.86 24.73 24.73 0 0 1-5.9 5.5 4 4 0 0 1-1.99.68c-.72 0-1.5-.27-1.35-1.38.23-1.96 3.56-4.7 5.8-6.37 2.64-1.93 3.85-2.65 5.83-4.06.52-.81 1.46-2.28 1.92-3.07l-.03-.03c-.77.75-2.04 1.76-3.1 1.83-.63.03-1.26-.23-1.18-1.3.06-.5.29-1.02.8-1.7l-.02-.04-.37.4c-.12.09-.2.15-.26.09-.06-.1.14-.36.46-.69a10 10 0 0 1 2.12-1.63c1.03-.63 2.12-1.05 2.87-.92Zm-9.22 11.7c-2.4 1.84-4.53 4.1-4.64 5.8-.03.48.14.78.43.87.45.17 1.29-.16 1.8-.52 1.3-.88 3-2.58 5.26-5.88 1.14-1.67 2.32-3.44 2.9-4.35-1.7 1.27-3.08 2.06-5.75 4.09Zm6.46-9.31c-1.17 1.3-1.66 2.15-1.6 2.58.02.23.17.33.37.33.55 0 1.64-.72 2.41-1.54.92-.91 1.95-2.32 1.98-2.84.03-.43-.2-.59-.52-.59-.57 0-1.6.88-2.64 2.06Z"/></g></svg>