<svg xmlns="http://www.w3.org/2000/svg" width="67" height="68" fill="none"><path stroke="#18BCBC" stroke-linecap="round" stroke-linejoin="round" stroke-width="6" d="M11.3 50.87 25.19 34.2m30.56 16.67L41.85 34.2M8.53 23.09l20.07 13.38c1.78 1.19 2.68 1.78 3.64 2.01.85.2 1.74.2 2.59 0 .96-.23 1.85-.82 3.64-2.01l20.07-13.38M17.4 53.65h32.23c3.11 0 4.67 0 5.86-.6a5.56 5.56 0 0 0 2.42-2.43c.6-1.2.6-2.75.6-5.86V23.64c0-3.11 0-4.67-.6-5.85a5.56 5.56 0 0 0-2.42-2.43c-1.2-.6-2.75-.6-5.86-.6H17.4c-3.11 0-4.67 0-5.86.6a5.56 5.56 0 0 0-2.43 2.43c-.6 1.18-.6 2.74-.6 5.85v21.12c0 3.11 0 4.67.6 5.86a5.56 5.56 0 0 0 2.43 2.42c1.19.61 2.75.61 5.86.61Z"/></svg>