<svg xmlns="http://www.w3.org/2000/svg" width="26" height="26" fill="none"><path stroke="#18BCBC" stroke-linecap="round" stroke-linejoin="round" stroke-width="3" d="M4.33 19.5 9.75 13m11.92 6.5L16.25 13m-13-4.33 7.83 5.21c.7.47 1.04.7 1.42.79.33.08.67.08 1 0 .38-.09.73-.32 1.42-.79l7.83-5.21M6.72 20.58h12.56c1.22 0 1.82 0 2.29-.23.4-.21.74-.54.94-.95.24-.46.24-1.07.24-2.28V8.88c0-1.21 0-1.82-.24-2.28-.2-.4-.54-.74-.94-.95-.47-.23-1.07-.23-2.29-.23H6.72c-1.22 0-1.82 0-2.29.23-.4.21-.74.54-.94.95-.24.46-.24 1.07-.24 2.28v8.24c0 1.21 0 1.82.24 2.28.2.4.54.74.94.95.47.23 1.07.23 2.29.23Z"/></svg>