<svg xmlns="http://www.w3.org/2000/svg" width="169" height="165" fill="none"><g fill="#fff"><path d="M150.52 138.42a7.6 7.6 0 0 0-7.06 4.73 7.7 7.7 0 0 0 5.54 10.47 7.58 7.58 0 0 0 7.84-3.25 7.7 7.7 0 0 0-.94-9.7 7.61 7.61 0 0 0-5.38-2.25Zm0 9.85a2.18 2.18 0 0 1-2.16-2.61 2.2 2.2 0 0 1 1.72-1.73 2.17 2.17 0 0 1 2.6 2.17 2.2 2.2 0 0 1-2.16 2.17Z"/><path d="M153.25 127.73V88.88c.1-5.78-2.01-11.38-5.9-15.65a22.47 22.47 0 0 0-14.97-7.32c-16.46 0-20.77 21.02-25.33 43.28-5.16 25.25-10.45 51.33-32.8 49.92-13.63-.22-24.71-12-24.71-26.26V83.11c24.53-1.28 44.05-19.59 44.05-41.94a39.27 39.27 0 0 0-11.33-27.41V2.74A2.75 2.75 0 0 0 79.54 0H68.45a2.72 2.72 0 0 0-2.72 2.74v11.18a2.75 2.75 0 0 0 2.72 2.75h8.93a33.97 33.97 0 0 1 10.75 24.5c0 20.1-18.53 36.55-41.34 36.55-22.8 0-41.36-16.45-41.36-36.55a34.13 34.13 0 0 1 10.78-24.5h9.09a2.72 2.72 0 0 0 2.72-2.75V2.74A2.75 2.75 0 0 0 25.3 0H14.17a2.72 2.72 0 0 0-2.72 2.74v10.97A39.4 39.4 0 0 0 0 41.17c0 22.35 19.53 40.66 44.09 41.94v49.81c0 17.24 13.48 31.49 29.96 31.75h2.05c25.16 0 31.06-28.86 36.35-54.39 4.03-19.93 7.9-38.88 19.77-38.88A17 17 0 0 1 143.44 77a17.18 17.18 0 0 1 4.35 11.82v38.9c-4.61.7-8.8 3.12-11.7 6.78a18.65 18.65 0 0 0 1.85 25.22 18.43 18.43 0 0 0 25.16 0 18.63 18.63 0 0 0-9.85-32ZM71.18 5.48h5.65v5.7h-5.65v-5.7Zm-54.28 0h5.67v5.7H16.9v-5.7Zm133.62 153.63a12.97 12.97 0 0 1-12.04-8.1 13.17 13.17 0 0 1 2.83-14.27 13.01 13.01 0 0 1 22.24 9.29c0 3.47-1.38 6.8-3.82 9.25a13 13 0 0 1-9.21 3.83Z"/><path d="M21.13 39.1c.14 1.88.67 3.7 1.59 5.34h-7.27a2.72 2.72 0 0 0-2.73 2.74 2.75 2.75 0 0 0 2.73 2.74h10.68C31.58 57.47 40.25 65.3 44 66.97c.88.45 1.86.64 2.84.55h.47a5.62 5.62 0 0 0 2.35-.58c3.74-1.68 12.35-9.5 17.88-17.05h10.66a2.72 2.72 0 0 0 2.73-2.74 2.75 2.75 0 0 0-2.73-2.74h-7.26c.9-1.65 1.43-3.47 1.56-5.34a16.71 16.71 0 0 0-4.86-11.75 16.53 16.53 0 0 0-11.7-4.88c-3.24.02-6.4 1-9.08 2.83A16.3 16.3 0 0 0 31.4 23.7a16.55 16.55 0 0 0-9 9.02 16.73 16.73 0 0 0-1.27 6.4Zm37.38 13.2a48.6 48.6 0 0 1-11.08 9.69c-.2-.03-.41-.03-.62 0a2.5 2.5 0 0 0-.63 0A48.66 48.66 0 0 1 35.1 52.3c-.75-.82-1.46-1.6-2.1-2.38h2.43a2.73 2.73 0 0 0 2.54-1.82l2.38-6.25 4.03 9.48A2.72 2.72 0 0 0 46.77 53h.13a2.68 2.68 0 0 0 2.4-1.46L53.2 44l1.49 4.07a2.74 2.74 0 0 0 2.56 1.83h3.35c-.64.8-1.33 1.59-2.08 2.41ZM37.67 27.96c2.69.02 5.28 1.03 7.27 2.85a2.7 2.7 0 0 0 3.63 0A11.02 11.02 0 0 1 67 39.11a12.66 12.66 0 0 1-2.34 5.33h-5.51l-2.94-8.04a2.78 2.78 0 0 0-2.38-1.83 2.71 2.71 0 0 0-2.58 1.47l-4.18 7.95-4.37-10.44a2.68 2.68 0 0 0-4.08-1.13c-.45.32-.78.78-.97 1.3l-4.12 10.8h-4.55c-1.19-1.57-2-3.4-2.34-5.34a11.2 11.2 0 0 1 3.2-7.9c2.08-2.1 4.89-3.3 7.83-3.32Z"/></g></svg>