<svg xmlns="http://www.w3.org/2000/svg" width="75" height="73" fill="none"><path fill="#fff" d="M66.71 61.35a3.37 3.37 0 0 0-3.13 2.1 3.42 3.42 0 0 0 2.46 4.64 3.36 3.36 0 0 0 3.48-1.44 3.42 3.42 0 0 0-2.8-5.3Zm0 4.37a.96.96 0 0 1-.9-.6.98.98 0 0 1 .71-1.33.96.96 0 0 1 1.15.97.97.97 0 0 1-.96.96Z"/><path fill="#fff" d="M67.92 56.62V39.4a9.96 9.96 0 0 0-9.25-10.18c-7.3 0-9.2 9.3-11.22 19.17-2.29 11.2-4.63 22.76-14.54 22.13-6.04-.1-10.95-5.32-10.95-11.64V36.84c10.87-.57 19.52-8.69 19.52-18.6A17.4 17.4 0 0 0 36.46 6.1V1.2A1.22 1.22 0 0 0 35.26 0h-4.92a1.2 1.2 0 0 0-1.2 1.21v4.96a1.22 1.22 0 0 0 1.2 1.22h3.96a15.06 15.06 0 0 1 4.76 10.86c0 8.9-8.21 16.2-18.32 16.2-10.1 0-18.33-7.3-18.33-16.2A15.13 15.13 0 0 1 7.18 7.39h4.03a1.2 1.2 0 0 0 1.21-1.22V1.21A1.22 1.22 0 0 0 11.22 0H6.27a1.2 1.2 0 0 0-1.2 1.21v4.86A17.46 17.46 0 0 0 0 18.25c0 9.9 8.66 18.02 19.54 18.59v22.08c0 7.63 5.98 13.95 13.28 14.06h.91c11.15 0 13.77-12.78 16.11-24.1 1.79-8.84 3.5-17.24 8.76-17.24a7.53 7.53 0 0 1 6.9 7.73v17.25a8.18 8.18 0 0 0-6.95 8.75A8.26 8.26 0 0 0 66.7 73a8.17 8.17 0 0 0 8.17-7.63 8.27 8.27 0 0 0-6.96-8.75ZM31.55 2.43h2.5v2.53h-2.5V2.43Zm-24.06 0H10v2.53H7.5V2.43Zm59.22 68.1a5.75 5.75 0 0 1-5.33-3.6 5.84 5.84 0 0 1 4.21-7.91 5.75 5.75 0 0 1 5.93 2.47 5.83 5.83 0 0 1-4.8 9.03Z"/><path fill="#fff" d="M9.37 17.33c.06.83.3 1.64.7 2.37H6.85a1.2 1.2 0 0 0-1.21 1.21 1.22 1.22 0 0 0 1.2 1.22h4.74c2.42 3.34 6.26 6.81 7.92 7.55.39.2.82.29 1.26.25h.2c.37-.01.72-.1 1.04-.26 1.66-.75 5.48-4.21 7.93-7.56h4.73a1.2 1.2 0 0 0 1.2-1.21 1.22 1.22 0 0 0-1.2-1.22h-3.22c.4-.73.63-1.53.69-2.36a7.4 7.4 0 0 0-7.34-7.37c-1.43 0-2.84.44-4.03 1.25a7.22 7.22 0 0 0-9.24.9 7.38 7.38 0 0 0-2.15 5.23Zm16.57 5.85a21.54 21.54 0 0 1-4.92 4.3c-.09-.02-.18-.02-.27 0-.1-.02-.19-.02-.28 0a21.56 21.56 0 0 1-4.9-4.3 32.4 32.4 0 0 1-.94-1.05h1.08a1.21 1.21 0 0 0 1.12-.81l1.06-2.77 1.79 4.2a1.2 1.2 0 0 0 1.05.74h.06a1.19 1.19 0 0 0 1.06-.65l1.73-3.34.66 1.8a1.21 1.21 0 0 0 1.13.81h1.48c-.28.36-.58.7-.91 1.07ZM16.7 12.4c1.19.01 2.34.46 3.22 1.27a1.2 1.2 0 0 0 1.6 0 4.89 4.89 0 0 1 8.18 3.67 5.61 5.61 0 0 1-1.04 2.37h-2.44l-1.3-3.57a1.23 1.23 0 0 0-1.06-.8 1.2 1.2 0 0 0-1.15.64l-1.85 3.53-1.93-4.63a1.19 1.19 0 0 0-1.81-.5c-.2.14-.35.34-.43.57l-1.83 4.8h-2.01a5.5 5.5 0 0 1-1.04-2.37 4.96 4.96 0 0 1 4.89-4.98Z"/></svg>