<svg xmlns="http://www.w3.org/2000/svg" width="71" height="72" fill="none"><g clip-path="url(#a)"><path fill="#fff" d="M8.43 19.67a1.98 1.98 0 0 1-1.97-1.99V8.54c0-1.1.88-1.98 1.97-1.98h9c1.09 0 1.97.89 1.97 1.98 0 1.1-.88 2-1.96 2h-7.05v7.14c0 1.1-.88 2-1.96 2ZM62.57 65.44h-9a1.98 1.98 0 0 1-1.97-1.98c0-1.1.88-2 1.96-2h7.05v-7.14c0-1.1.88-2 1.96-2 1.09 0 1.97.9 1.97 2v9.14c0 1.1-.88 1.98-1.97 1.98Z"/><path fill="#fff" d="M69.04 72H1.96A1.98 1.98 0 0 1 0 70.01V2C0 .89.88 0 1.96 0h67.08C70.12 0 71 .89 71 1.99V70c0 1.1-.88 1.99-1.96 1.99ZM3.92 68.02h63.16V3.98H3.92v64.04Z"/><path fill="#34D8D8" d="M52.87 40.46c2.06-10.43 4.23-22.75 3.98-23.18-.44-.77-42.72 16.18-42.72 16.18l10.94 5.84s4.62 12.44 5.44 12.65c.59.15 6.61-5.32 6.61-5.32l12.53 8.12M38 34.79l-4.8 7.38-3.04-7.39 19.35-8.63-11.51 8.64Z"/><path fill="#fff" d="M49.65 56.74c-.37 0-.73-.1-1.06-.31l-11.28-7.31c-.56.5-1.27 1.12-2.01 1.75-3.3 2.82-4.14 3.3-5.27 3.01-1.07-.27-1.6-1.22-2.5-3.15-.5-1.1-1.12-2.58-1.86-4.43a299.6 299.6 0 0 1-2.17-5.59l-10.28-5.5a2 2 0 0 1 .2-3.6c.1-.04 10.7-4.29 21.2-8.39 6.18-2.4 11.13-4.3 14.7-5.6 2.14-.8 3.8-1.38 4.97-1.76.66-.22 1.17-.37 1.54-.46 1.28-.32 2.2-.02 2.71.87.43.75.54.95-.88 9.2a725.78 725.78 0 0 1-2.86 15.38 1.96 1.96 0 0 1-2.31 1.56 1.99 1.99 0 0 1-1.54-2.34 561.84 561.84 0 0 0 3.64-20.13c-6.27 2.15-23.1 8.73-35.76 13.78l7.15 3.82c.43.23.75.6.92 1.06 1.45 3.88 3.21 8.32 4.25 10.58 1.24-1 3.1-2.6 4.66-4.03.66-.6 1.63-.67 2.37-.2l12.52 8.12a2 2 0 0 1 .6 2.75c-.37.6-1 .92-1.65.92ZM33.2 44.15h-.18a1.96 1.96 0 0 1-1.63-1.22l-3.04-7.38a2 2 0 0 1 1.02-2.59l19.35-8.63c.92-.4 1.99-.05 2.49.83a2 2 0 0 1-.53 2.6l-11.24 8.42-4.6 7.08c-.37.56-.98.9-1.64.9Zm-.49-8.33.88 2.13 2.31-3.55-3.19 1.42Z"/></g><defs><clipPath id="a"><path fill="#fff" d="M0 0h71v72H0z"/></clipPath></defs></svg>