<svg xmlns="http://www.w3.org/2000/svg" width="46" height="99" fill="none"><path fill="#fff" d="M9.34 38.93C19.17 18.77 30.47 6.23 37.3 8.66c2.77.98 5.27 4.58 5.45 4.86 4.45 6.5 2.97 14.78 2.59 16.9-1.23 6.82-5.47 15.27-11.87 17.2-2.73.81-5.05.2-5.3 1.17-.45 1.83 7.9 3.38 11.17 10.34 2.4 5.1 2.06 13.14-2.38 18.6-4.22 5.19-10.75 6.35-15.36 4.42-6.44-2.71-8.69-12.3-10.06-11.62-.73.37-.36 3.22-.04 4.74.91 4.34 3.33 7.1 4.11 8.02 2.61 3.06 5.99 7.67 10.3 15.13-8.6-10.28-12.04-14.13-13.41-15.47a36.56 36.56 0 0 1-2.78-3.16 10.5 10.5 0 0 1-1.74-2.64 10.12 10.12 0 0 1-.7-2.5c-.55-3.3-.88-6.58-1.03-7.79-.38-2.98-1.17-5.11-1.8-6.83-2.05-5.67-4.84-8.6-3.87-10.8.12-.27.4-.78.97-1.99.64-1.36.95-2.05.96-2.42.03-1.48-1.57-1.75-2.21-3.53-.73-2.02 0-4.44.86-5.85 1.42-2.28 3.45-2.24 5.6-3.4.99-.54 3.6-2.1 6.79-10.26C18.07 10.22 18.72 0 18.77 0c.05.01-.2 10.93-4.36 25.1a115.86 115.86 0 0 1-5.07 13.83Z"/></svg>